<svg width="240" height="60" viewBox="0 0 240 60" fill="none" xmlns="http://www.w3.org/2000/svg">
<path d="M20 0H226C233.732 0 240 6.26801 240 14V40L220 60H14C6.26801 60 0 53.732 0 46V20L20 0Z" fill="black" fill-opacity="0.25"/>
<path d="M1 20.4142L20.4142 1H226C233.18 1 239 6.8203 239 14V39.5858L219.586 59H14C6.8203 59 1 53.1797 1 46V20.4142Z" stroke="white" stroke-opacity="0.15" stroke-width="2"/>
<path d="M240.001 46L240.001 60H226L240.001 46Z" fill="white"/>
<path d="M2 7V12L12 2H7L2 7Z" fill="white"/>
<path d="M201.964 5H226C230.971 5 235 9.02944 235 14V37.92L217.92 55H185V21.9643L201.964 5Z" fill="white" fill-opacity="0.15"/>
<path d="M201.964 5H226C230.971 5 235 9.02944 235 14V37.92L217.92 55H185V21.9643L201.964 5Z" stroke="white"/>
<g clip-path="url(#clip0_1854_17795)">
<path d="M202 37H218V30H220V38C220 38.2652 219.895 38.5196 219.707 38.7071C219.52 38.8946 219.265 39 219 39H201C200.735 39 200.48 38.8946 200.293 38.7071C200.105 38.5196 200 38.2652 200 38V30H202V37ZM211 27V34H209V27H204L210 21L216 27H211Z" fill="white" fill-opacity="0.55"/>
</g>
<path d="M25.96 31.18V29.8C26.64 29.8 27.2067 29.7133 27.66 29.54C28.1133 29.3667 28.4533 29.1333 28.68 28.84C28.92 28.5333 29.04 28.2 29.04 27.84C29.04 27.4933 28.9533 27.1933 28.78 26.94C28.62 26.6733 28.3667 26.4667 28.02 26.32C27.6867 26.1733 27.2733 26.1 26.78 26.1C26.2733 26.1 25.8333 26.18 25.46 26.34C25.0867 26.4867 24.7933 26.7 24.58 26.98C24.38 27.2467 24.28 27.5533 24.28 27.9H21.62C21.62 27.1 21.82 26.3933 22.22 25.78C22.6333 25.1533 23.2267 24.66 24 24.3C24.7733 23.94 25.7 23.76 26.78 23.76C27.8867 23.76 28.8133 23.9333 29.56 24.28C30.32 24.6267 30.9 25.0867 31.3 25.66C31.7 26.2333 31.9 26.8733 31.9 27.58C31.9 28.1533 31.7467 28.6667 31.44 29.12C31.1333 29.56 30.7133 29.9333 30.18 30.24C29.6467 30.5467 29.02 30.78 28.3 30.94C27.58 31.1 26.8 31.18 25.96 31.18ZM26.82 38.28C25.8333 38.28 24.9733 38.16 24.24 37.92C23.52 37.68 22.92 37.3533 22.44 36.94C21.9733 36.5133 21.62 36.0333 21.38 35.5C21.14 34.9533 21.02 34.38 21.02 33.78H23.86C23.8867 34.2333 24.02 34.62 24.26 34.94C24.5 35.26 24.8267 35.5067 25.24 35.68C25.6667 35.84 26.1667 35.92 26.74 35.92C27.6067 35.92 28.2733 35.7533 28.74 35.42C29.2067 35.0733 29.44 34.5733 29.44 33.92C29.44 33.48 29.3067 33.1 29.04 32.78C28.7867 32.4467 28.4 32.1933 27.88 32.02C27.36 31.8467 26.72 31.76 25.96 31.76V30.24C27.1733 30.24 28.2533 30.38 29.2 30.66C30.16 30.9267 30.9133 31.3533 31.46 31.94C32.02 32.5133 32.3 33.2733 32.3 34.22C32.3 35.02 32.0933 35.7267 31.68 36.34C31.2667 36.9533 30.6467 37.4333 29.82 37.78C29.0067 38.1133 28.0067 38.28 26.82 38.28ZM36.1553 34.82L36.4953 32.56H43.2153L43.5553 34.82H36.1553ZM39.8153 28.54L37.7153 33.36L37.7753 34L35.9353 38H32.7153L39.8153 23.18L46.9153 38H43.6753L41.8753 34.12L41.9153 33.4L39.8153 28.54ZM48.5141 24H56.3941V26.58H51.3741V38H48.5141V24ZM58.1216 24H60.9816V38H58.1216V24ZM59.8616 26.42V24H62.6416C63.7482 24 64.6882 24.18 65.4616 24.54C66.2482 24.9 66.8482 25.4133 67.2616 26.08C67.6749 26.7467 67.8816 27.54 67.8816 28.46C67.8816 29.3667 67.6749 30.16 67.2616 30.84C66.8482 31.5067 66.2482 32.02 65.4616 32.38C64.6882 32.74 63.7482 32.92 62.6416 32.92H59.8616V30.5H62.6416C63.4016 30.5 64.0016 30.3267 64.4416 29.98C64.8816 29.6333 65.1016 29.1267 65.1016 28.46C65.1016 27.78 64.8816 27.2733 64.4416 26.94C64.0016 26.5933 63.4016 26.42 62.6416 26.42H59.8616ZM80.1288 24L73.5488 38H70.5688L72.4288 33.78L67.8487 24H71.0888L74.5688 32.68L73.2288 32.62L77.1088 24H80.1288ZM85.9405 31.18V29.8C86.6205 29.8 87.1871 29.7133 87.6405 29.54C88.0938 29.3667 88.4338 29.1333 88.6605 28.84C88.9005 28.5333 89.0205 28.2 89.0205 27.84C89.0205 27.4933 88.9338 27.1933 88.7605 26.94C88.6005 26.6733 88.3471 26.4667 88.0005 26.32C87.6671 26.1733 87.2538 26.1 86.7605 26.1C86.2538 26.1 85.8138 26.18 85.4405 26.34C85.0671 26.4867 84.7738 26.7 84.5605 26.98C84.3605 27.2467 84.2605 27.5533 84.2605 27.9H81.6005C81.6005 27.1 81.8005 26.3933 82.2005 25.78C82.6138 25.1533 83.2071 24.66 83.9805 24.3C84.7538 23.94 85.6805 23.76 86.7605 23.76C87.8671 23.76 88.7938 23.9333 89.5405 24.28C90.3005 24.6267 90.8805 25.0867 91.2805 25.66C91.6805 26.2333 91.8805 26.8733 91.8805 27.58C91.8805 28.1533 91.7271 28.6667 91.4205 29.12C91.1138 29.56 90.6938 29.9333 90.1605 30.24C89.6271 30.5467 89.0005 30.78 88.2805 30.94C87.5605 31.1 86.7805 31.18 85.9405 31.18ZM86.8005 38.28C85.8138 38.28 84.9538 38.16 84.2205 37.92C83.5005 37.68 82.9005 37.3533 82.4205 36.94C81.9538 36.5133 81.6005 36.0333 81.3605 35.5C81.1205 34.9533 81.0005 34.38 81.0005 33.78H83.8405C83.8671 34.2333 84.0005 34.62 84.2405 34.94C84.4805 35.26 84.8071 35.5067 85.2205 35.68C85.6471 35.84 86.1471 35.92 86.7205 35.92C87.5871 35.92 88.2538 35.7533 88.7205 35.42C89.1871 35.0733 89.4205 34.5733 89.4205 33.92C89.4205 33.48 89.2871 33.1 89.0205 32.78C88.7671 32.4467 88.3805 32.1933 87.8605 32.02C87.3405 31.8467 86.7005 31.76 85.9405 31.76V30.24C87.1538 30.24 88.2338 30.38 89.1805 30.66C90.1405 30.9267 90.8938 31.3533 91.4405 31.94C92.0005 32.5133 92.2805 33.2733 92.2805 34.22C92.2805 35.02 92.0738 35.7267 91.6605 36.34C91.2471 36.9533 90.6271 37.4333 89.8005 37.78C88.9871 38.1133 87.9871 38.28 86.8005 38.28ZM107.109 27.02L94.4888 38.7L94.5888 34.98L107.209 23.3L107.109 27.02ZM97.2488 24V35.72L94.4888 38.7V24H97.2488ZM107.209 23.3V38H104.449V26.36L107.209 23.3ZM108.85 26.58V24H119.25V26.58H115.47V38H112.61V26.58H108.85ZM120.875 24H123.735V38H120.875V24ZM122.615 31.5V29.08H125.395C126.502 29.08 127.442 29.26 128.215 29.62C129.002 29.98 129.602 30.4933 130.015 31.16C130.429 31.8267 130.635 32.62 130.635 33.54C130.635 34.4467 130.429 35.24 130.015 35.92C129.602 36.5867 129.002 37.1 128.215 37.46C127.442 37.82 126.502 38 125.395 38H122.615V35.58H125.395C125.902 35.58 126.335 35.5067 126.695 35.36C127.069 35.2 127.355 34.9667 127.555 34.66C127.755 34.3533 127.855 33.98 127.855 33.54C127.855 33.1 127.755 32.7267 127.555 32.42C127.355 32.1133 127.069 31.8867 126.695 31.74C126.335 31.58 125.902 31.5 125.395 31.5H122.615Z" fill="white" fill-opacity="0.55"/>
<defs>
<clipPath id="clip0_1854_17795">
<rect width="24" height="24" fill="white" transform="translate(198 18)"/>
</clipPath>
</defs>
</svg>
