<svg width="240" height="60" viewBox="0 0 240 60" fill="none" xmlns="http://www.w3.org/2000/svg">
<path d="M20 0H226C233.732 0 240 6.26801 240 14V40L220 60H14C6.26801 60 0 53.732 0 46V20L20 0Z" fill="black" fill-opacity="0.35"/>
<path d="M1 20.4142L20.4142 1H226C233.18 1 239 6.8203 239 14V39.5858L219.586 59H14C6.8203 59 1 53.1797 1 46V20.4142Z" stroke="white" stroke-opacity="0.35" stroke-width="2"/>
<path d="M240.001 46L240.001 60H226L240.001 46Z" fill="white"/>
<path d="M2 7V12L12 2H7L2 7Z" fill="white"/>
<path d="M201.964 5H226C230.971 5 235 9.02944 235 14V37.92L217.92 55H185V21.9643L201.964 5Z" fill="white" fill-opacity="0.25"/>
<path d="M201.964 5H226C230.971 5 235 9.02944 235 14V37.92L217.92 55H185V21.9643L201.964 5Z" stroke="white"/>
<g clip-path="url(#clip0_1858_18624)">
<path d="M203.463 22.433C205.278 20.8607 207.599 19.9967 210 20C215.523 20 220 24.477 220 30C220 32.136 219.33 34.116 218.19 35.74L215 30H218C218 28.4316 217.539 26.8978 216.675 25.5893C215.81 24.2807 214.58 23.2552 213.137 22.6401C211.694 22.0251 210.103 21.8477 208.56 22.13C207.017 22.4123 205.591 23.1419 204.46 24.228L203.463 22.433ZM216.537 37.567C214.722 39.1393 212.401 40.0034 210 40C204.477 40 200 35.523 200 30C200 27.864 200.67 25.884 201.81 24.26L205 30H202C202 31.5684 202.461 33.1022 203.325 34.4108C204.19 35.7193 205.42 36.7449 206.863 37.3599C208.306 37.9749 209.897 38.1523 211.44 37.87C212.983 37.5877 214.409 36.8581 215.54 35.772L216.537 37.567Z" fill="white"/>
</g>
<path d="M25.96 31.18V29.8C26.64 29.8 27.2067 29.7133 27.66 29.54C28.1133 29.3667 28.4533 29.1333 28.68 28.84C28.92 28.5333 29.04 28.2 29.04 27.84C29.04 27.4933 28.9533 27.1933 28.78 26.94C28.62 26.6733 28.3667 26.4667 28.02 26.32C27.6867 26.1733 27.2733 26.1 26.78 26.1C26.2733 26.1 25.8333 26.18 25.46 26.34C25.0867 26.4867 24.7933 26.7 24.58 26.98C24.38 27.2467 24.28 27.5533 24.28 27.9H21.62C21.62 27.1 21.82 26.3933 22.22 25.78C22.6333 25.1533 23.2267 24.66 24 24.3C24.7733 23.94 25.7 23.76 26.78 23.76C27.8867 23.76 28.8133 23.9333 29.56 24.28C30.32 24.6267 30.9 25.0867 31.3 25.66C31.7 26.2333 31.9 26.8733 31.9 27.58C31.9 28.1533 31.7467 28.6667 31.44 29.12C31.1333 29.56 30.7133 29.9333 30.18 30.24C29.6467 30.5467 29.02 30.78 28.3 30.94C27.58 31.1 26.8 31.18 25.96 31.18ZM26.82 38.28C25.8333 38.28 24.9733 38.16 24.24 37.92C23.52 37.68 22.92 37.3533 22.44 36.94C21.9733 36.5133 21.62 36.0333 21.38 35.5C21.14 34.9533 21.02 34.38 21.02 33.78H23.86C23.8867 34.2333 24.02 34.62 24.26 34.94C24.5 35.26 24.8267 35.5067 25.24 35.68C25.6667 35.84 26.1667 35.92 26.74 35.92C27.6067 35.92 28.2733 35.7533 28.74 35.42C29.2067 35.0733 29.44 34.5733 29.44 33.92C29.44 33.48 29.3067 33.1 29.04 32.78C28.7867 32.4467 28.4 32.1933 27.88 32.02C27.36 31.8467 26.72 31.76 25.96 31.76V30.24C27.1733 30.24 28.2533 30.38 29.2 30.66C30.16 30.9267 30.9133 31.3533 31.46 31.94C32.02 32.5133 32.3 33.2733 32.3 34.22C32.3 35.02 32.0933 35.7267 31.68 36.34C31.2667 36.9533 30.6467 37.4333 29.82 37.78C29.0067 38.1133 28.0067 38.28 26.82 38.28ZM36.1553 34.82L36.4953 32.56H43.2153L43.5553 34.82H36.1553ZM39.8153 28.54L37.7153 33.36L37.7753 34L35.9353 38H32.7153L39.8153 23.18L46.9153 38H43.6753L41.8753 34.12L41.9153 33.4L39.8153 28.54ZM57.4941 26.58H51.4141V38H48.5141V24H60.3941V38H57.4941V26.58ZM74.1522 24L67.5722 38H64.5922L66.4522 33.78L61.8722 24H65.1122L68.5922 32.68L67.2522 32.62L71.1322 24H74.1522ZM77.5309 31C77.5309 31.92 77.7376 32.7267 78.1509 33.42C78.5776 34.1 79.1309 34.6267 79.8109 35C80.4909 35.36 81.2309 35.54 82.0309 35.54C82.6976 35.54 83.2909 35.4533 83.8109 35.28C84.3309 35.1067 84.7976 34.8733 85.2109 34.58C85.6376 34.2867 86.0043 33.9667 86.3109 33.62V36.84C85.7376 37.2933 85.1109 37.6467 84.4309 37.9C83.7643 38.1533 82.9176 38.28 81.8909 38.28C80.8243 38.28 79.8309 38.1067 78.9109 37.76C78.0043 37.4133 77.2109 36.9133 76.5309 36.26C75.8643 35.6067 75.3443 34.84 74.9709 33.96C74.6109 33.0667 74.4309 32.08 74.4309 31C74.4309 29.92 74.6109 28.94 74.9709 28.06C75.3443 27.1667 75.8643 26.3933 76.5309 25.74C77.2109 25.0867 78.0043 24.5867 78.9109 24.24C79.8309 23.8933 80.8243 23.72 81.8909 23.72C82.9176 23.72 83.7643 23.8467 84.4309 24.1C85.1109 24.3533 85.7376 24.7067 86.3109 25.16V28.38C86.0043 28.0333 85.6376 27.7133 85.2109 27.42C84.7976 27.1267 84.3309 26.8933 83.8109 26.72C83.2909 26.5467 82.6976 26.46 82.0309 26.46C81.2309 26.46 80.4909 26.6467 79.8109 27.02C79.1309 27.38 78.5776 27.9 78.1509 28.58C77.7376 29.26 77.5309 30.0667 77.5309 31ZM87.1513 26.58V24H97.5513V26.58H93.7713V38H90.9113V26.58H87.1513ZM111.796 27.02L99.1763 38.7L99.2763 34.98L111.896 23.3L111.796 27.02ZM101.936 24V35.72L99.1763 38.7V24H101.936ZM111.896 23.3V38H109.136V26.36L111.896 23.3ZM113.538 26.58V24H123.938V26.58H120.158V38H117.298V26.58H113.538ZM125.563 24H128.423V38H125.563V24ZM127.303 31.5V29.08H130.083C131.19 29.08 132.13 29.26 132.903 29.62C133.69 29.98 134.29 30.4933 134.703 31.16C135.116 31.8267 135.323 32.62 135.323 33.54C135.323 34.4467 135.116 35.24 134.703 35.92C134.29 36.5867 133.69 37.1 132.903 37.46C132.13 37.82 131.19 38 130.083 38H127.303V35.58H130.083C130.59 35.58 131.023 35.5067 131.383 35.36C131.756 35.2 132.043 34.9667 132.243 34.66C132.443 34.3533 132.543 33.98 132.543 33.54C132.543 33.1 132.443 32.7267 132.243 32.42C132.043 32.1133 131.756 31.8867 131.383 31.74C131.023 31.58 130.59 31.5 130.083 31.5H127.303Z" fill="white"/>
<defs>
<clipPath id="clip0_1858_18624">
<rect width="24" height="24" fill="white" transform="translate(198 18)"/>
</clipPath>
</defs>
</svg>
