<svg width="240" height="60" viewBox="0 0 240 60" fill="none" xmlns="http://www.w3.org/2000/svg">
<path d="M20 0H226C233.732 0 240 6.26801 240 14V40L220 60H14C6.26801 60 0 53.732 0 46V20L20 0Z" fill="white" fill-opacity="0.15"/>
<path d="M1 20.4142L20.4142 1H226C233.18 1 239 6.8203 239 14V39.5858L219.586 59H14C6.8203 59 1 53.1797 1 46V20.4142Z" stroke="white" stroke-opacity="0.15" stroke-width="2"/>
<path d="M240.001 46L240.001 60H226L240.001 46Z" fill="white" fill-opacity="0.15"/>
<path d="M2 7V12L12 2H7L2 7Z" fill="white" fill-opacity="0.15"/>
<path d="M201.964 5H226C230.971 5 235 9.02944 235 14V37.92L217.92 55H185V21.9643L201.964 5Z" fill="white" fill-opacity="0.1"/>
<g clip-path="url(#clip0_1858_18794)">
<path d="M209 20C213.968 20 218 24.032 218 29C218 33.968 213.968 38 209 38C204.032 38 200 33.968 200 29C200 24.032 204.032 20 209 20ZM209 36C212.867 36 216 32.867 216 29C216 25.132 212.867 22 209 22C205.132 22 202 25.132 202 29C202 32.867 205.132 36 209 36ZM217.485 36.071L220.314 38.899L218.899 40.314L216.071 37.485L217.485 36.071Z" fill="white" fill-opacity="0.15"/>
</g>
<path d="M22.46 31.84V29.26H32.74V31.84H22.46ZM30.92 24H33.78V38H30.92V24ZM21.52 24H24.38V38H21.52V24ZM38.7334 34.82L39.0734 32.56H45.7934L46.1334 34.82H38.7334ZM42.3934 28.54L40.2934 33.36L40.3534 34L38.5134 38H35.2934L42.3934 23.18L49.4934 38H46.2534L44.4534 34.12L44.4934 33.4L42.3934 28.54ZM63.6322 27.02L51.0122 38.7L51.1122 34.98L63.7322 23.3L63.6322 27.02ZM53.7722 24V35.72L51.0122 38.7V24H53.7722ZM63.7322 23.3V38H60.9722V26.36L63.7322 23.3ZM54.6322 19.72H56.4322C56.4322 19.9333 56.4855 20.14 56.5922 20.34C56.6989 20.54 56.8589 20.7067 57.0722 20.84C57.2855 20.96 57.5522 21.02 57.8722 21.02C58.2055 21.02 58.4789 20.96 58.6922 20.84C58.9055 20.7067 59.0589 20.54 59.1522 20.34C59.2589 20.14 59.3122 19.9333 59.3122 19.72H61.1322C61.1322 20.24 61.0055 20.72 60.7522 21.16C60.4989 21.6 60.1322 21.9533 59.6522 22.22C59.1722 22.4867 58.5789 22.62 57.8722 22.62C57.1789 22.62 56.5855 22.4867 56.0922 22.22C55.6122 21.9533 55.2455 21.6 54.9922 21.16C54.7522 20.72 54.6322 20.24 54.6322 19.72ZM65.3739 26.58V24H75.7739V26.58H71.9939V38H69.1339V26.58H65.3739ZM90.0189 27.02L77.3989 38.7L77.4989 34.98L90.1189 23.3L90.0189 27.02ZM80.1589 24V35.72L77.3989 38.7V24H80.1589ZM90.1189 23.3V38H87.3589V26.36L90.1189 23.3Z" fill="white" fill-opacity="0.15"/>
<defs>
<clipPath id="clip0_1858_18794">
<rect width="24" height="24" fill="white" transform="translate(198 18)"/>
</clipPath>
</defs>
</svg>
