<svg width="240" height="60" viewBox="0 0 240 60" fill="none" xmlns="http://www.w3.org/2000/svg">
<path d="M20 0H226C233.732 0 240 6.26801 240 14V40L220 60H14C6.26801 60 0 53.732 0 46V20L20 0Z" fill="white" fill-opacity="0.15"/>
<path d="M1 20.4142L20.4142 1H226C233.18 1 239 6.8203 239 14V39.5858L219.586 59H14C6.8203 59 1 53.1797 1 46V20.4142Z" stroke="white" stroke-opacity="0.15" stroke-width="2"/>
<path d="M240.001 46L240.001 60H226L240.001 46Z" fill="white" fill-opacity="0.15"/>
<path d="M2 7V12L12 2H7L2 7Z" fill="white" fill-opacity="0.15"/>
<path d="M201.964 5H226C230.971 5 235 9.02944 235 14V37.92L217.92 55H185V21.9643L201.964 5Z" fill="white" fill-opacity="0.1"/>
<g clip-path="url(#clip0_1895_24212)">
<path d="M220 39H200V37H201V22C201 21.7348 201.105 21.4804 201.293 21.2929C201.48 21.1054 201.735 21 202 21H216C216.265 21 216.52 21.1054 216.707 21.2929C216.895 21.4804 217 21.7348 217 22V27H219V37H220V39ZM215 37H217V29H211V37H213V31H215V37ZM215 27V23H203V37H209V27H215ZM205 29H207V31H205V29ZM205 33H207V35H205V33ZM205 25H207V27H205V25Z" fill="white" fill-opacity="0.15"/>
</g>
<path d="M30.58 26.58H24.5V38H21.6V24H33.48V38H30.58V26.58ZM38.8181 31C38.8181 31.8933 39.0048 32.6867 39.3781 33.38C39.7515 34.0733 40.2648 34.62 40.9181 35.02C41.5715 35.42 42.3315 35.62 43.1981 35.62C44.0648 35.62 44.8248 35.42 45.4781 35.02C46.1315 34.62 46.6381 34.0733 46.9981 33.38C47.3715 32.6867 47.5581 31.8933 47.5581 31C47.5581 30.1067 47.3781 29.3133 47.0181 28.62C46.6581 27.9267 46.1515 27.38 45.4981 26.98C44.8448 26.58 44.0781 26.38 43.1981 26.38C42.3315 26.38 41.5715 26.58 40.9181 26.98C40.2648 27.38 39.7515 27.9267 39.3781 28.62C39.0048 29.3133 38.8181 30.1067 38.8181 31ZM35.7981 31C35.7981 29.9333 35.9848 28.96 36.3581 28.08C36.7315 27.1867 37.2515 26.4133 37.9181 25.76C38.5848 25.1067 39.3648 24.6067 40.2581 24.26C41.1648 23.9 42.1448 23.72 43.1981 23.72C44.2648 23.72 45.2448 23.9 46.1381 24.26C47.0315 24.6067 47.8115 25.1067 48.4781 25.76C49.1581 26.4133 49.6781 27.1867 50.0381 28.08C50.4115 28.96 50.5981 29.9333 50.5981 31C50.5981 32.0533 50.4115 33.0333 50.0381 33.94C49.6781 34.8333 49.1648 35.6133 48.4981 36.28C47.8448 36.9467 47.0648 37.4667 46.1581 37.84C45.2648 38.2 44.2781 38.38 43.1981 38.38C42.1181 38.38 41.1248 38.2 40.2181 37.84C39.3248 37.4667 38.5448 36.9467 37.8781 36.28C37.2115 35.6133 36.6981 34.8333 36.3381 33.94C35.9781 33.0333 35.7981 32.0533 35.7981 31ZM59.1836 28.7L55.9636 37.4H52.7036L59.1836 23.3L65.6636 37.4H62.4036L59.1836 28.7ZM64.1036 38H54.2636V40.2H51.4836V35.5H66.8836V40.2H64.1036V38ZM70.9275 31C70.9275 31.8933 71.1142 32.6867 71.4875 33.38C71.8608 34.0733 72.3742 34.62 73.0275 35.02C73.6808 35.42 74.4408 35.62 75.3075 35.62C76.1742 35.62 76.9342 35.42 77.5875 35.02C78.2408 34.62 78.7475 34.0733 79.1075 33.38C79.4808 32.6867 79.6675 31.8933 79.6675 31C79.6675 30.1067 79.4875 29.3133 79.1275 28.62C78.7675 27.9267 78.2608 27.38 77.6075 26.98C76.9542 26.58 76.1875 26.38 75.3075 26.38C74.4408 26.38 73.6808 26.58 73.0275 26.98C72.3742 27.38 71.8608 27.9267 71.4875 28.62C71.1142 29.3133 70.9275 30.1067 70.9275 31ZM67.9075 31C67.9075 29.9333 68.0942 28.96 68.4675 28.08C68.8408 27.1867 69.3608 26.4133 70.0275 25.76C70.6942 25.1067 71.4742 24.6067 72.3675 24.26C73.2742 23.9 74.2542 23.72 75.3075 23.72C76.3742 23.72 77.3542 23.9 78.2475 24.26C79.1408 24.6067 79.9208 25.1067 80.5875 25.76C81.2675 26.4133 81.7875 27.1867 82.1475 28.08C82.5208 28.96 82.7075 29.9333 82.7075 31C82.7075 32.0533 82.5208 33.0333 82.1475 33.94C81.7875 34.8333 81.2742 35.6133 80.6075 36.28C79.9542 36.9467 79.1742 37.4667 78.2675 37.84C77.3742 38.2 76.3875 38.38 75.3075 38.38C74.2275 38.38 73.2342 38.2 72.3275 37.84C71.4342 37.4667 70.6542 36.9467 69.9875 36.28C69.3208 35.6133 68.8075 34.8333 68.4475 33.94C68.0875 33.0333 67.9075 32.0533 67.9075 31ZM85.9384 31.76V29.38H90.5184C91.4251 29.38 92.2318 29.56 92.9384 29.92C93.6584 30.2667 94.2251 30.7667 94.6384 31.42C95.0651 32.06 95.2784 32.8133 95.2784 33.68C95.2784 34.5333 95.0651 35.2867 94.6384 35.94C94.2251 36.5933 93.6584 37.1 92.9384 37.46C92.2318 37.82 91.4251 38 90.5184 38H85.9384V35.58H89.9984C90.4784 35.58 90.8984 35.5133 91.2584 35.38C91.6184 35.2333 91.8918 35.02 92.0784 34.74C92.2784 34.46 92.3784 34.1067 92.3784 33.68C92.3784 33.24 92.2784 32.88 92.0784 32.6C91.8918 32.32 91.6184 32.1133 91.2584 31.98C90.8984 31.8333 90.4784 31.76 89.9984 31.76H85.9384ZM84.9984 24H94.2184V26.42H87.8984V38H84.9984V24ZM97.5942 24H100.454V38H97.5942V24ZM99.3342 26.42V24H102.114C103.221 24 104.161 24.18 104.934 24.54C105.721 24.9 106.321 25.4133 106.734 26.08C107.148 26.7467 107.354 27.54 107.354 28.46C107.354 29.3667 107.148 30.16 106.734 30.84C106.321 31.5067 105.721 32.02 104.934 32.38C104.161 32.74 103.221 32.92 102.114 32.92H99.3342V30.5H102.114C102.874 30.5 103.474 30.3267 103.914 29.98C104.354 29.6333 104.574 29.1267 104.574 28.46C104.574 27.78 104.354 27.2733 103.914 26.94C103.474 26.5933 102.874 26.42 102.114 26.42H99.3342ZM110.101 34.82L110.441 32.56H117.161L117.501 34.82H110.101ZM113.761 28.54L111.661 33.36L111.721 34L109.881 38H106.661L113.761 23.18L120.861 38H117.621L115.821 34.12L115.861 33.4L113.761 28.54ZM119.573 26.58V24H129.973V26.58H126.193V38H123.333V26.58H119.573ZM131.598 24H134.458V38H131.598V24ZM133.338 31.5V29.08H136.118C137.225 29.08 138.165 29.26 138.938 29.62C139.725 29.98 140.325 30.4933 140.738 31.16C141.151 31.8267 141.358 32.62 141.358 33.54C141.358 34.4467 141.151 35.24 140.738 35.92C140.325 36.5867 139.725 37.1 138.938 37.46C138.165 37.82 137.225 38 136.118 38H133.338V35.58H136.118C136.625 35.58 137.058 35.5067 137.418 35.36C137.791 35.2 138.078 34.9667 138.278 34.66C138.478 34.3533 138.578 33.98 138.578 33.54C138.578 33.1 138.478 32.7267 138.278 32.42C138.078 32.1133 137.791 31.8867 137.418 31.74C137.058 31.58 136.625 31.5 136.118 31.5H133.338Z" fill="white" fill-opacity="0.15"/>
<defs>
<clipPath id="clip0_1895_24212">
<rect width="24" height="24" fill="white" transform="translate(198 18)"/>
</clipPath>
</defs>
</svg>
