<svg width="48" height="48" viewBox="0 0 48 48" fill="none" xmlns="http://www.w3.org/2000/svg">
<g id="Auth light icon">
<path id="Vector" d="M31.2656 3C28.8047 3 26.3203 4.27734 24.6562 6.23438V6.28125C23.4727 7.75195 22.1895 10.0723 22.5938 12.75C22.4004 12.6738 22.3887 12.6973 22.1719 12.6094C21.1348 12.1875 19.8516 11.7188 18.3281 11.7188C12.3574 11.7188 7.82812 17.127 7.82812 24.2344C7.82812 28.834 9.375 33.1465 11.4375 36.375C12.4688 37.9922 13.6406 39.3223 14.8594 40.3125C16.0781 41.3027 17.3555 42 18.7969 42C20.2383 42 21.3164 41.5137 22.125 41.1562C22.9336 40.7988 23.5605 40.5 24.75 40.5C25.8223 40.5 26.3672 40.793 27.1875 41.1562C28.0078 41.5195 29.127 42 30.6094 42C32.2148 42 33.5801 41.2148 34.6875 40.2188C35.7949 39.2227 36.7266 37.9395 37.5 36.7031C38.2734 35.4668 38.8828 34.2539 39.3281 33.2812C39.5508 32.7949 39.7148 32.3906 39.8438 32.0625C39.9727 31.7344 40.0371 31.6406 40.125 31.2656L40.4062 30.0469L39.2812 29.5312C39.0176 29.4141 37.9688 28.8926 37.0312 27.9375C36.0938 26.9824 35.2969 25.6758 35.2969 23.6719C35.2969 21.7324 36.041 20.4316 36.8438 19.5C37.2422 19.0371 37.6582 18.6562 37.9688 18.4219C38.127 18.3047 38.25 18.2461 38.3438 18.1875C38.4375 18.1289 38.4199 18.1465 38.5781 18.0469L39.8438 17.25L39 15.9844C36.5508 12.2168 32.6309 11.7188 31.0781 11.7188C30.3574 11.7188 29.8477 11.9707 29.2031 12.0938C29.5664 11.7539 30.0352 11.543 30.3281 11.1562C30.334 11.1504 30.3223 11.1152 30.3281 11.1094C30.3457 11.0918 30.3633 11.0801 30.375 11.0625H30.4219C32.0215 9.27539 32.9062 6.87305 32.7656 4.40625L32.6719 3H31.2656ZM29.4844 6.46875C29.2266 7.45898 28.8047 8.40234 28.125 9.14062L28.0312 9.23438C27.457 10.0078 26.5723 10.582 25.6875 10.9219C25.9336 9.94336 26.3613 8.95312 26.9531 8.20312C26.9648 8.18555 26.9883 8.17383 27 8.15625C27.6562 7.40625 28.5645 6.84375 29.4844 6.46875ZM18.3281 14.7188C19.166 14.7188 20.0859 15.0352 21.0469 15.4219C22.0078 15.8086 22.9043 16.3125 24.1875 16.3125C25.4648 16.3125 26.4316 15.8086 27.5625 15.4219C28.6934 15.0352 29.9004 14.7188 31.0781 14.7188C31.8633 14.7188 33.8027 15.2168 35.4375 16.7344C35.1504 16.9922 34.8984 17.1797 34.5938 17.5312C33.4512 18.8555 32.2969 20.918 32.2969 23.6719C32.2969 26.5312 33.5449 28.6816 34.875 30.0469C35.7012 30.8906 36.2109 31.0898 36.8438 31.4531C36.7617 31.6406 36.7148 31.7871 36.6094 32.0156C36.2051 32.8945 35.6484 34.0195 34.9688 35.1094C34.2891 36.1992 33.4629 37.2598 32.6719 37.9688C31.8809 38.6777 31.1719 39 30.6094 39C29.7598 39 29.2617 38.7656 28.4062 38.3906C27.5508 38.0156 26.373 37.5 24.75 37.5C23.0449 37.5 21.7852 38.0039 20.9062 38.3906C20.0273 38.7773 19.5703 39 18.7969 39C18.4277 39 17.6309 38.7012 16.7344 37.9688C15.8379 37.2363 14.8535 36.123 13.9688 34.7344C12.1934 31.957 10.8281 28.1426 10.8281 24.2344C10.8281 18.3223 14.127 14.7188 18.3281 14.7188Z" fill="white" fill-opacity="0.25"/>
</g>
</svg>
