<svg width="24" height="24" viewBox="0 0 24 24" fill="none" xmlns="http://www.w3.org/2000/svg">
<g clip-path="url(#clip0_805_5476)">
<path d="M18.3652 15.5362L16.9512 14.1202L18.3652 12.7062C18.8329 12.2427 19.2043 11.6913 19.4583 11.0838C19.7123 10.4763 19.8438 9.82465 19.8452 9.1662C19.8466 8.50775 19.718 7.8555 19.4667 7.24689C19.2154 6.63828 18.8463 6.08531 18.3808 5.61971C17.9152 5.15412 17.3622 4.78507 16.7536 4.53376C16.145 4.28245 15.4927 4.15382 14.8343 4.15526C14.1758 4.1567 13.5241 4.28819 12.9166 4.54216C12.3091 4.79614 11.7578 5.1676 11.2942 5.63523L9.88023 7.05023L8.46523 5.63623L9.88123 4.22223C11.1941 2.90941 12.9746 2.17188 14.8312 2.17188C16.6878 2.17188 18.4684 2.90941 19.7812 4.22223C21.0941 5.53505 21.8316 7.31562 21.8316 9.17223C21.8316 11.0288 21.0941 12.8094 19.7812 14.1222L18.3662 15.5362H18.3652ZM15.5372 18.3642L14.1222 19.7782C12.8094 21.0911 11.0288 21.8286 9.17223 21.8286C7.31562 21.8286 5.53505 21.0911 4.22223 19.7782C2.90941 18.4654 2.17188 16.6848 2.17188 14.8282C2.17187 12.9716 2.90941 11.1911 4.22223 9.87823L5.63723 8.46423L7.05123 9.88023L5.63723 11.2942C5.1696 11.7578 4.79814 12.3091 4.54416 12.9166C4.29018 13.5241 4.1587 14.1758 4.15726 14.8343C4.15582 15.4927 4.28445 16.145 4.53576 16.7536C4.78707 17.3622 5.15612 17.9152 5.62171 18.3808C6.08731 18.8463 6.64028 19.2154 7.24889 19.4667C7.8575 19.718 8.50975 19.8466 9.1682 19.8452C9.82665 19.8438 10.4783 19.7123 11.0858 19.4583C11.6933 19.2043 12.2447 18.8329 12.7082 18.3652L14.1222 16.9512L15.5372 18.3652V18.3642ZM14.8292 7.75723L16.2442 9.17223L9.17323 16.2422L7.75823 14.8282L14.8292 7.75823V7.75723Z" fill="white"/>
</g>
<defs>
<clipPath id="clip0_805_5476">
<rect width="24" height="24" fill="white"/>
</clipPath>
</defs>
</svg>
