<svg width="48" height="48" viewBox="0 0 48 48" fill="none" xmlns="http://www.w3.org/2000/svg">
<g clip-path="url(#clip0_703_6389)">
<path d="M30.4842 9.03074L17.0083 22.5047L15.5942 26.7467L13.5142 28.8287L19.1702 34.4867L21.2503 32.4047L25.4943 30.9907L38.9683 17.5147L30.4842 9.03074ZM43.2122 16.1007C43.5872 16.4758 43.7978 16.9844 43.7978 17.5147C43.7978 18.0451 43.5872 18.5537 43.2122 18.9287L27.6543 34.4867L23.4142 35.9007L20.5843 38.7287C20.2092 39.1037 19.7006 39.3143 19.1702 39.3143C18.6399 39.3143 18.1313 39.1037 17.7562 38.7287L9.27025 30.2427C8.89531 29.8677 8.68468 29.3591 8.68468 28.8287C8.68468 28.2984 8.89531 27.7898 9.27025 27.4147L12.0983 24.5867L13.5122 20.3447L29.0703 4.78674C29.4453 4.4118 29.9539 4.20117 30.4842 4.20117C31.0146 4.20117 31.5232 4.4118 31.8983 4.78674L43.2122 16.1007ZM30.4842 14.6867L33.3122 17.5147L23.4123 27.4147L20.5843 24.5867L30.4842 14.6867ZM8.56425 33.7807L14.2203 39.4387L11.3923 42.2667L2.90625 39.4387L8.56225 33.7807H8.56425Z" fill="white" fill-opacity="0.35"/>
</g>
<defs>
<clipPath id="clip0_703_6389">
<rect width="48" height="48" fill="white"/>
</clipPath>
</defs>
</svg>
