<svg width="48" height="48" viewBox="0 0 48 48" fill="none" xmlns="http://www.w3.org/2000/svg">
<g id="Auth light icon">
<path id="Vector" d="M12.9837 4.5C12.1986 4.5 11.4252 4.78125 10.7806 5.29688L10.6869 5.34375L10.64 5.39063L5.9525 10.2188L5.99937 10.2656C4.55211 11.6016 4.10679 13.5996 4.73375 15.3281C4.73961 15.3398 4.72789 15.3633 4.73375 15.375C6.00523 19.0137 9.25719 26.0391 15.6087 32.3906C21.9837 38.7656 29.1029 41.8887 32.6244 43.2656H32.6712C34.4935 43.875 36.4681 43.4414 37.8744 42.2344L42.6087 37.5C43.8509 36.2578 43.8509 34.1016 42.6087 32.8594L36.515 26.7656L36.4681 26.6719C35.2259 25.4297 33.0228 25.4297 31.7806 26.6719L28.7806 29.6719C27.6966 29.1504 25.1127 27.8145 22.64 25.4531C20.1849 23.1094 18.931 20.4141 18.4681 19.3594L21.4681 16.3594C22.7279 15.0996 22.7513 13.002 21.4212 11.7656L21.4681 11.7188L21.3275 11.5781L15.3275 5.39063L15.2806 5.34375L15.1869 5.29688C14.5423 4.78125 13.7689 4.5 12.9837 4.5ZM12.9837 7.5C13.0951 7.5 13.2064 7.55273 13.3119 7.64063L19.3119 13.7813L19.4525 13.9219C19.4408 13.9102 19.5404 14.0684 19.3587 14.25L15.6087 18L14.9056 18.6563L15.2337 19.5938C15.2337 19.5938 16.9564 24.2051 20.5775 27.6563L20.9056 27.9375C24.392 31.1191 28.4994 32.8594 28.4994 32.8594L29.4369 33.2813L33.89 28.8281C34.1478 28.5703 34.1009 28.5703 34.3587 28.8281L40.4994 34.9688C40.7572 35.2266 40.7572 35.1328 40.4994 35.3906L35.9056 39.9844C35.2142 40.5762 34.4818 40.6992 33.6087 40.4063C30.2103 39.0703 23.6068 36.1699 17.7181 30.2813C11.7826 24.3457 8.68297 17.6133 7.54625 14.3438C7.31773 13.7344 7.48179 12.832 8.015 12.375L8.10875 12.2813L12.6556 7.64063C12.7611 7.55273 12.8724 7.5 12.9837 7.5Z" fill="white" fill-opacity="0.25"/>
</g>
</svg>
