<svg width="32" height="32" viewBox="0 0 32 32" fill="none" xmlns="http://www.w3.org/2000/svg">
<g id="Auth light icon">
<path id="Vector" d="M8.65323 3C8.12979 3 7.61417 3.1875 7.18448 3.53125L7.12198 3.5625L7.09073 3.59375L3.96573 6.8125L3.99698 6.84375C3.03213 7.73438 2.73526 9.06641 3.15323 10.2188C3.15713 10.2266 3.14932 10.2422 3.15323 10.25C4.00088 12.6758 6.16885 17.3594 10.4032 21.5938C14.6532 25.8438 19.3993 27.9258 21.747 28.8438H21.7782C22.9931 29.25 24.3095 28.9609 25.247 28.1563L28.4032 25C29.2314 24.1719 29.2314 22.7344 28.4032 21.9063L24.3407 17.8438L24.3095 17.7813C23.4814 16.9531 22.0126 16.9531 21.1845 17.7813L19.1845 19.7813C18.4618 19.4336 16.7392 18.543 15.0907 16.9688C13.454 15.4063 12.6181 13.6094 12.3095 12.9063L14.3095 10.9063C15.1493 10.0664 15.1649 8.66797 14.2782 7.84375L14.3095 7.8125L14.2157 7.71875L10.2157 3.59375L10.1845 3.5625L10.122 3.53125C9.69229 3.1875 9.17667 3 8.65323 3ZM8.65323 5C8.72745 5 8.80167 5.03516 8.87198 5.09375L12.872 9.1875L12.9657 9.28125C12.9579 9.27344 13.0243 9.37891 12.9032 9.5L10.4032 12L9.93448 12.4375L10.1532 13.0625C10.1532 13.0625 11.3017 16.1367 13.7157 18.4375L13.9345 18.625C16.2587 20.7461 18.997 21.9063 18.997 21.9063L19.622 22.1875L22.5907 19.2188C22.7626 19.0469 22.7314 19.0469 22.9032 19.2188L26.997 23.3125C27.1689 23.4844 27.1689 23.4219 26.997 23.5938L23.9345 26.6563C23.4735 27.0508 22.9853 27.1328 22.4032 26.9375C20.1376 26.0469 15.7353 24.1133 11.8095 20.1875C7.85245 16.2305 5.78604 11.7422 5.02823 9.5625C4.87588 9.15625 4.98526 8.55469 5.34073 8.25L5.40323 8.1875L8.43448 5.09375C8.50479 5.03516 8.57901 5 8.65323 5Z" fill="black" fill-opacity="0.85"/>
</g>
</svg>
