<svg width="32" height="32" viewBox="0 0 32 32" fill="none" xmlns="http://www.w3.org/2000/svg">
<g id="Auth light icon">
<path id="Vector" d="M26.0701 3.99632C25.7341 4.01194 25.4177 4.1096 25.1365 4.21897H25.1326C24.8474 4.33225 23.492 4.90257 21.4334 5.76585C19.3748 6.63303 16.7029 7.75803 14.0506 8.87522C8.75368 11.1057 3.54665 13.301 3.54665 13.301L3.60915 13.2776C3.60915 13.2776 3.24977 13.3948 2.87477 13.6526C2.68337 13.7776 2.47243 13.9494 2.28884 14.219C2.10524 14.4885 1.9568 14.9026 2.01149 15.3283C2.10134 16.051 2.57009 16.4846 2.90602 16.7229C3.24587 16.9651 3.57009 17.0783 3.57009 17.0783H3.5779L8.46071 18.7229C8.67946 19.426 9.94899 23.5979 10.2537 24.5588C10.4334 25.133 10.6091 25.4924 10.8279 25.7658C10.9334 25.9065 11.0584 26.0237 11.2068 26.1174C11.2654 26.1526 11.3279 26.1799 11.3904 26.2033C11.4099 26.2151 11.4295 26.219 11.4529 26.2229L11.4021 26.2112C11.4177 26.2151 11.4295 26.2268 11.4412 26.2307C11.4802 26.2424 11.5076 26.2463 11.5584 26.2541C12.3318 26.4885 12.9529 26.008 12.9529 26.008L12.9881 25.9807L15.8709 23.3557L20.7029 27.0627L20.8123 27.1096C21.8201 27.551 22.8396 27.3049 23.3787 26.8713C23.9216 26.4338 24.1326 25.8752 24.1326 25.8752L24.1677 25.7854L27.9021 6.65647C28.0076 6.18382 28.0349 5.74241 27.9177 5.31272C27.8006 4.88303 27.4998 4.48069 27.1365 4.26585C26.7693 4.0471 26.406 3.98069 26.0701 3.99632ZM25.9685 6.0471C25.9646 6.1096 25.9763 6.10178 25.949 6.22288V6.2346L22.2498 25.1643C22.2341 25.1916 22.2068 25.2502 22.1326 25.3088C22.0545 25.3713 21.992 25.4104 21.6677 25.2815L15.7576 20.7502L12.1873 24.0041L12.9373 19.2151C12.9373 19.2151 22.1951 10.5862 22.5935 10.2151C22.992 9.84397 22.8591 9.76585 22.8591 9.76585C22.8865 9.31272 22.2576 9.63303 22.2576 9.63303L10.0818 17.176L10.0779 17.1565L4.24196 15.1916V15.1877C4.23805 15.1877 4.23024 15.1838 4.22633 15.1838C4.23024 15.1838 4.25758 15.1721 4.25758 15.1721L4.28883 15.1565L4.32008 15.1448C4.32008 15.1448 9.53102 12.9494 14.8279 10.719C17.4802 9.60178 20.1521 8.47678 22.2068 7.6096C24.2615 6.74632 25.781 6.1135 25.867 6.07835C25.949 6.0471 25.9099 6.0471 25.9685 6.0471Z" fill="black" fill-opacity="0.85"/>
</g>
</svg>
