<svg width="48" height="48" viewBox="0 0 48 48" fill="none" xmlns="http://www.w3.org/2000/svg">
<path d="M39.1051 5.99411C38.6012 6.01754 38.1266 6.16403 37.7047 6.32809H37.6989C37.2711 6.49801 35.2379 7.35348 32.15 8.6484C29.0622 9.94919 25.0543 11.6367 21.0758 13.3125C13.1305 16.6582 5.31997 19.9511 5.31997 19.9511L5.41372 19.916C5.41372 19.916 4.87466 20.0918 4.31216 20.4785C4.02505 20.666 3.70864 20.9238 3.43325 21.3281C3.15786 21.7324 2.9352 22.3535 3.01724 22.9922C3.152 24.0761 3.85513 24.7265 4.35903 25.084C4.8688 25.4472 5.35513 25.6172 5.35513 25.6172H5.36685L12.6911 28.084C13.0192 29.1386 14.9235 35.3965 15.3805 36.8379C15.65 37.6992 15.9137 38.2382 16.2418 38.6484C16.4 38.8593 16.5875 39.0351 16.8102 39.1757C16.8981 39.2285 16.9918 39.2695 17.0856 39.3047C17.1149 39.3222 17.1442 39.3281 17.1793 39.334L17.1032 39.3164C17.1266 39.3222 17.1442 39.3398 17.1618 39.3457C17.2204 39.3632 17.2614 39.3691 17.3375 39.3808C18.4977 39.7324 19.4293 39.0117 19.4293 39.0117L19.4821 38.9707L23.8063 35.0332L31.0543 40.5937L31.2184 40.664C32.7301 41.3261 34.2594 40.957 35.068 40.3066C35.8825 39.6504 36.1989 38.8125 36.1989 38.8125L36.2516 38.6777L41.8532 9.98434C42.0114 9.27536 42.0524 8.61325 41.8766 7.96872C41.7008 7.32419 41.2497 6.72067 40.7047 6.3984C40.154 6.07028 39.609 5.97067 39.1051 5.99411ZM38.9528 9.07028C38.9469 9.16403 38.9645 9.15231 38.9235 9.33395V9.35153L33.3747 37.7461C33.3512 37.7871 33.3102 37.875 33.1989 37.9629C33.0817 38.0566 32.9879 38.1152 32.5016 37.9218L23.6364 31.125L18.2809 36.0058L19.4059 28.8222C19.4059 28.8222 33.2926 15.8789 33.8903 15.3222C34.4879 14.7656 34.2887 14.6484 34.2887 14.6484C34.3297 13.9687 33.3864 14.4492 33.3864 14.4492L15.1227 25.7636L15.1168 25.7343L6.36294 22.7871V22.7812C6.35708 22.7812 6.34536 22.7754 6.3395 22.7754C6.34536 22.7754 6.38638 22.7578 6.38638 22.7578L6.43325 22.7343L6.48013 22.7168C6.48013 22.7168 14.2965 19.4238 22.2418 16.0781C26.2204 14.4023 30.2282 12.7148 33.3102 11.414C36.3922 10.1191 38.6715 9.16989 38.8004 9.11715C38.9235 9.07028 38.8649 9.07028 38.9528 9.07028Z" fill="white" fill-opacity="0.25"/>
</svg>
