<svg width="48" height="48" viewBox="0 0 48 48" fill="none" xmlns="http://www.w3.org/2000/svg">
<g clip-path="url(#clip0_703_6405)">
<path d="M23.9978 25.172L32.4838 33.656L29.6538 36.486L25.9978 32.83V44H21.9978V32.826L18.3418 36.486L15.5118 33.656L23.9978 25.172ZM23.9978 4C27.4318 4.00016 30.746 5.26223 33.3102 7.54624C35.8745 9.83025 37.51 12.9769 37.9058 16.388C40.3944 17.0666 42.5653 18.5982 44.0392 20.7151C45.513 22.8319 46.1961 25.3994 45.9691 27.9688C45.742 30.5382 44.6192 32.9461 42.797 34.7716C40.9747 36.5972 38.5688 37.7243 35.9998 37.956V33.928C36.9202 33.7966 37.8051 33.4831 38.603 33.0059C39.4009 32.5288 40.0957 31.8974 40.647 31.1488C41.1982 30.4002 41.5948 29.5493 41.8136 28.6457C42.0324 27.7421 42.069 26.804 41.9213 25.8861C41.7736 24.9683 41.4445 24.089 40.9533 23.2997C40.4621 22.5104 39.8185 21.8268 39.0602 21.2889C38.302 20.751 37.4442 20.3696 36.5369 20.1668C35.6296 19.9641 34.6909 19.9441 33.7758 20.108C34.0891 18.6498 34.0721 17.1399 33.7263 15.6891C33.3804 14.2383 32.7144 12.8832 31.777 11.7231C30.8396 10.5629 29.6546 9.62721 28.3088 8.98439C26.9629 8.34157 25.4903 8.00794 23.9988 8.00794C22.5073 8.00794 21.0347 8.34157 19.6889 8.98439C18.343 9.62721 17.158 10.5629 16.2206 11.7231C15.2833 12.8832 14.6173 14.2383 14.2714 15.6891C13.9255 17.1399 13.9086 18.6498 14.2218 20.108C12.3971 19.7653 10.5111 20.1616 8.97852 21.2095C7.44598 22.2575 6.3925 23.8713 6.04984 25.696C5.70718 27.5207 6.10341 29.4068 7.15136 30.9393C8.19931 32.4719 9.81315 33.5253 11.6378 33.868L11.9978 33.928V37.956C9.42874 37.7247 7.02265 36.5978 5.2001 34.7724C3.37756 32.947 2.25449 30.5391 2.02718 27.9697C1.79988 25.4002 2.48279 22.8326 3.95657 20.7155C5.43035 18.5985 7.60125 17.0668 10.0898 16.388C10.4852 12.9768 12.1206 9.82982 14.685 7.54573C17.2493 5.26164 20.5637 3.99973 23.9978 4Z" fill="white" fill-opacity="0.35"/>
</g>
<defs>
<clipPath id="clip0_703_6405">
<rect width="48" height="48" fill="white"/>
</clipPath>
</defs>
</svg>
