<svg width="232" height="48" viewBox="0 0 232 48" fill="none" xmlns="http://www.w3.org/2000/svg">
<g id="Navmenu">
<path id="Rectangle 11" d="M1 1H231V35.5858L219.586 47H1V1Z" stroke="#191919" stroke-width="2"/>
<path id="&#208;&#151;&#208;&#176;&#208;&#179;&#209;&#128;&#209;&#131;&#208;&#183;&#208;&#184;&#209;&#130;&#209;&#140;" d="M27.164 32.28C26.576 32.28 26.282 31.916 26.282 31.188V14.108H39.442V31.188C39.442 31.916 39.148 32.28 38.56 32.28C37.972 32.28 37.678 31.916 37.678 31.188V15.872H28.046V31.188C28.046 31.916 27.752 32.28 27.164 32.28ZM44.0288 37.18C43.4594 37.18 43.1748 36.802 43.1748 36.046V19.904C43.1748 19.176 43.4734 18.812 44.0708 18.812C44.3788 18.812 44.5981 18.9147 44.7288 19.12C44.8594 19.316 44.9248 19.6427 44.9248 20.1V21.472L44.6168 21.066C45.1768 20.3567 45.8814 19.8387 46.7308 19.512C47.5894 19.176 48.5834 19.008 49.7128 19.008H50.5248C52.0741 19.008 53.3248 19.1573 54.2768 19.456C55.2381 19.7547 55.9381 20.268 56.3768 20.996C56.8154 21.724 57.0348 22.7367 57.0348 24.034V27.058C57.0348 28.346 56.8154 29.3587 56.3768 30.096C55.9381 30.824 55.2428 31.3373 54.2908 31.636C53.3481 31.9347 52.1068 32.084 50.5668 32.084H44.9388V36.046C44.9388 36.802 44.6354 37.18 44.0288 37.18ZM44.9388 30.32H50.5668C51.8454 30.32 52.8208 30.2407 53.4928 30.082C54.1741 29.914 54.6408 29.592 54.8928 29.116C55.1448 28.64 55.2708 27.94 55.2708 27.016V24.076C55.2708 23.1053 55.1354 22.3867 54.8648 21.92C54.6034 21.4533 54.1274 21.1453 53.4368 20.996C52.7554 20.8467 51.7848 20.772 50.5248 20.772H49.7128C48.1261 20.772 46.9314 21.1687 46.1288 21.962C45.3354 22.7553 44.9388 23.936 44.9388 25.504V30.32ZM72.4341 32.28C71.8461 32.28 71.5521 31.8927 71.5521 31.118V21.486L61.9481 32.084H60.1561V19.932C60.1561 19.1853 60.4501 18.812 61.0381 18.812C61.6261 18.812 61.9201 19.1993 61.9201 19.974V29.718L71.6221 19.008H73.3161V31.16C73.3161 31.9067 73.0221 32.28 72.4341 32.28ZM77.6493 32.28C77.0613 32.28 76.7673 31.916 76.7673 31.188V19.932C76.7673 19.1853 77.0426 18.812 77.5933 18.812C78.2186 18.812 78.5313 19.1853 78.5313 19.932V24.286H88.1633V19.932C88.1633 19.1853 88.4573 18.812 89.0453 18.812C89.6333 18.812 89.9273 19.1853 89.9273 19.932V31.188C89.9273 31.916 89.6333 32.28 89.0453 32.28C88.4573 32.28 88.1633 31.916 88.1633 31.188V26.05H78.5313V31.188C78.5313 31.916 78.2373 32.28 77.6493 32.28ZM93.1552 32.308C92.3339 32.308 91.9232 32.014 91.9232 31.426C91.9232 30.838 92.3012 30.544 93.0572 30.544C93.4959 30.544 93.8832 30.3667 94.2192 30.012C94.5552 29.648 94.8119 29.172 94.9892 28.584C95.1385 28.08 95.3112 27.6553 95.5072 27.31C95.7032 26.9553 95.9599 26.624 96.2772 26.316C95.3439 26.1013 94.6672 25.728 94.2472 25.196C93.8365 24.664 93.6312 23.936 93.6312 23.012C93.6312 21.9107 93.8319 21.0753 94.2332 20.506C94.6439 19.9273 95.3205 19.5353 96.2632 19.33C97.2059 19.1153 98.4752 19.008 100.071 19.008H104.313C104.575 19.008 104.775 19.1013 104.915 19.288C105.065 19.4653 105.139 19.7267 105.139 20.072V31.328C105.139 31.6267 105.06 31.86 104.901 32.028C104.743 32.196 104.523 32.28 104.243 32.28C103.982 32.28 103.772 32.1913 103.613 32.014C103.455 31.846 103.375 31.6173 103.375 31.328V26.638H99.9312C99.2499 26.638 98.7039 26.708 98.2932 26.848C97.8919 26.988 97.5699 27.226 97.3272 27.562C97.0939 27.898 96.8885 28.36 96.7112 28.948C96.4312 29.9187 95.9552 30.7213 95.2832 31.356C94.6205 31.9907 93.9112 32.308 93.1552 32.308ZM99.1752 24.874H103.375V20.772H99.1752C98.2792 20.772 97.5512 20.8093 96.9912 20.884C96.4405 20.9587 96.0345 21.1407 95.7732 21.43C95.5212 21.71 95.3952 22.1627 95.3952 22.788C95.3952 23.432 95.5212 23.9033 95.7732 24.202C96.0345 24.4913 96.4405 24.678 96.9912 24.762C97.5512 24.8367 98.2792 24.874 99.1752 24.874ZM113.189 32.28C112.563 32.28 112.251 31.944 112.251 31.272V20.772H108.065C107.346 20.772 106.987 20.478 106.987 19.89C106.987 19.302 107.346 19.008 108.065 19.008H118.313C119.031 19.008 119.391 19.302 119.391 19.89C119.391 20.478 119.031 20.772 118.313 20.772H114.155V31.272C114.155 31.5893 114.071 31.8367 113.903 32.014C113.735 32.1913 113.497 32.28 113.189 32.28ZM121.244 32.084V19.932C121.244 19.1853 121.538 18.812 122.126 18.812C122.714 18.812 123.008 19.1853 123.008 19.932V24.454H128.986C129.92 24.454 130.732 24.594 131.422 24.874C132.113 25.1447 132.65 25.56 133.032 26.12C133.424 26.68 133.62 27.394 133.62 28.262C133.62 29.1207 133.429 29.8347 133.046 30.404C132.664 30.964 132.122 31.384 131.422 31.664C130.732 31.9347 129.92 32.0747 128.986 32.084H121.244ZM123.008 30.32H128.762C129.705 30.32 130.456 30.1707 131.016 29.872C131.586 29.564 131.87 29.046 131.87 28.318C131.87 27.702 131.73 27.2447 131.45 26.946C131.17 26.6473 130.797 26.4513 130.33 26.358C129.864 26.2647 129.341 26.218 128.762 26.218H123.008V30.32Z" fill="#191919"/>
<g id="Icons" clip-path="url(#clip0_451_5043)">
<g id="Group">
<path id="Vector" d="M201.333 28.2293L213.589 15.9719L215.476 17.8573L201.333 31.9999L192.848 23.5146L194.733 21.6293L201.333 28.2293Z" fill="#191919"/>
</g>
</g>
</g>
<defs>
<clipPath id="clip0_451_5043">
<rect width="32" height="32" fill="white" transform="translate(188 8)"/>
</clipPath>
</defs>
</svg>
