<svg width="232" height="48" viewBox="0 0 232 48" fill="none" xmlns="http://www.w3.org/2000/svg">
<g id="Navmenu">
<path id="Rectangle 11" d="M1 1H231V35.5858L219.586 47H1V1Z" stroke="#191919" stroke-width="2"/>
<path id="&#208;&#151;&#208;&#176;&#208;&#179;&#209;&#128;&#209;&#131;&#208;&#183;&#208;&#184;&#209;&#130;&#209;&#140;" d="M28.41 32.084C27.2993 32.084 26.5293 31.804 26.1 31.244C25.6707 30.684 25.456 29.7087 25.456 28.318C25.456 27.562 25.75 27.184 26.338 27.184C26.926 27.184 27.22 27.562 27.22 28.318V28.822C27.22 29.3913 27.3133 29.7833 27.5 29.998C27.696 30.2127 28.0647 30.32 28.606 30.32H33.73C34.3833 30.32 34.9667 30.152 35.48 29.816C35.9933 29.48 36.3947 29.0507 36.684 28.528C36.9827 27.996 37.132 27.4407 37.132 26.862C37.132 26.2927 36.9873 25.77 36.698 25.294C36.418 24.8087 36.0307 24.4213 35.536 24.132C35.0413 23.8427 34.4767 23.698 33.842 23.698H31.434C30.6593 23.698 30.272 23.404 30.272 22.816C30.272 22.228 30.6593 21.934 31.434 21.934H33.842C34.486 21.934 35.0553 21.808 35.55 21.556C36.0447 21.304 36.432 20.9633 36.712 20.534C36.992 20.0953 37.132 19.6053 37.132 19.064C37.132 18.4947 36.9873 17.9673 36.698 17.482C36.4087 16.9967 36.0073 16.6093 35.494 16.32C34.99 16.0213 34.402 15.872 33.73 15.872H28.606C28.0647 15.872 27.696 15.9793 27.5 16.194C27.3133 16.3993 27.22 16.7913 27.22 17.37V17.874C27.22 18.63 26.926 19.008 26.338 19.008C25.75 19.008 25.456 18.63 25.456 17.874C25.456 16.474 25.6707 15.4987 26.1 14.948C26.5293 14.388 27.2993 14.108 28.41 14.108H33.926C34.8967 14.108 35.7553 14.3133 36.502 14.724C37.2487 15.1253 37.832 15.6853 38.252 16.404C38.6813 17.1133 38.896 17.9347 38.896 18.868C38.896 19.7267 38.7187 20.4967 38.364 21.178C38.0187 21.85 37.5287 22.4053 36.894 22.844C37.5287 23.32 38.0187 23.922 38.364 24.65C38.7187 25.3687 38.896 26.1667 38.896 27.044C38.896 27.9773 38.6767 28.8267 38.238 29.592C37.8087 30.348 37.216 30.9547 36.46 31.412C35.7133 31.86 34.8687 32.084 33.926 32.084H28.41ZM53.0157 32.28C52.7823 32.28 52.6097 32.196 52.4977 32.028C52.3857 31.8693 52.311 31.5707 52.2737 31.132C52.2457 30.6933 52.227 30.068 52.2177 29.256L52.4697 29.858C51.9283 30.642 51.2377 31.2113 50.3977 31.566C49.5577 31.9113 48.559 32.084 47.4017 32.084H44.7977C43.8643 32.084 43.1037 31.7667 42.5157 31.132C41.937 30.4973 41.6477 29.522 41.6477 28.206C41.6477 27.2353 41.811 26.4513 42.1377 25.854C42.4643 25.2567 42.9217 24.7993 43.5097 24.482C44.0977 24.1553 44.7883 23.936 45.5817 23.824C46.3843 23.7027 47.2523 23.642 48.1857 23.642H52.9457L52.1477 24.384V22.186C52.1477 21.6447 52.0543 21.276 51.8677 21.08C51.681 20.8747 51.3123 20.772 50.7617 20.772H46.8137C45.9737 20.772 45.3063 20.8187 44.8117 20.912C44.317 21.0053 43.9623 21.1547 43.7477 21.36C43.533 21.5653 43.421 21.8407 43.4117 22.186C43.393 22.5407 43.3323 22.8113 43.2297 22.998C43.127 23.1847 42.8937 23.278 42.5297 23.278C41.9417 23.278 41.6477 22.8767 41.6477 22.074C41.6477 21.0287 42.077 20.2587 42.9357 19.764C43.8037 19.26 45.031 19.008 46.6177 19.008H50.9577C52.0683 19.008 52.8383 19.2787 53.2677 19.82C53.697 20.352 53.9117 21.2947 53.9117 22.648V31.188C53.9117 31.916 53.613 32.28 53.0157 32.28ZM44.8397 30.376H47.4017C49.1377 30.376 50.3697 29.9327 51.0977 29.046C51.8257 28.1593 52.1757 26.82 52.1477 25.028L52.4977 25.35H48.1857C47.0843 25.35 46.179 25.4153 45.4697 25.546C44.7697 25.6673 44.2517 25.924 43.9157 26.316C43.5797 26.708 43.4117 27.3007 43.4117 28.094C43.4117 28.8687 43.5517 29.4427 43.8317 29.816C44.1117 30.1893 44.4477 30.376 44.8397 30.376ZM58.1523 32.28C57.8817 32.28 57.667 32.1867 57.5083 32C57.359 31.8133 57.2843 31.566 57.2843 31.258V19.848C57.2843 19.512 57.3637 19.2553 57.5223 19.078C57.6903 18.9007 57.9143 18.812 58.1943 18.812C58.465 18.812 58.675 18.9053 58.8243 19.092C58.9737 19.2693 59.0483 19.5213 59.0483 19.848V24.65H61.9463C62.2357 24.65 62.5343 24.4727 62.8423 24.118C63.1503 23.7633 63.5097 23.2547 63.9203 22.592C64.2657 22.0693 64.6577 21.5093 65.0963 20.912C65.5443 20.3147 66.1277 19.806 66.8463 19.386C67.5463 18.9847 68.307 18.784 69.1283 18.784C69.5203 18.784 69.8237 18.8587 70.0383 19.008C70.253 19.1573 70.3603 19.3767 70.3603 19.666C70.3603 20.002 70.2437 20.2353 70.0103 20.366C69.777 20.4873 69.5063 20.548 69.1983 20.548C68.6103 20.5667 68.0783 20.7767 67.6023 21.178C67.1357 21.57 66.6597 22.1253 66.1743 22.844C65.8943 23.3013 65.6563 23.6747 65.4603 23.964C65.2643 24.2533 65.0823 24.5007 64.9143 24.706C64.7463 24.9113 64.5643 25.1167 64.3683 25.322C65.2457 25.6767 65.955 26.1387 66.4963 26.708C67.0377 27.2773 67.425 27.8747 67.6583 28.5C67.9197 29.172 68.1577 29.6713 68.3723 29.998C68.5963 30.3153 68.8717 30.488 69.1983 30.516C69.5343 30.516 69.8097 30.586 70.0243 30.726C70.2483 30.866 70.3603 31.0853 70.3603 31.384C70.3603 31.9813 69.9637 32.28 69.1703 32.28C68.517 32.28 67.971 32.126 67.5323 31.818C67.0937 31.51 66.7343 31.104 66.4543 30.6C66.2583 30.2733 66.067 29.9187 65.8803 29.536C65.6937 29.1533 65.4557 28.766 65.1663 28.374C64.8863 27.9727 64.4943 27.5993 63.9903 27.254C63.225 26.694 62.049 26.414 60.4623 26.414H59.0483V31.272C59.0483 31.5893 58.969 31.8367 58.8103 32.014C58.661 32.1913 58.4417 32.28 58.1523 32.28ZM73.6431 37.18C73.0738 37.18 72.7891 36.802 72.7891 36.046V19.904C72.7891 19.176 73.0878 18.812 73.6851 18.812C73.9931 18.812 74.2125 18.9147 74.3431 19.12C74.4738 19.316 74.5391 19.6427 74.5391 20.1V21.472L74.2311 21.066C74.7911 20.3567 75.4958 19.8387 76.3451 19.512C77.2038 19.176 78.1978 19.008 79.3271 19.008H80.1391C81.6885 19.008 82.9391 19.1573 83.8911 19.456C84.8525 19.7547 85.5525 20.268 85.9911 20.996C86.4298 21.724 86.6491 22.7367 86.6491 24.034V27.058C86.6491 28.346 86.4298 29.3587 85.9911 30.096C85.5525 30.824 84.8571 31.3373 83.9051 31.636C82.9625 31.9347 81.7211 32.084 80.1811 32.084H74.5531V36.046C74.5531 36.802 74.2498 37.18 73.6431 37.18ZM74.5531 30.32H80.1811C81.4598 30.32 82.4351 30.2407 83.1071 30.082C83.7885 29.914 84.2551 29.592 84.5071 29.116C84.7591 28.64 84.8851 27.94 84.8851 27.016V24.076C84.8851 23.1053 84.7498 22.3867 84.4791 21.92C84.2178 21.4533 83.7418 21.1453 83.0511 20.996C82.3698 20.8467 81.3991 20.772 80.1391 20.772H79.3271C77.7405 20.772 76.5458 21.1687 75.7431 21.962C74.9498 22.7553 74.5531 23.936 74.5531 25.504V30.32ZM89.7705 32.084V19.932C89.7705 19.1853 90.0645 18.812 90.6525 18.812C91.2405 18.812 91.5345 19.1853 91.5345 19.932V24.454H97.5125C98.4458 24.454 99.2578 24.594 99.9485 24.874C100.639 25.1447 101.176 25.56 101.558 26.12C101.95 26.68 102.146 27.394 102.146 28.262C102.146 29.1207 101.955 29.8347 101.572 30.404C101.19 30.964 100.648 31.384 99.9485 31.664C99.2578 31.9347 98.4458 32.0747 97.5125 32.084H89.7705ZM91.5345 30.32H97.2885C98.2218 30.32 98.9731 30.1707 99.5425 29.872C100.112 29.564 100.396 29.046 100.396 28.318C100.396 27.702 100.256 27.2447 99.9765 26.946C99.6965 26.6473 99.3185 26.4513 98.8425 26.358C98.3758 26.2647 97.8578 26.218 97.2885 26.218H91.5345V30.32ZM104.302 32.49C103.724 32.49 103.434 32.14 103.434 31.44V19.68C103.434 19.3347 103.509 19.0687 103.658 18.882C103.817 18.6953 104.036 18.602 104.316 18.602C104.596 18.602 104.811 18.6953 104.96 18.882C105.119 19.0687 105.198 19.3347 105.198 19.68V31.44C105.198 32.14 104.9 32.49 104.302 32.49ZM113.216 32.28C112.591 32.28 112.278 31.944 112.278 31.272V20.772H108.092C107.373 20.772 107.014 20.478 107.014 19.89C107.014 19.302 107.373 19.008 108.092 19.008H118.34C119.059 19.008 119.418 19.302 119.418 19.89C119.418 20.478 119.059 20.772 118.34 20.772H114.182V31.272C114.182 31.5893 114.098 31.8367 113.93 32.014C113.762 32.1913 113.524 32.28 113.216 32.28ZM121.272 32.084V19.932C121.272 19.1853 121.566 18.812 122.154 18.812C122.742 18.812 123.036 19.1853 123.036 19.932V24.454H129.014C129.947 24.454 130.759 24.594 131.45 24.874C132.14 25.1447 132.677 25.56 133.06 26.12C133.452 26.68 133.648 27.394 133.648 28.262C133.648 29.1207 133.456 29.8347 133.074 30.404C132.691 30.964 132.15 31.384 131.45 31.664C130.759 31.9347 129.947 32.0747 129.014 32.084H121.272ZM123.036 30.32H128.79C129.732 30.32 130.484 30.1707 131.044 29.872C131.613 29.564 131.898 29.046 131.898 28.318C131.898 27.702 131.758 27.2447 131.478 26.946C131.198 26.6473 130.824 26.4513 130.358 26.358C129.891 26.2647 129.368 26.218 128.79 26.218H123.036V30.32Z" fill="#191919"/>
<g id="Icons" clip-path="url(#clip0_451_5291)">
<g id="Group">
<path id="Vector" d="M203.999 22.1146L210.599 15.5146L212.484 17.4L205.884 24L212.484 30.6L210.599 32.4853L203.999 25.8853L197.399 32.4853L195.514 30.6L202.114 24L195.514 17.4L197.399 15.5146L203.999 22.1146Z" fill="#191919"/>
</g>
</g>
</g>
<defs>
<clipPath id="clip0_451_5291">
<rect width="32" height="32" fill="white" transform="translate(188 8)"/>
</clipPath>
</defs>
</svg>
