<svg width="318" height="78" viewBox="0 0 318 78" fill="none" xmlns="http://www.w3.org/2000/svg">
<g filter="url(#filter0_ddi_933_14549)">
<path d="M31.6364 4H290.545C300.185 4 308 11.8147 308 21.4545V44L284.364 67.6363H25.4546C15.8147 67.6363 8 59.8216 8 50.1818V27.6363L31.6364 4Z" fill="white" fill-opacity="0.85" shape-rendering="crispEdges"/>
<path d="M8.6875 27.9211L31.9211 4.6875H290.545C299.806 4.6875 307.312 12.1944 307.312 21.4545V43.7152L284.079 66.9488H25.4546C16.1944 66.9488 8.6875 59.4419 8.6875 50.1818V27.9211Z" stroke="#191919" stroke-width="1.375" shape-rendering="crispEdges"/>
</g>
<g filter="url(#filter1_i_933_14549)">
<path d="M290.547 67.6362L308.001 50.1816V67.6362H290.547Z" fill="#DCDCDC"/>
</g>
<g filter="url(#filter2_i_933_14549)">
<path d="M8 21.4545V14.1818L18.1818 4H25.4545V4.72727L8.72727 21.4545H8Z" fill="#DCDCDC"/>
</g>
<g filter="url(#filter3_d_933_14549)">
<path d="M35.0309 49.0702C34.1691 49.0702 33.4709 48.9175 32.9364 48.612C32.4127 48.3066 32.0309 47.8647 31.7909 47.2866C31.5509 46.7084 31.4309 46.0157 31.4309 45.2084C31.4309 44.1066 31.8291 43.5557 32.6255 43.5557C33.4327 43.5557 33.8364 44.0411 33.8364 45.012C33.8364 45.6447 33.9182 46.0811 34.0818 46.3211C34.2455 46.5502 34.5564 46.6647 35.0145 46.6647C35.4509 46.6647 35.8 46.4247 36.0618 45.9447L37.2727 43.6375L30.9073 29.4175C30.7218 28.992 30.7164 28.6102 30.8909 28.272C31.0655 27.9338 31.4091 27.7648 31.9218 27.7648C32.4564 27.7648 32.8709 28.0757 33.1655 28.6975L38.8273 41.1175L44.6691 28.6648C44.9309 28.0648 45.3509 27.7648 45.9291 27.7648C46.3764 27.7648 46.6927 27.9175 46.8782 28.2229C47.0636 28.5175 47.0909 28.8993 46.96 29.3684L38.3364 47.3357C38.0854 47.8702 37.66 48.2957 37.06 48.612C36.4709 48.9175 35.7945 49.0702 35.0309 49.0702ZM50.5014 49.1029C49.6942 49.1029 49.2905 48.6284 49.2905 47.6793V33.492H65.2614V47.6793C65.2614 48.6284 64.8632 49.1029 64.0669 49.1029C63.2596 49.1029 62.856 48.6284 62.856 47.6793V35.8975H51.696V47.6793C51.696 48.6284 51.2978 49.1029 50.5014 49.1029ZM70.4121 54.8302C69.6267 54.8302 69.234 54.3284 69.234 53.3247V34.6866C69.234 33.7375 69.643 33.2629 70.4612 33.2629C70.8867 33.2629 71.1867 33.3993 71.3612 33.672C71.5358 33.9338 71.623 34.3866 71.623 35.0302V36.3229L71.1976 35.7502C71.863 34.9648 72.7085 34.392 73.734 34.032C74.7594 33.672 75.9485 33.492 77.3012 33.492H78.2503C80.203 33.492 81.763 33.6775 82.9303 34.0484C84.1085 34.4084 84.9594 35.0248 85.483 35.8975C86.0067 36.7593 86.2685 37.9375 86.2685 39.432V42.9175C86.2685 44.4229 86.0067 45.612 85.483 46.4847C84.9594 47.3466 84.1139 47.9629 82.9467 48.3338C81.7903 48.6938 80.2467 48.8738 78.3158 48.8738H71.6394V53.3247C71.6394 54.3284 71.2303 54.8302 70.4121 54.8302ZM71.6394 46.4684H78.3158C79.8649 46.4684 81.0376 46.3811 81.8339 46.2066C82.6303 46.032 83.1649 45.6884 83.4376 45.1757C83.7212 44.652 83.863 43.8775 83.863 42.852V39.5138C83.863 38.4666 83.7158 37.6866 83.4212 37.1738C83.1376 36.6502 82.5921 36.3066 81.7849 36.1429C80.9776 35.9793 79.7994 35.8975 78.2503 35.8975H77.3012C75.3812 35.8975 73.9576 36.3338 73.0303 37.2066C72.103 38.0684 71.6394 39.3775 71.6394 41.1338V46.4684ZM103.039 49.1029C102.756 49.1029 102.537 49.0157 102.385 48.8411C102.232 48.6666 102.123 48.3229 102.057 47.8102C102.003 47.2975 101.976 46.5393 101.976 45.5357L102.303 46.3047C101.637 47.2429 100.803 47.9084 99.7992 48.3011C98.7955 48.6829 97.6064 48.8738 96.2319 48.8738H93.1883C92.0537 48.8738 91.1264 48.492 90.4064 47.7284C89.6973 46.9538 89.3428 45.7811 89.3428 44.2102C89.3428 43.1411 89.5173 42.2629 89.8664 41.5757C90.2155 40.8775 90.7337 40.3266 91.421 39.9229C92.1192 39.5193 92.9646 39.2357 93.9573 39.072C94.961 38.8975 96.1064 38.8102 97.3937 38.8102H102.941L101.861 39.8084V37.3048C101.861 36.7593 101.763 36.3884 101.566 36.192C101.381 35.9957 100.994 35.8975 100.405 35.8975H95.7901C94.7428 35.8975 93.9301 35.9411 93.3519 36.0284C92.7737 36.1048 92.3646 36.2466 92.1246 36.4538C91.8846 36.6502 91.7592 36.9175 91.7483 37.2557C91.7155 37.7575 91.6228 38.1284 91.4701 38.3684C91.3283 38.6084 91.0173 38.7284 90.5373 38.7284C89.741 38.7284 89.3428 38.1993 89.3428 37.1411C89.3428 35.8866 89.861 34.9648 90.8973 34.3757C91.9446 33.7866 93.4992 33.492 95.561 33.492H100.634C101.986 33.492 102.93 33.8138 103.465 34.4575C103.999 35.1011 104.266 36.2302 104.266 37.8448V47.6793C104.266 48.6284 103.857 49.1029 103.039 49.1029ZM93.2701 46.5666H96.2319C98.2719 46.5666 99.7228 46.0975 100.585 45.1593C101.446 44.2211 101.872 42.7811 101.861 40.8393L102.156 41.1175H97.3937C96.0301 41.1175 94.9337 41.1938 94.1046 41.3466C93.2755 41.4884 92.6755 41.772 92.3046 42.1975C91.9337 42.6229 91.7483 43.2557 91.7483 44.0957C91.7483 44.9029 91.8901 45.5193 92.1737 45.9447C92.4573 46.3593 92.8228 46.5666 93.2701 46.5666ZM108.132 48.8738V33.492H118.784C120.508 33.492 121.877 33.8738 122.892 34.6375C123.917 35.3902 124.43 36.4648 124.43 37.8611C124.43 38.6466 124.288 39.2957 124.004 39.8084C123.721 40.3102 123.312 40.7138 122.777 41.0193C123.879 41.8375 124.43 42.972 124.43 44.4229C124.43 45.3829 124.195 46.1957 123.726 46.8611C123.268 47.5157 122.613 48.0175 121.762 48.3666C120.922 48.7047 119.93 48.8738 118.784 48.8738H108.132ZM110.537 46.4684H118.555C120.868 46.4684 122.024 45.8847 122.024 44.7175C122.024 43.8011 121.762 43.1411 121.239 42.7375C120.726 42.3338 119.875 42.132 118.686 42.132H110.537V46.4684ZM110.537 39.7266H118.686C119.995 39.7266 120.884 39.5902 121.353 39.3175C121.822 39.0447 122.057 38.4829 122.057 37.632C122.057 36.4757 120.89 35.8975 118.555 35.8975H110.537V39.7266ZM141.626 49.1029C140.829 49.1029 140.431 48.6175 140.431 47.6466V35.8975H133.82C133.089 35.8975 132.598 36.0066 132.347 36.2248C132.107 36.432 131.987 36.8357 131.987 37.4357V44.5211C131.987 45.5902 131.851 46.4466 131.578 47.0902C131.306 47.7229 130.88 48.1811 130.302 48.4647C129.724 48.7484 128.982 48.8902 128.077 48.8902C127.564 48.8902 127.149 48.8029 126.833 48.6284C126.527 48.4429 126.375 48.1211 126.375 47.6629C126.375 46.8666 126.898 46.4684 127.946 46.4684C128.557 46.4684 128.982 46.3593 129.222 46.1411C129.462 45.9229 129.582 45.5302 129.582 44.9629V37.8448C129.582 36.7211 129.697 35.8429 129.926 35.2102C130.166 34.5775 130.575 34.1357 131.153 33.8848C131.742 33.6229 132.549 33.492 133.575 33.492H142.837V47.6138C142.837 48.6066 142.433 49.1029 141.626 49.1029ZM154.413 48.8738C152.46 48.8738 150.895 48.6938 149.717 48.3338C148.538 47.9738 147.682 47.3629 147.148 46.5011C146.624 45.6284 146.362 44.4338 146.362 42.9175V39.432C146.362 37.9266 146.624 36.7429 147.148 35.8811C147.682 35.0084 148.538 34.392 149.717 34.032C150.895 33.672 152.46 33.492 154.413 33.492H155.362C157.315 33.492 158.88 33.6775 160.058 34.0484C161.237 34.4084 162.088 35.0248 162.611 35.8975C163.135 36.7593 163.397 37.9375 163.397 39.432V41.052H148.768V42.852C148.768 43.8775 148.909 44.652 149.193 45.1757C149.477 45.6884 150.022 46.032 150.829 46.2066C151.648 46.3811 152.842 46.4684 154.413 46.4684H159.289C159.857 46.4684 160.238 46.3593 160.435 46.1411C160.642 45.912 160.746 45.5029 160.746 44.9138C160.746 44.4229 160.855 44.0411 161.073 43.7684C161.291 43.4957 161.586 43.3593 161.957 43.3593C162.338 43.3702 162.633 43.5175 162.84 43.8011C163.048 44.0738 163.151 44.4666 163.151 44.9793C163.151 45.8193 163.031 46.5338 162.791 47.1229C162.551 47.7011 162.164 48.1375 161.629 48.432C161.095 48.7266 160.391 48.8738 159.518 48.8738H154.413ZM148.768 38.6466H160.975C160.888 37.5557 160.517 36.8357 159.862 36.4866C159.469 36.2684 158.891 36.1157 158.128 36.0284C157.375 35.9411 156.453 35.8975 155.362 35.8975H154.413C153.268 35.8975 152.318 35.9411 151.566 36.0284C150.813 36.1157 150.246 36.2629 149.864 36.4702C149.198 36.8193 148.833 37.5448 148.768 38.6466ZM167.958 49.1029C167.162 49.1029 166.764 48.6284 166.764 47.6793V34.7193C166.764 33.7484 167.14 33.2629 167.893 33.2629C168.744 33.2629 169.169 33.7484 169.169 34.7193V39.5302H180.329V34.7193C180.329 33.7484 180.727 33.2629 181.524 33.2629C182.331 33.2629 182.735 33.7484 182.735 34.7193V47.6793C182.735 48.6284 182.331 49.1029 181.524 49.1029C180.727 49.1029 180.329 48.6284 180.329 47.6793V41.9357H169.169V47.6793C169.169 48.6284 168.766 49.1029 167.958 49.1029ZM201.484 49.1029C200.688 49.1029 200.29 48.5902 200.29 47.5647V36.8793L189.048 48.8738H186.724V34.7193C186.724 33.7484 187.122 33.2629 187.919 33.2629C188.726 33.2629 189.13 33.7702 189.13 34.7848V45.6011L200.453 33.492H202.695V47.6466C202.695 48.6175 202.292 49.1029 201.484 49.1029ZM214.292 48.8738C212.34 48.8738 210.774 48.6938 209.596 48.3338C208.418 47.9738 207.561 47.3629 207.027 46.5011C206.503 45.6284 206.241 44.4338 206.241 42.9175V39.432C206.241 37.9266 206.503 36.7429 207.027 35.8811C207.561 35.0084 208.418 34.392 209.596 34.032C210.774 33.672 212.34 33.492 214.292 33.492H215.241C217.194 33.492 218.76 33.6775 219.938 34.0484C221.116 34.4084 221.967 35.0248 222.491 35.8975C223.014 36.7593 223.276 37.9375 223.276 39.432V41.052H208.647V42.852C208.647 43.8775 208.789 44.652 209.072 45.1757C209.356 45.6884 209.901 46.032 210.709 46.2066C211.527 46.3811 212.721 46.4684 214.292 46.4684H219.169C219.736 46.4684 220.118 46.3593 220.314 46.1411C220.521 45.912 220.625 45.5029 220.625 44.9138C220.625 44.4229 220.734 44.0411 220.952 43.7684C221.171 43.4957 221.465 43.3593 221.836 43.3593C222.218 43.3702 222.512 43.5175 222.72 43.8011C222.927 44.0738 223.031 44.4666 223.031 44.9793C223.031 45.8193 222.911 46.5338 222.671 47.1229C222.431 47.7011 222.043 48.1375 221.509 48.432C220.974 48.7266 220.271 48.8738 219.398 48.8738H214.292ZM208.647 38.6466H220.854C220.767 37.5557 220.396 36.8357 219.741 36.4866C219.349 36.2684 218.771 36.1157 218.007 36.0284C217.254 35.9411 216.332 35.8975 215.241 35.8975H214.292C213.147 35.8975 212.198 35.9411 211.445 36.0284C210.692 36.1157 210.125 36.2629 209.743 36.4702C209.078 36.8193 208.712 37.5448 208.647 38.6466Z" fill="#191919"/>
</g>
<path d="M247.594 28.6479L269.009 7.23242H290.179C298.234 7.23242 304.764 13.7624 304.764 21.8176V42.9874L283.349 64.4028H247.594V28.6479Z" stroke="#191919" stroke-width="1.375"/>
<g filter="url(#filter4_d_933_14549)">
<path d="M273.82 25.0898L284.729 35.9989L273.82 46.908" stroke="#191919" stroke-width="2.5" stroke-linecap="square" stroke-linejoin="round"/>
<path d="M271.635 33.8164L273.817 35.9982L271.635 38.18L269.453 35.9982L271.635 33.8164Z" fill="#191919"/>
<path d="M266.182 33.8164L268.364 35.9982L266.182 38.18L264 35.9982L266.182 33.8164Z" fill="#191919"/>
</g>
<defs>
<filter id="filter0_ddi_933_14549" x="0.500004" y="0.500002" width="317" height="76.6367" filterUnits="userSpaceOnUse" color-interpolation-filters="sRGB">
<feFlood flood-opacity="0" result="BackgroundImageFix"/>
<feColorMatrix in="SourceAlpha" type="matrix" values="0 0 0 0 0 0 0 0 0 0 0 0 0 0 0 0 0 0 127 0" result="hardAlpha"/>
<feOffset dx="-2.5" dy="2.5"/>
<feGaussianBlur stdDeviation="2.5"/>
<feComposite in2="hardAlpha" operator="out"/>
<feColorMatrix type="matrix" values="0 0 0 0 0.0823529 0 0 0 0 0.0823529 0 0 0 0 0.0823529 0 0 0 0.25 0"/>
<feBlend mode="normal" in2="BackgroundImageFix" result="effect1_dropShadow_933_14549"/>
<feColorMatrix in="SourceAlpha" type="matrix" values="0 0 0 0 0 0 0 0 0 0 0 0 0 0 0 0 0 0 127 0" result="hardAlpha"/>
<feOffset dx="3" dy="3"/>
<feGaussianBlur stdDeviation="3.25"/>
<feComposite in2="hardAlpha" operator="out"/>
<feColorMatrix type="matrix" values="0 0 0 0 0.0823529 0 0 0 0 0.0823529 0 0 0 0 0.0823529 0 0 0 0.25 0"/>
<feBlend mode="normal" in2="effect1_dropShadow_933_14549" result="effect2_dropShadow_933_14549"/>
<feBlend mode="normal" in="SourceGraphic" in2="effect2_dropShadow_933_14549" result="shape"/>
<feColorMatrix in="SourceAlpha" type="matrix" values="0 0 0 0 0 0 0 0 0 0 0 0 0 0 0 0 0 0 127 0" result="hardAlpha"/>
<feOffset dx="4" dy="1.5"/>
<feGaussianBlur stdDeviation="1.75"/>
<feComposite in2="hardAlpha" operator="arithmetic" k2="-1" k3="1"/>
<feColorMatrix type="matrix" values="0 0 0 0 0.0823529 0 0 0 0 0.0823529 0 0 0 0 0.0823529 0 0 0 0.5 0"/>
<feBlend mode="normal" in2="shape" result="effect3_innerShadow_933_14549"/>
</filter>
<filter id="filter1_i_933_14549" x="290.547" y="50.1816" width="18.7031" height="18.7051" filterUnits="userSpaceOnUse" color-interpolation-filters="sRGB">
<feFlood flood-opacity="0" result="BackgroundImageFix"/>
<feBlend mode="normal" in="SourceGraphic" in2="BackgroundImageFix" result="shape"/>
<feColorMatrix in="SourceAlpha" type="matrix" values="0 0 0 0 0 0 0 0 0 0 0 0 0 0 0 0 0 0 127 0" result="hardAlpha"/>
<feOffset dx="1.25" dy="1.25"/>
<feGaussianBlur stdDeviation="0.75"/>
<feComposite in2="hardAlpha" operator="arithmetic" k2="-1" k3="1"/>
<feColorMatrix type="matrix" values="0 0 0 0 0.0823529 0 0 0 0 0.0823529 0 0 0 0 0.0823529 0 0 0 0.8 0"/>
<feBlend mode="normal" in2="shape" result="effect1_innerShadow_933_14549"/>
</filter>
<filter id="filter2_i_933_14549" x="8" y="4" width="18.7031" height="18.7051" filterUnits="userSpaceOnUse" color-interpolation-filters="sRGB">
<feFlood flood-opacity="0" result="BackgroundImageFix"/>
<feBlend mode="normal" in="SourceGraphic" in2="BackgroundImageFix" result="shape"/>
<feColorMatrix in="SourceAlpha" type="matrix" values="0 0 0 0 0 0 0 0 0 0 0 0 0 0 0 0 0 0 127 0" result="hardAlpha"/>
<feOffset dx="1.25" dy="1.25"/>
<feGaussianBlur stdDeviation="0.75"/>
<feComposite in2="hardAlpha" operator="arithmetic" k2="-1" k3="1"/>
<feColorMatrix type="matrix" values="0 0 0 0 0.0823529 0 0 0 0 0.0823529 0 0 0 0 0.0823529 0 0 0 0.8 0"/>
<feBlend mode="normal" in2="shape" result="effect1_innerShadow_933_14549"/>
</filter>
<filter id="filter3_d_933_14549" x="30.1328" y="26.7656" width="196.641" height="31.0645" filterUnits="userSpaceOnUse" color-interpolation-filters="sRGB">
<feFlood flood-opacity="0" result="BackgroundImageFix"/>
<feColorMatrix in="SourceAlpha" type="matrix" values="0 0 0 0 0 0 0 0 0 0 0 0 0 0 0 0 0 0 127 0" result="hardAlpha"/>
<feOffset dx="1.5" dy="0.999999"/>
<feGaussianBlur stdDeviation="0.999999"/>
<feComposite in2="hardAlpha" operator="out"/>
<feColorMatrix type="matrix" values="0 0 0 0 0.0823529 0 0 0 0 0.0823529 0 0 0 0 0.0823529 0 0 0 0.5 0"/>
<feBlend mode="normal" in2="BackgroundImageFix" result="effect1_dropShadow_933_14549"/>
<feBlend mode="normal" in="SourceGraphic" in2="effect1_dropShadow_933_14549" result="shape"/>
</filter>
<filter id="filter4_d_933_14549" x="263.5" y="22.3223" width="25.9766" height="29.3535" filterUnits="userSpaceOnUse" color-interpolation-filters="sRGB">
<feFlood flood-opacity="0" result="BackgroundImageFix"/>
<feColorMatrix in="SourceAlpha" type="matrix" values="0 0 0 0 0 0 0 0 0 0 0 0 0 0 0 0 0 0 127 0" result="hardAlpha"/>
<feOffset dx="1.5" dy="0.999999"/>
<feGaussianBlur stdDeviation="0.999999"/>
<feComposite in2="hardAlpha" operator="out"/>
<feColorMatrix type="matrix" values="0 0 0 0 0 0 0 0 0 0 0 0 0 0 0 0 0 0 0.5 0"/>
<feBlend mode="normal" in2="BackgroundImageFix" result="effect1_dropShadow_933_14549"/>
<feBlend mode="normal" in="SourceGraphic" in2="effect1_dropShadow_933_14549" result="shape"/>
</filter>
</defs>
</svg>
