<svg width="318" height="78" viewBox="0 0 318 78" fill="none" xmlns="http://www.w3.org/2000/svg">
<g filter="url(#filter0_ddi_869_15778)">
<path d="M31.6364 4H290.545C300.185 4 308 11.8147 308 21.4545V44L284.364 67.6363H25.4546C15.8147 67.6363 8 59.8216 8 50.1818V27.6363L31.6364 4Z" fill="white" fill-opacity="0.85" shape-rendering="crispEdges"/>
<path d="M8.6875 27.9211L31.9211 4.6875H290.545C299.806 4.6875 307.312 12.1944 307.312 21.4545V43.7152L284.079 66.9488H25.4546C16.1944 66.9488 8.6875 59.4419 8.6875 50.1818V27.9211Z" stroke="#191919" stroke-width="1.375" shape-rendering="crispEdges"/>
</g>
<g filter="url(#filter1_i_869_15778)">
<path d="M290.547 67.6362L308.001 50.1816V67.6362H290.547Z" fill="#DCDCDC"/>
</g>
<g filter="url(#filter2_i_869_15778)">
<path d="M8 21.4545V14.1818L18.1818 4H25.4545V4.72727L8.72727 21.4545H8Z" fill="#DCDCDC"/>
</g>
<g filter="url(#filter3_d_869_15778)">
<path d="M72.7436 48.8738C70.78 48.8738 69.2091 48.6884 68.0309 48.3175C66.8636 47.9357 66.0127 47.3029 65.4782 46.4193C64.9545 45.5357 64.6927 44.3193 64.6927 42.7702V33.852C64.6927 32.3248 64.9436 31.1193 65.4455 30.2357C65.9582 29.352 66.7709 28.7193 67.8836 28.3375C69.0073 27.9557 70.48 27.7648 72.3018 27.7648H77.3582C78.2309 27.7648 78.9345 27.9175 79.4691 28.2229C80.0036 28.5284 80.3909 28.9593 80.6309 29.5157C80.8709 30.0611 80.9909 30.6993 80.9909 31.4302C80.9909 32.6629 80.5873 33.2793 79.78 33.2793C79.3545 33.2793 79.0545 33.1429 78.88 32.8702C78.7054 32.5866 78.6073 32.1993 78.5854 31.7084C78.5527 31.152 78.46 30.7593 78.3073 30.5302C78.1545 30.2902 77.7618 30.1702 77.1291 30.1702H72.3018C70.8945 30.1702 69.8145 30.2629 69.0618 30.4484C68.3091 30.6229 67.7909 30.9775 67.5073 31.512C67.2345 32.0466 67.0982 32.8429 67.0982 33.9011V42.7211C67.0982 43.7793 67.24 44.5811 67.5236 45.1266C67.8182 45.6611 68.3691 46.0211 69.1764 46.2066C69.9836 46.3811 71.1727 46.4684 72.7436 46.4684H77.1291C77.7618 46.4684 78.1545 46.3484 78.3073 46.1084C78.46 45.8684 78.5527 45.4702 78.5854 44.9138C78.6182 44.3575 78.7327 43.9593 78.9291 43.7193C79.1254 43.4793 79.4091 43.3593 79.78 43.3593C80.1836 43.3702 80.4836 43.5175 80.68 43.8011C80.8873 44.0847 80.9909 44.532 80.9909 45.1429C80.9909 45.9066 80.8709 46.572 80.6309 47.1393C80.3909 47.6957 80.0036 48.1266 79.4691 48.432C78.9345 48.7266 78.2309 48.8738 77.3582 48.8738H72.7436ZM91.9287 48.8738C89.976 48.8738 88.4105 48.6938 87.2323 48.3338C86.0542 47.9738 85.1978 47.3629 84.6633 46.5011C84.1396 45.6284 83.8778 44.4338 83.8778 42.9175V39.432C83.8778 37.9266 84.1396 36.7429 84.6633 35.8811C85.1978 35.0084 86.0542 34.392 87.2323 34.032C88.4105 33.672 89.976 33.492 91.9287 33.492H92.8778C94.8305 33.492 96.396 33.6775 97.5742 34.0484C98.7523 34.4084 99.6032 35.0248 100.127 35.8975C100.651 36.7593 100.912 37.9375 100.912 39.432V42.9175C100.912 44.4229 100.651 45.612 100.127 46.4847C99.6032 47.3466 98.7523 47.9629 97.5742 48.3338C96.396 48.6938 94.8305 48.8738 92.8778 48.8738H91.9287ZM91.9287 46.4684H92.8778C94.4487 46.4684 95.6378 46.3811 96.4451 46.2066C97.2523 46.032 97.7978 45.6884 98.0814 45.1757C98.3651 44.652 98.5069 43.8775 98.5069 42.852V39.5138C98.5069 38.4666 98.3596 37.6866 98.0651 37.1738C97.7705 36.6502 97.2196 36.3066 96.4123 36.1429C95.6051 35.9793 94.4269 35.8975 92.8778 35.8975H91.9287C90.3578 35.8975 89.1633 35.9793 88.3451 36.1429C87.5378 36.3066 86.9923 36.6502 86.7087 37.1738C86.4251 37.6866 86.2833 38.4666 86.2833 39.5138V42.852C86.2833 43.8775 86.4251 44.652 86.7087 45.1757C86.9923 45.6884 87.5378 46.032 88.3451 46.2066C89.1633 46.3811 90.3578 46.4684 91.9287 46.4684ZM107.549 48.8738C106.196 48.8738 105.253 48.5357 104.718 47.8593C104.195 47.172 103.933 45.9829 103.933 44.292C103.933 43.2993 104.331 42.8029 105.127 42.8029C105.935 42.8029 106.338 43.2993 106.338 44.292V44.8811C106.338 45.5138 106.431 45.9393 106.616 46.1575C106.813 46.3647 107.2 46.4684 107.778 46.4684H113.767C116.473 46.4684 117.825 45.9338 117.825 44.8647C117.825 43.8938 117.525 43.1957 116.925 42.7702C116.325 42.3447 115.316 42.132 113.898 42.132H111.084C110.069 42.132 109.562 41.7557 109.562 41.0029C109.562 40.152 110.069 39.7266 111.084 39.7266H113.898C114.913 39.7266 115.704 39.6666 116.271 39.5466C116.849 39.4157 117.258 39.1866 117.498 38.8593C117.738 38.532 117.858 38.0738 117.858 37.4848C117.858 36.4266 116.495 35.8975 113.767 35.8975H107.778C107.2 35.8975 106.813 36.0066 106.616 36.2248C106.431 36.432 106.338 36.8466 106.338 37.4684V38.0575C106.338 39.0611 105.935 39.5629 105.127 39.5629C104.331 39.5629 103.933 39.0611 103.933 38.0575C103.933 36.3666 104.195 35.1829 104.718 34.5066C105.253 33.8302 106.196 33.492 107.549 33.492H113.996C115.993 33.492 117.531 33.852 118.611 34.572C119.691 35.292 120.231 36.3829 120.231 37.8448C120.231 38.6302 120.089 39.2793 119.805 39.792C119.522 40.3047 119.113 40.7138 118.578 41.0193C119.68 41.8266 120.231 42.9775 120.231 44.472C120.231 45.9666 119.691 47.0738 118.611 47.7938C117.531 48.5138 115.993 48.8738 113.996 48.8738H107.549ZM123.023 51.8847C122.215 51.8847 121.812 51.3829 121.812 50.3793V48.8084C121.812 47.2266 122.543 46.4466 124.004 46.4684H124.904L123.595 47.0411C125.974 43.3429 127.152 38.8266 127.13 33.492H136.866V46.4684H137.93C139.272 46.4684 139.943 47.2484 139.943 48.8084V50.3793C139.943 51.3829 139.544 51.8847 138.748 51.8847C137.941 51.8847 137.537 51.3829 137.537 50.3793V48.8738H124.217V50.3793C124.217 51.3829 123.819 51.8847 123.023 51.8847ZM126.688 46.4684H134.395V35.8975H129.699C129.601 39.7157 128.597 43.2393 126.688 46.4684ZM155.583 49.1029C155.3 49.1029 155.082 49.0157 154.929 48.8411C154.776 48.6666 154.667 48.3229 154.602 47.8102C154.547 47.2975 154.52 46.5393 154.52 45.5357L154.847 46.3047C154.182 47.2429 153.347 47.9084 152.343 48.3011C151.34 48.6829 150.151 48.8738 148.776 48.8738H145.733C144.598 48.8738 143.671 48.492 142.951 47.7284C142.242 46.9538 141.887 45.7811 141.887 44.2102C141.887 43.1411 142.062 42.2629 142.411 41.5757C142.76 40.8775 143.278 40.3266 143.965 39.9229C144.663 39.5193 145.509 39.2357 146.502 39.072C147.505 38.8975 148.651 38.8102 149.938 38.8102H155.485L154.405 39.8084V37.3048C154.405 36.7593 154.307 36.3884 154.111 36.192C153.925 35.9957 153.538 35.8975 152.949 35.8975H148.334C147.287 35.8975 146.474 35.9411 145.896 36.0284C145.318 36.1048 144.909 36.2466 144.669 36.4538C144.429 36.6502 144.303 36.9175 144.293 37.2557C144.26 37.7575 144.167 38.1284 144.014 38.3684C143.873 38.6084 143.562 38.7284 143.082 38.7284C142.285 38.7284 141.887 38.1993 141.887 37.1411C141.887 35.8866 142.405 34.9648 143.442 34.3757C144.489 33.7866 146.043 33.492 148.105 33.492H153.178C154.531 33.492 155.474 33.8138 156.009 34.4575C156.543 35.1011 156.811 36.2302 156.811 37.8448V47.6793C156.811 48.6284 156.402 49.1029 155.583 49.1029ZM145.814 46.5666H148.776C150.816 46.5666 152.267 46.0975 153.129 45.1593C153.991 44.2211 154.416 42.7811 154.405 40.8393L154.7 41.1175H149.938C148.574 41.1175 147.478 41.1938 146.649 41.3466C145.82 41.4884 145.22 41.772 144.849 42.1975C144.478 42.6229 144.293 43.2557 144.293 44.0957C144.293 44.9029 144.434 45.5193 144.718 45.9447C145.002 46.3593 145.367 46.5666 145.814 46.5666ZM166.321 49.1029C165.449 49.1029 165.012 48.6611 165.012 47.7775V35.8975H160.218C159.258 35.8975 158.778 35.4938 158.778 34.6866C158.778 33.8902 159.258 33.492 160.218 33.492H172.441C173.39 33.492 173.865 33.8902 173.865 34.6866C173.865 35.4938 173.39 35.8975 172.441 35.8975H167.663V47.7775C167.663 48.1811 167.543 48.5029 167.303 48.7429C167.063 48.9829 166.736 49.1029 166.321 49.1029ZM175.969 48.8738V34.7193C175.969 33.7484 176.368 33.2629 177.164 33.2629C177.971 33.2629 178.375 33.7484 178.375 34.7193V39.7266H185.379C186.546 39.7266 187.549 39.9011 188.389 40.2502C189.229 40.5884 189.879 41.0957 190.337 41.772C190.795 42.4484 191.024 43.2884 191.024 44.292C191.024 45.2957 190.795 46.1357 190.337 46.812C189.889 47.4884 189.24 47.9957 188.389 48.3338C187.549 48.672 186.546 48.852 185.379 48.8738H175.969ZM178.375 46.4684H185.1C186.104 46.4684 186.939 46.3266 187.604 46.0429C188.28 45.7484 188.619 45.2029 188.619 44.4066C188.619 43.752 188.471 43.2611 188.177 42.9338C187.893 42.6066 187.484 42.3938 186.949 42.2957C186.426 42.1866 185.809 42.132 185.1 42.132H178.375V46.4684Z" fill="#191919"/>
</g>
<path d="M247.594 28.6479L269.009 7.23242H290.179C298.234 7.23242 304.764 13.7624 304.764 21.8176V42.9874L283.349 64.4028H247.594V28.6479Z" stroke="#191919" stroke-width="1.375"/>
<g filter="url(#filter4_d_869_15778)">
<path d="M273.82 25.0898L284.729 35.9989L273.82 46.908" stroke="#191919" stroke-width="2.5" stroke-linecap="square" stroke-linejoin="round"/>
<path d="M271.635 33.8164L273.817 35.9982L271.635 38.18L269.453 35.9982L271.635 33.8164Z" fill="#191919"/>
<path d="M266.182 33.8164L268.364 35.9982L266.182 38.18L264 35.9982L266.182 33.8164Z" fill="#191919"/>
</g>
<defs>
<filter id="filter0_ddi_869_15778" x="0.500004" y="0.500002" width="317" height="76.6367" filterUnits="userSpaceOnUse" color-interpolation-filters="sRGB">
<feFlood flood-opacity="0" result="BackgroundImageFix"/>
<feColorMatrix in="SourceAlpha" type="matrix" values="0 0 0 0 0 0 0 0 0 0 0 0 0 0 0 0 0 0 127 0" result="hardAlpha"/>
<feOffset dx="-2.5" dy="2.5"/>
<feGaussianBlur stdDeviation="2.5"/>
<feComposite in2="hardAlpha" operator="out"/>
<feColorMatrix type="matrix" values="0 0 0 0 0.0823529 0 0 0 0 0.0823529 0 0 0 0 0.0823529 0 0 0 0.25 0"/>
<feBlend mode="normal" in2="BackgroundImageFix" result="effect1_dropShadow_869_15778"/>
<feColorMatrix in="SourceAlpha" type="matrix" values="0 0 0 0 0 0 0 0 0 0 0 0 0 0 0 0 0 0 127 0" result="hardAlpha"/>
<feOffset dx="3" dy="3"/>
<feGaussianBlur stdDeviation="3.25"/>
<feComposite in2="hardAlpha" operator="out"/>
<feColorMatrix type="matrix" values="0 0 0 0 0.0823529 0 0 0 0 0.0823529 0 0 0 0 0.0823529 0 0 0 0.25 0"/>
<feBlend mode="normal" in2="effect1_dropShadow_869_15778" result="effect2_dropShadow_869_15778"/>
<feBlend mode="normal" in="SourceGraphic" in2="effect2_dropShadow_869_15778" result="shape"/>
<feColorMatrix in="SourceAlpha" type="matrix" values="0 0 0 0 0 0 0 0 0 0 0 0 0 0 0 0 0 0 127 0" result="hardAlpha"/>
<feOffset dx="4" dy="1.5"/>
<feGaussianBlur stdDeviation="1.75"/>
<feComposite in2="hardAlpha" operator="arithmetic" k2="-1" k3="1"/>
<feColorMatrix type="matrix" values="0 0 0 0 0.0823529 0 0 0 0 0.0823529 0 0 0 0 0.0823529 0 0 0 0.5 0"/>
<feBlend mode="normal" in2="shape" result="effect3_innerShadow_869_15778"/>
</filter>
<filter id="filter1_i_869_15778" x="290.547" y="50.1816" width="18.7031" height="18.7051" filterUnits="userSpaceOnUse" color-interpolation-filters="sRGB">
<feFlood flood-opacity="0" result="BackgroundImageFix"/>
<feBlend mode="normal" in="SourceGraphic" in2="BackgroundImageFix" result="shape"/>
<feColorMatrix in="SourceAlpha" type="matrix" values="0 0 0 0 0 0 0 0 0 0 0 0 0 0 0 0 0 0 127 0" result="hardAlpha"/>
<feOffset dx="1.25" dy="1.25"/>
<feGaussianBlur stdDeviation="0.75"/>
<feComposite in2="hardAlpha" operator="arithmetic" k2="-1" k3="1"/>
<feColorMatrix type="matrix" values="0 0 0 0 0.0823529 0 0 0 0 0.0823529 0 0 0 0 0.0823529 0 0 0 0.8 0"/>
<feBlend mode="normal" in2="shape" result="effect1_innerShadow_869_15778"/>
</filter>
<filter id="filter2_i_869_15778" x="8" y="4" width="18.7031" height="18.7051" filterUnits="userSpaceOnUse" color-interpolation-filters="sRGB">
<feFlood flood-opacity="0" result="BackgroundImageFix"/>
<feBlend mode="normal" in="SourceGraphic" in2="BackgroundImageFix" result="shape"/>
<feColorMatrix in="SourceAlpha" type="matrix" values="0 0 0 0 0 0 0 0 0 0 0 0 0 0 0 0 0 0 127 0" result="hardAlpha"/>
<feOffset dx="1.25" dy="1.25"/>
<feGaussianBlur stdDeviation="0.75"/>
<feComposite in2="hardAlpha" operator="arithmetic" k2="-1" k3="1"/>
<feColorMatrix type="matrix" values="0 0 0 0 0.0823529 0 0 0 0 0.0823529 0 0 0 0 0.0823529 0 0 0 0.8 0"/>
<feBlend mode="normal" in2="shape" result="effect1_innerShadow_869_15778"/>
</filter>
<filter id="filter3_d_869_15778" x="64.1953" y="26.7656" width="130.328" height="28.1191" filterUnits="userSpaceOnUse" color-interpolation-filters="sRGB">
<feFlood flood-opacity="0" result="BackgroundImageFix"/>
<feColorMatrix in="SourceAlpha" type="matrix" values="0 0 0 0 0 0 0 0 0 0 0 0 0 0 0 0 0 0 127 0" result="hardAlpha"/>
<feOffset dx="1.5" dy="0.999999"/>
<feGaussianBlur stdDeviation="0.999999"/>
<feComposite in2="hardAlpha" operator="out"/>
<feColorMatrix type="matrix" values="0 0 0 0 0.0823529 0 0 0 0 0.0823529 0 0 0 0 0.0823529 0 0 0 0.5 0"/>
<feBlend mode="normal" in2="BackgroundImageFix" result="effect1_dropShadow_869_15778"/>
<feBlend mode="normal" in="SourceGraphic" in2="effect1_dropShadow_869_15778" result="shape"/>
</filter>
<filter id="filter4_d_869_15778" x="263.5" y="22.3223" width="25.9766" height="29.3535" filterUnits="userSpaceOnUse" color-interpolation-filters="sRGB">
<feFlood flood-opacity="0" result="BackgroundImageFix"/>
<feColorMatrix in="SourceAlpha" type="matrix" values="0 0 0 0 0 0 0 0 0 0 0 0 0 0 0 0 0 0 127 0" result="hardAlpha"/>
<feOffset dx="1.5" dy="0.999999"/>
<feGaussianBlur stdDeviation="0.999999"/>
<feComposite in2="hardAlpha" operator="out"/>
<feColorMatrix type="matrix" values="0 0 0 0 0 0 0 0 0 0 0 0 0 0 0 0 0 0 0.5 0"/>
<feBlend mode="normal" in2="BackgroundImageFix" result="effect1_dropShadow_869_15778"/>
<feBlend mode="normal" in="SourceGraphic" in2="effect1_dropShadow_869_15778" result="shape"/>
</filter>
</defs>
</svg>
