<svg width="309" height="73" viewBox="0 0 309 73" fill="none" xmlns="http://www.w3.org/2000/svg">
<g filter="url(#filter0_ddi_839_14595)">
<path d="M27.6364 4H286.545C296.185 4 304 11.8147 304 21.4545V44L280.364 67.6363H21.4546C11.8147 67.6363 4 59.8216 4 50.1818V27.6363L27.6364 4Z" fill="white" fill-opacity="0.1" shape-rendering="crispEdges"/>
<path d="M4.625 27.8952L27.8952 4.625H286.545C295.84 4.625 303.375 12.1598 303.375 21.4545V43.7411L280.105 67.0113H21.4546C12.1599 67.0113 4.625 59.4764 4.625 50.1818V27.8952Z" stroke="white" stroke-opacity="0.55" stroke-width="1.25" shape-rendering="crispEdges"/>
</g>
<g filter="url(#filter1_i_839_14595)">
<path d="M286.547 67.6362L304.001 50.1816V67.6362H286.547Z" fill="#969696"/>
</g>
<g filter="url(#filter2_i_839_14595)">
<path d="M4 21.4545V14.1818L14.1818 4H21.4545V4.72727L4.72727 21.4545H4Z" fill="#969696"/>
</g>
<path d="M69.7436 48.1473C67.78 48.1473 66.2091 47.9618 65.0309 47.5909C63.8636 47.2091 63.0127 46.5764 62.4782 45.6927C61.9545 44.8091 61.6927 43.5927 61.6927 42.0436V33.1255C61.6927 31.5982 61.9436 30.3927 62.4455 29.5091C62.9582 28.6255 63.7709 27.9927 64.8836 27.6109C66.0073 27.2291 67.48 27.0382 69.3018 27.0382H74.3582C75.2309 27.0382 75.9345 27.1909 76.4691 27.4964C77.0036 27.8018 77.3909 28.2327 77.6309 28.7891C77.8709 29.3346 77.9909 29.9727 77.9909 30.7036C77.9909 31.9364 77.5873 32.5527 76.78 32.5527C76.3545 32.5527 76.0545 32.4164 75.88 32.1436C75.7054 31.86 75.6073 31.4727 75.5854 30.9818C75.5527 30.4255 75.46 30.0327 75.3073 29.8036C75.1545 29.5636 74.7618 29.4436 74.1291 29.4436H69.3018C67.8945 29.4436 66.8145 29.5364 66.0618 29.7218C65.3091 29.8964 64.7909 30.2509 64.5073 30.7855C64.2345 31.32 64.0982 32.1164 64.0982 33.1746V41.9945C64.0982 43.0527 64.24 43.8545 64.5236 44.4C64.8182 44.9345 65.3691 45.2945 66.1764 45.48C66.9836 45.6545 68.1727 45.7418 69.7436 45.7418H74.1291C74.7618 45.7418 75.1545 45.6218 75.3073 45.3818C75.46 45.1418 75.5527 44.7436 75.5854 44.1873C75.6182 43.6309 75.7327 43.2327 75.9291 42.9927C76.1254 42.7527 76.4091 42.6327 76.78 42.6327C77.1836 42.6436 77.4836 42.7909 77.68 43.0745C77.8873 43.3582 77.9909 43.8055 77.9909 44.4164C77.9909 45.18 77.8709 45.8455 77.6309 46.4127C77.3909 46.9691 77.0036 47.4 76.4691 47.7055C75.9345 48 75.2309 48.1473 74.3582 48.1473H69.7436ZM82.4978 48.3764C82.1378 48.3764 81.8487 48.2509 81.6305 48C81.4233 47.7491 81.3196 47.4218 81.3196 47.0182V33.8946C81.3196 33.4691 81.4287 33.1364 81.6469 32.8964C81.876 32.6564 82.1814 32.5364 82.5633 32.5364C82.9123 32.5364 83.1905 32.6618 83.3978 32.9127C83.616 33.1527 83.7251 33.48 83.7251 33.8946V39.2291H86.9814C87.2542 39.2291 87.5596 39.0491 87.8978 38.6891C88.236 38.3182 88.6723 37.7236 89.2069 36.9055C89.6214 36.2727 90.1014 35.6182 90.6469 34.9418C91.1923 34.2655 91.9014 33.6873 92.7742 33.2073C93.636 32.7382 94.5851 32.5036 95.6214 32.5036C96.1014 32.5036 96.4832 32.6073 96.7669 32.8146C97.0505 33.0218 97.1923 33.3164 97.1923 33.6982C97.1923 34.1236 97.0505 34.4346 96.7669 34.6309C96.4832 34.8164 96.1123 34.9091 95.6542 34.9091C95.0214 34.92 94.4323 35.1491 93.8869 35.5964C93.3523 36.0436 92.7469 36.7582 92.0705 37.74C91.8087 38.1327 91.5742 38.4764 91.3669 38.7709C91.1596 39.0546 90.9687 39.3055 90.7942 39.5236C90.6196 39.7418 90.4396 39.9436 90.2542 40.1291C91.1923 40.5327 91.9887 41.0673 92.6432 41.7327C93.3087 42.3873 93.7669 43.0636 94.0178 43.7618C94.3123 44.4927 94.5851 45.0436 94.836 45.4145C95.0869 45.7745 95.3596 45.96 95.6542 45.9709C96.1014 45.9709 96.4669 46.0745 96.7505 46.2818C97.0451 46.4891 97.1923 46.7836 97.1923 47.1655C97.1923 47.9727 96.6742 48.3764 95.6378 48.3764C94.8742 48.3764 94.2251 48.2291 93.6905 47.9345C93.156 47.64 92.7251 47.2309 92.3978 46.7073C92.1142 46.2927 91.8687 45.8673 91.6614 45.4309C91.4542 44.9836 91.1978 44.5364 90.8923 44.0891C90.5869 43.6309 90.156 43.1891 89.5996 42.7636C88.6942 42.0109 87.2269 41.6345 85.1978 41.6345H83.7251V47.0509C83.7251 47.4545 83.616 47.7764 83.3978 48.0164C83.1796 48.2564 82.8796 48.3764 82.4978 48.3764ZM113.239 48.3764C112.956 48.3764 112.737 48.2891 112.585 48.1145C112.432 47.94 112.323 47.5964 112.257 47.0836C112.203 46.5709 112.176 45.8127 112.176 44.8091L112.503 45.5782C111.837 46.5164 111.003 47.1818 109.999 47.5745C108.996 47.9564 107.806 48.1473 106.432 48.1473H103.388C102.254 48.1473 101.326 47.7655 100.606 47.0018C99.8974 46.2273 99.5428 45.0545 99.5428 43.4836C99.5428 42.4145 99.7174 41.5364 100.066 40.8491C100.416 40.1509 100.934 39.6 101.621 39.1964C102.319 38.7927 103.165 38.5091 104.157 38.3455C105.161 38.1709 106.306 38.0836 107.594 38.0836H113.141L112.061 39.0818V36.5782C112.061 36.0327 111.963 35.6618 111.766 35.4655C111.581 35.2691 111.194 35.1709 110.605 35.1709H105.99C104.943 35.1709 104.13 35.2146 103.552 35.3018C102.974 35.3782 102.565 35.52 102.325 35.7273C102.085 35.9236 101.959 36.1909 101.948 36.5291C101.916 37.0309 101.823 37.4018 101.67 37.6418C101.528 37.8818 101.217 38.0018 100.737 38.0018C99.941 38.0018 99.5428 37.4727 99.5428 36.4146C99.5428 35.16 100.061 34.2382 101.097 33.6491C102.145 33.06 103.699 32.7655 105.761 32.7655H110.834C112.186 32.7655 113.13 33.0873 113.665 33.7309C114.199 34.3746 114.466 35.5036 114.466 37.1182V46.9527C114.466 47.9018 114.057 48.3764 113.239 48.3764ZM103.47 45.84H106.432C108.472 45.84 109.923 45.3709 110.785 44.4327C111.646 43.4945 112.072 42.0545 112.061 40.1127L112.356 40.3909H107.594C106.23 40.3909 105.134 40.4673 104.305 40.62C103.476 40.7618 102.876 41.0455 102.505 41.4709C102.134 41.8964 101.948 42.5291 101.948 43.3691C101.948 44.1764 102.09 44.7927 102.374 45.2182C102.657 45.6327 103.023 45.84 103.47 45.84ZM132.601 48.3764C131.782 48.3764 131.373 47.8964 131.373 46.9364V42.4855C130.064 43.5982 128.324 44.1545 126.153 44.1545H125.057C123.246 44.1545 121.784 43.9691 120.672 43.5982C119.559 43.2164 118.746 42.5836 118.233 41.7C117.732 40.8164 117.481 39.6273 117.481 38.1327V33.96C117.481 33.0109 117.879 32.5364 118.675 32.5364C119.482 32.5364 119.886 33.0109 119.886 33.96V38.0673C119.886 39.1036 120.022 39.8836 120.295 40.4073C120.579 40.9309 121.092 41.2855 121.833 41.4709C122.586 41.6564 123.661 41.7491 125.057 41.7491H126.153C127.888 41.7491 129.192 41.3018 130.064 40.4073C130.937 39.5018 131.373 38.1546 131.373 36.3655V33.96C131.373 33.0109 131.772 32.5364 132.568 32.5364C133.375 32.5364 133.779 33.0109 133.779 33.96V46.92C133.779 47.8909 133.386 48.3764 132.601 48.3764ZM150.953 48.3764C150.67 48.3764 150.452 48.2891 150.299 48.1145C150.146 47.94 150.037 47.5964 149.972 47.0836C149.917 46.5709 149.89 45.8127 149.89 44.8091L150.217 45.5782C149.552 46.5164 148.717 47.1818 147.713 47.5745C146.71 47.9564 145.521 48.1473 144.146 48.1473H141.103C139.968 48.1473 139.041 47.7655 138.321 47.0018C137.612 46.2273 137.257 45.0545 137.257 43.4836C137.257 42.4145 137.432 41.5364 137.781 40.8491C138.13 40.1509 138.648 39.6 139.335 39.1964C140.034 38.7927 140.879 38.5091 141.872 38.3455C142.875 38.1709 144.021 38.0836 145.308 38.0836H150.855L149.775 39.0818V36.5782C149.775 36.0327 149.677 35.6618 149.481 35.4655C149.295 35.2691 148.908 35.1709 148.319 35.1709H143.704C142.657 35.1709 141.844 35.2146 141.266 35.3018C140.688 35.3782 140.279 35.52 140.039 35.7273C139.799 35.9236 139.674 36.1909 139.663 36.5291C139.63 37.0309 139.537 37.4018 139.384 37.6418C139.243 37.8818 138.932 38.0018 138.452 38.0018C137.655 38.0018 137.257 37.4727 137.257 36.4146C137.257 35.16 137.775 34.2382 138.812 33.6491C139.859 33.06 141.414 32.7655 143.475 32.7655H148.548C149.901 32.7655 150.844 33.0873 151.379 33.7309C151.913 34.3746 152.181 35.5036 152.181 37.1182V46.9527C152.181 47.9018 151.772 48.3764 150.953 48.3764ZM141.184 45.84H144.146C146.186 45.84 147.637 45.3709 148.499 44.4327C149.361 43.4945 149.786 42.0545 149.775 40.1127L150.07 40.3909H145.308C143.944 40.3909 142.848 40.4673 142.019 40.62C141.19 40.7618 140.59 41.0455 140.219 41.4709C139.848 41.8964 139.663 42.5291 139.663 43.3691C139.663 44.1764 139.804 44.7927 140.088 45.2182C140.372 45.6327 140.737 45.84 141.184 45.84ZM161.691 48.3764C160.819 48.3764 160.382 47.9345 160.382 47.0509V35.1709H155.588C154.628 35.1709 154.148 34.7673 154.148 33.96C154.148 33.1636 154.628 32.7655 155.588 32.7655H167.811C168.76 32.7655 169.235 33.1636 169.235 33.96C169.235 34.7673 168.76 35.1709 167.811 35.1709H163.033V47.0509C163.033 47.4545 162.913 47.7764 162.673 48.0164C162.433 48.2564 162.106 48.3764 161.691 48.3764ZM171.34 48.1473V33.9927C171.34 33.0218 171.738 32.5364 172.534 32.5364C173.341 32.5364 173.745 33.0218 173.745 33.9927V39H180.749C181.916 39 182.92 39.1746 183.76 39.5236C184.6 39.8618 185.249 40.3691 185.707 41.0455C186.165 41.7218 186.394 42.5618 186.394 43.5655C186.394 44.5691 186.165 45.4091 185.707 46.0855C185.26 46.7618 184.61 47.2691 183.76 47.6073C182.92 47.9455 181.916 48.1255 180.749 48.1473H171.34ZM173.745 45.7418H180.47C181.474 45.7418 182.309 45.6 182.974 45.3164C183.65 45.0218 183.989 44.4764 183.989 43.68C183.989 43.0255 183.841 42.5345 183.547 42.2073C183.263 41.88 182.854 41.6673 182.32 41.5691C181.796 41.46 181.18 41.4055 180.47 41.4055H173.745V45.7418Z" fill="white" fill-opacity="0.55"/>
<path d="M243.531 28.6229L264.983 7.1709H286.179C294.269 7.1709 300.827 13.7289 300.827 21.8186V43.0142L279.375 64.4663H243.531V28.6229Z" stroke="white" stroke-opacity="0.55" stroke-width="1.25"/>
<path d="M269.82 25.0908L280.729 35.9999L269.82 46.909" stroke="white" stroke-opacity="0.55" stroke-width="2.18182" stroke-linecap="square" stroke-linejoin="round"/>
<path d="M267.635 33.8184L269.817 36.0002L267.635 38.182L265.453 36.0002L267.635 33.8184Z" fill="white" fill-opacity="0.55"/>
<path d="M262.182 33.8184L264.364 36.0002L262.182 38.182L260 36.0002L262.182 33.8184Z" fill="white" fill-opacity="0.55"/>
<defs>
<filter id="filter0_ddi_839_14595" x="0.500002" y="0.500002" width="308.5" height="72.1367" filterUnits="userSpaceOnUse" color-interpolation-filters="sRGB">
<feFlood flood-opacity="0" result="BackgroundImageFix"/>
<feColorMatrix in="SourceAlpha" type="matrix" values="0 0 0 0 0 0 0 0 0 0 0 0 0 0 0 0 0 0 127 0" result="hardAlpha"/>
<feOffset dx="-0.999999" dy="-0.999999"/>
<feGaussianBlur stdDeviation="1.25"/>
<feComposite in2="hardAlpha" operator="out"/>
<feColorMatrix type="matrix" values="0 0 0 0 0.0823529 0 0 0 0 0.0823529 0 0 0 0 0.0823529 0 0 0 0.25 0"/>
<feBlend mode="normal" in2="BackgroundImageFix" result="effect1_dropShadow_839_14595"/>
<feColorMatrix in="SourceAlpha" type="matrix" values="0 0 0 0 0 0 0 0 0 0 0 0 0 0 0 0 0 0 127 0" result="hardAlpha"/>
<feOffset dx="1.5" dy="1.5"/>
<feGaussianBlur stdDeviation="1.75"/>
<feComposite in2="hardAlpha" operator="out"/>
<feColorMatrix type="matrix" values="0 0 0 0 0.0823529 0 0 0 0 0.0823529 0 0 0 0 0.0823529 0 0 0 0.25 0"/>
<feBlend mode="normal" in2="effect1_dropShadow_839_14595" result="effect2_dropShadow_839_14595"/>
<feBlend mode="normal" in="SourceGraphic" in2="effect2_dropShadow_839_14595" result="shape"/>
<feColorMatrix in="SourceAlpha" type="matrix" values="0 0 0 0 0 0 0 0 0 0 0 0 0 0 0 0 0 0 127 0" result="hardAlpha"/>
<feOffset dx="4" dy="1.5"/>
<feGaussianBlur stdDeviation="1.75"/>
<feComposite in2="hardAlpha" operator="arithmetic" k2="-1" k3="1"/>
<feColorMatrix type="matrix" values="0 0 0 0 0.0823529 0 0 0 0 0.0823529 0 0 0 0 0.0823529 0 0 0 0.25 0"/>
<feBlend mode="normal" in2="shape" result="effect3_innerShadow_839_14595"/>
</filter>
<filter id="filter1_i_839_14595" x="286.547" y="50.1816" width="18.9531" height="18.9541" filterUnits="userSpaceOnUse" color-interpolation-filters="sRGB">
<feFlood flood-opacity="0" result="BackgroundImageFix"/>
<feBlend mode="normal" in="SourceGraphic" in2="BackgroundImageFix" result="shape"/>
<feColorMatrix in="SourceAlpha" type="matrix" values="0 0 0 0 0 0 0 0 0 0 0 0 0 0 0 0 0 0 127 0" result="hardAlpha"/>
<feOffset dx="1.5" dy="1.5"/>
<feGaussianBlur stdDeviation="0.75"/>
<feComposite in2="hardAlpha" operator="arithmetic" k2="-1" k3="1"/>
<feColorMatrix type="matrix" values="0 0 0 0 0.0833333 0 0 0 0 0.0833333 0 0 0 0 0.0833333 0 0 0 0.5 0"/>
<feBlend mode="normal" in2="shape" result="effect1_innerShadow_839_14595"/>
</filter>
<filter id="filter2_i_839_14595" x="4" y="4" width="18.9531" height="18.9541" filterUnits="userSpaceOnUse" color-interpolation-filters="sRGB">
<feFlood flood-opacity="0" result="BackgroundImageFix"/>
<feBlend mode="normal" in="SourceGraphic" in2="BackgroundImageFix" result="shape"/>
<feColorMatrix in="SourceAlpha" type="matrix" values="0 0 0 0 0 0 0 0 0 0 0 0 0 0 0 0 0 0 127 0" result="hardAlpha"/>
<feOffset dx="1.5" dy="1.5"/>
<feGaussianBlur stdDeviation="0.75"/>
<feComposite in2="hardAlpha" operator="arithmetic" k2="-1" k3="1"/>
<feColorMatrix type="matrix" values="0 0 0 0 0.0833333 0 0 0 0 0.0833333 0 0 0 0 0.0833333 0 0 0 0.5 0"/>
<feBlend mode="normal" in2="shape" result="effect1_innerShadow_839_14595"/>
</filter>
</defs>
</svg>
