<svg width="232" height="48" viewBox="0 0 232 48" fill="none" xmlns="http://www.w3.org/2000/svg">
<g clip-path="url(#clip0_392_3187)">
<path d="M0 0H232V36L220 48H0V0Z" fill="#2A2A2A"/>
<path d="M27.122 32.28C26.5527 32.28 26.268 31.916 26.268 31.188V15.032C26.268 14.2853 26.562 13.912 27.15 13.912C27.738 13.912 28.032 14.2993 28.032 15.074V28.906L37.916 14.5C38.196 14.108 38.518 13.912 38.882 13.912C39.4327 13.912 39.708 14.2853 39.708 15.032V31.188C39.708 31.916 39.414 32.28 38.826 32.28C38.238 32.28 37.944 31.93 37.944 31.23V17.216L27.99 31.79C27.8593 31.986 27.7333 32.1167 27.612 32.182C27.5 32.2473 27.3367 32.28 27.122 32.28ZM45.9408 32.084C44.8302 32.084 44.0602 31.804 43.6308 31.244C43.2015 30.684 42.9868 29.7087 42.9868 28.318C42.9868 27.562 43.2808 27.184 43.8688 27.184C44.4568 27.184 44.7508 27.562 44.7508 28.318V28.822C44.7508 29.3913 44.8442 29.7833 45.0308 29.998C45.2268 30.2127 45.5955 30.32 46.1368 30.32H51.2608C53.5288 30.32 54.6628 29.802 54.6628 28.766C54.6628 27.8793 54.4015 27.2353 53.8788 26.834C53.3655 26.4233 52.5302 26.218 51.3728 26.218H48.9648C48.1902 26.218 47.8028 25.9427 47.8028 25.392C47.8028 24.7667 48.1902 24.454 48.9648 24.454H51.3728C52.1942 24.454 52.8428 24.3933 53.3188 24.272C53.8042 24.1507 54.1542 23.936 54.3688 23.628C54.5835 23.32 54.6908 22.886 54.6908 22.326C54.6908 21.29 53.5475 20.772 51.2608 20.772H46.1368C45.5955 20.772 45.2268 20.8793 45.0308 21.094C44.8442 21.2993 44.7508 21.6913 44.7508 22.27V22.774C44.7508 23.53 44.4568 23.908 43.8688 23.908C43.2808 23.908 42.9868 23.53 42.9868 22.774C42.9868 21.374 43.2015 20.3987 43.6308 19.848C44.0602 19.288 44.8302 19.008 45.9408 19.008H51.4568C52.9968 19.008 54.2102 19.3067 55.0968 19.904C55.9835 20.5013 56.4268 21.416 56.4268 22.648C56.4268 23.376 56.2915 23.95 56.0208 24.37C55.7595 24.79 55.3815 25.126 54.8868 25.378C55.9135 26.078 56.4268 27.072 56.4268 28.36C56.4268 29.6387 55.9835 30.5813 55.0968 31.188C54.2102 31.7853 52.9968 32.084 51.4568 32.084H45.9408ZM75.5128 37.18C74.9248 37.18 74.6308 36.802 74.6308 36.046V30.516C74.1268 31.0667 73.5994 31.468 73.0488 31.72C72.4981 31.9627 71.8354 32.084 71.0608 32.084C67.8314 32.084 66.2168 30.222 66.2168 26.498V24.594C66.2168 20.87 67.8314 19.008 71.0608 19.008C71.8354 19.008 72.4981 19.1293 73.0488 19.372C73.5994 19.6147 74.1268 20.0113 74.6308 20.562V15.046C74.6308 14.29 74.9248 13.912 75.5128 13.912C76.1008 13.912 76.3948 14.29 76.3948 15.046V20.562C76.8988 20.0113 77.4261 19.6147 77.9768 19.372C78.5368 19.1293 79.1994 19.008 79.9648 19.008C83.1941 19.008 84.8088 20.87 84.8088 24.594V26.498C84.8088 28.3273 84.4214 29.718 83.6468 30.67C82.8721 31.6127 81.6448 32.084 79.9648 32.084C79.1994 32.084 78.5368 31.9627 77.9768 31.72C77.4261 31.468 76.8988 31.0667 76.3948 30.516V36.046C76.3948 36.802 76.1008 37.18 75.5128 37.18ZM71.1728 30.306C72.0128 30.306 72.6848 30.082 73.1888 29.634C73.7021 29.186 74.0708 28.598 74.2948 27.87C74.5188 27.142 74.6308 26.3627 74.6308 25.532C74.6308 24.6267 74.5094 23.8147 74.2668 23.096C74.0334 22.3773 73.6508 21.8127 73.1188 21.402C72.5961 20.982 71.9054 20.772 71.0468 20.772C70.3374 20.772 69.7728 20.8793 69.3528 21.094C68.9421 21.2993 68.6388 21.584 68.4428 21.948C68.2468 22.312 68.1208 22.7227 68.0648 23.18C68.0088 23.628 67.9808 24.0993 67.9808 24.594V26.498C67.9808 27.842 68.2048 28.8127 68.6528 29.41C69.1101 29.998 69.9501 30.2967 71.1728 30.306ZM80.0068 30.32C80.8374 30.32 81.4721 30.1753 81.9108 29.886C82.3494 29.5967 82.6481 29.172 82.8068 28.612C82.9654 28.0427 83.0448 27.338 83.0448 26.498V24.594C83.0448 23.25 82.8208 22.2747 82.3728 21.668C81.9341 21.0613 81.1034 20.758 79.8808 20.758C79.0688 20.758 78.4061 20.9727 77.8928 21.402C77.3794 21.8313 77.0014 22.41 76.7588 23.138C76.5161 23.8567 76.3948 24.6547 76.3948 25.532C76.3948 26.4467 76.5208 27.268 76.7728 27.996C77.0248 28.7147 77.4168 29.284 77.9488 29.704C78.4808 30.1147 79.1668 30.32 80.0068 30.32ZM98.8317 32.28C98.5984 32.28 98.4257 32.196 98.3137 32.028C98.2017 31.8693 98.1271 31.5707 98.0897 31.132C98.0617 30.6933 98.0431 30.068 98.0337 29.256L98.2857 29.858C97.7444 30.642 97.0537 31.2113 96.2137 31.566C95.3737 31.9113 94.3751 32.084 93.2177 32.084H90.6137C89.6804 32.084 88.9197 31.7667 88.3317 31.132C87.7531 30.4973 87.4637 29.522 87.4637 28.206C87.4637 27.2353 87.6271 26.4513 87.9537 25.854C88.2804 25.2567 88.7377 24.7993 89.3257 24.482C89.9137 24.1553 90.6044 23.936 91.3977 23.824C92.2004 23.7027 93.0684 23.642 94.0017 23.642H98.7617L97.9637 24.384V22.186C97.9637 21.6447 97.8704 21.276 97.6837 21.08C97.4971 20.8747 97.1284 20.772 96.5777 20.772H92.6297C91.7897 20.772 91.1224 20.8187 90.6277 20.912C90.1331 21.0053 89.7784 21.1547 89.5637 21.36C89.3491 21.5653 89.2371 21.8407 89.2277 22.186C89.2091 22.5407 89.1484 22.8113 89.0457 22.998C88.9431 23.1847 88.7097 23.278 88.3457 23.278C87.7577 23.278 87.4637 22.8767 87.4637 22.074C87.4637 21.0287 87.8931 20.2587 88.7517 19.764C89.6197 19.26 90.8471 19.008 92.4337 19.008H96.7737C97.8844 19.008 98.6544 19.2787 99.0837 19.82C99.5131 20.352 99.7277 21.2947 99.7277 22.648V31.188C99.7277 31.916 99.4291 32.28 98.8317 32.28ZM90.6557 30.376H93.2177C94.9537 30.376 96.1857 29.9327 96.9137 29.046C97.6417 28.1593 97.9917 26.82 97.9637 25.028L98.3137 25.35H94.0017C92.9004 25.35 91.9951 25.4153 91.2857 25.546C90.5857 25.6673 90.0677 25.924 89.7317 26.316C89.3957 26.708 89.2277 27.3007 89.2277 28.094C89.2277 28.8687 89.3677 29.4427 89.6477 29.816C89.9277 30.1893 90.2637 30.376 90.6557 30.376ZM115.406 32.28C114.818 32.28 114.524 31.8927 114.524 31.118V21.486L104.92 32.084H103.128V19.932C103.128 19.1853 103.422 18.812 104.01 18.812C104.598 18.812 104.892 19.1993 104.892 19.974V29.718L114.594 19.008H116.288V31.16C116.288 31.9067 115.994 32.28 115.406 32.28ZM108.154 18.098C107.156 18.098 106.456 17.8413 106.054 17.328C105.653 16.8147 105.452 15.928 105.452 14.668V13.758H107.216V15.116C107.216 15.6107 107.291 15.9373 107.44 16.096C107.59 16.2547 107.902 16.334 108.378 16.334H111.234C111.72 16.334 112.028 16.2547 112.158 16.096C112.298 15.9373 112.368 15.6107 112.368 15.116V13.758H114.132V14.668C114.132 15.9467 113.936 16.838 113.544 17.342C113.162 17.846 112.457 18.098 111.43 18.098H108.154ZM131.038 32.28C130.45 32.28 130.156 31.9067 130.156 31.16V20.772H124.402C123.776 20.772 123.352 20.8793 123.128 21.094C122.904 21.2993 122.792 21.6867 122.792 22.256V28.444C122.792 29.368 122.68 30.096 122.456 30.628C122.232 31.16 121.886 31.538 121.42 31.762C120.953 31.986 120.351 32.098 119.614 32.098C119.231 32.098 118.923 32.028 118.69 31.888C118.466 31.748 118.354 31.5193 118.354 31.202C118.354 30.614 118.75 30.32 119.544 30.32C120.104 30.32 120.491 30.2127 120.706 29.998C120.92 29.7833 121.028 29.4053 121.028 28.864V22.648C121.028 21.7147 121.121 20.9867 121.308 20.464C121.494 19.932 121.816 19.5587 122.274 19.344C122.74 19.12 123.38 19.008 124.192 19.008H131.92V31.146C131.92 31.902 131.626 32.28 131.038 32.28ZM146.343 32.28C146.11 32.28 145.937 32.196 145.825 32.028C145.713 31.8693 145.638 31.5707 145.601 31.132C145.573 30.6933 145.554 30.068 145.545 29.256L145.797 29.858C145.256 30.642 144.565 31.2113 143.725 31.566C142.885 31.9113 141.886 32.084 140.729 32.084H138.125C137.192 32.084 136.431 31.7667 135.843 31.132C135.264 30.4973 134.975 29.522 134.975 28.206C134.975 27.2353 135.138 26.4513 135.465 25.854C135.792 25.2567 136.249 24.7993 136.837 24.482C137.425 24.1553 138.116 23.936 138.909 23.824C139.712 23.7027 140.58 23.642 141.513 23.642H146.273L145.475 24.384V22.186C145.475 21.6447 145.382 21.276 145.195 21.08C145.008 20.8747 144.64 20.772 144.089 20.772H140.141C139.301 20.772 138.634 20.8187 138.139 20.912C137.644 21.0053 137.29 21.1547 137.075 21.36C136.86 21.5653 136.748 21.8407 136.739 22.186C136.72 22.5407 136.66 22.8113 136.557 22.998C136.454 23.1847 136.221 23.278 135.857 23.278C135.269 23.278 134.975 22.8767 134.975 22.074C134.975 21.0287 135.404 20.2587 136.263 19.764C137.131 19.26 138.358 19.008 139.945 19.008H144.285C145.396 19.008 146.166 19.2787 146.595 19.82C147.024 20.352 147.239 21.2947 147.239 22.648V31.188C147.239 31.916 146.94 32.28 146.343 32.28ZM138.167 30.376H140.729C142.465 30.376 143.697 29.9327 144.425 29.046C145.153 28.1593 145.503 26.82 145.475 25.028L145.825 25.35H141.513C140.412 25.35 139.506 25.4153 138.797 25.546C138.097 25.6673 137.579 25.924 137.243 26.316C136.907 26.708 136.739 27.3007 136.739 28.094C136.739 28.8687 136.879 29.4427 137.159 29.816C137.439 30.1893 137.775 30.376 138.167 30.376Z" fill="white"/>
<g clip-path="url(#clip1_392_3187)">
<path d="M204.551 14.6667H215.999C216.353 14.6667 216.692 14.8071 216.942 15.0572C217.192 15.3072 217.333 15.6464 217.333 16V34.6667C217.333 35.0203 217.192 35.3594 216.942 35.6095C216.692 35.8595 216.353 36 215.999 36H191.999C191.646 36 191.307 35.8595 191.057 35.6095C190.806 35.3594 190.666 35.0203 190.666 34.6667V13.3333C190.666 12.9797 190.806 12.6406 191.057 12.3905C191.307 12.1405 191.646 12 191.999 12H201.885L204.551 14.6667ZM193.333 14.6667V33.3333H214.666V17.3333H203.447L200.781 14.6667H193.333ZM205.333 25.3333H209.333L203.999 30.6667L198.666 25.3333H202.666V20H205.333V25.3333Z" fill="white"/>
</g>
</g>
<defs>
<clipPath id="clip0_392_3187">
<rect width="232" height="48" fill="white"/>
</clipPath>
<clipPath id="clip1_392_3187">
<rect width="32" height="32" fill="white" transform="translate(188 8)"/>
</clipPath>
</defs>
</svg>
