<svg width="318" height="78" viewBox="0 0 318 78" fill="none" xmlns="http://www.w3.org/2000/svg">
<g filter="url(#filter0_ddi_817_13288)">
<path d="M31.6364 3.99902H290.545C300.185 3.99902 308 11.8137 308 21.4536V43.999L284.364 67.6353H25.4546C15.8147 67.6353 8 59.8206 8 50.1808V27.6354L31.6364 3.99902Z" fill="white" fill-opacity="0.85" shape-rendering="crispEdges"/>
<path d="M8.6875 27.9201L31.9211 4.68652H290.545C299.806 4.68652 307.312 12.1934 307.312 21.4536V43.7142L284.079 66.9478H25.4546C16.1944 66.9478 8.6875 59.441 8.6875 50.1808V27.9201Z" stroke="#191919" stroke-width="1.375" shape-rendering="crispEdges"/>
</g>
<g filter="url(#filter1_i_817_13288)">
<path d="M290.547 67.6352L308.001 50.1807V67.6352H290.547Z" fill="#DCDCDC"/>
</g>
<g filter="url(#filter2_i_817_13288)">
<path d="M8 21.4535V14.1808L18.1818 3.99902H25.4545V4.7263L8.72727 21.4535H8Z" fill="#DCDCDC"/>
</g>
<g filter="url(#filter3_d_817_13288)">
<path d="M74.2855 48.8738C72.9327 48.8738 71.9891 48.5357 71.4545 47.8593C70.92 47.172 70.6527 45.9829 70.6527 44.292C70.6527 43.2993 71.0564 42.8029 71.8636 42.8029C72.66 42.8029 73.0582 43.2993 73.0582 44.292V44.8811C73.0582 45.5138 73.1509 45.9393 73.3364 46.1575C73.5327 46.3647 73.9255 46.4684 74.5145 46.4684H80.5036C81.2782 46.4684 81.9709 46.2938 82.5818 45.9447C83.1927 45.5847 83.6727 45.1157 84.0218 44.5375C84.3709 43.9593 84.5454 43.332 84.5454 42.6557C84.5454 42.012 84.3764 41.4284 84.0382 40.9047C83.7109 40.3811 83.2473 39.9666 82.6473 39.6611C82.0582 39.3447 81.3873 39.1866 80.6345 39.1866H77.82C76.7945 39.1866 76.2818 38.7884 76.2818 37.992C76.2818 37.1848 76.7945 36.7811 77.82 36.7811H80.6345C81.4091 36.7811 82.0909 36.6502 82.68 36.3884C83.2691 36.1157 83.7273 35.7448 84.0545 35.2757C84.3818 34.8066 84.5454 34.2666 84.5454 33.6557C84.5454 33.012 84.3709 32.4284 84.0218 31.9048C83.6836 31.3702 83.2091 30.9502 82.5982 30.6448C81.9982 30.3284 81.3 30.1702 80.5036 30.1702H74.5145C73.9255 30.1702 73.5327 30.2793 73.3364 30.4975C73.1509 30.7048 73.0582 31.1193 73.0582 31.7411V32.3302C73.0582 33.3338 72.66 33.8357 71.8636 33.8357C71.0564 33.8357 70.6527 33.3338 70.6527 32.3302C70.6527 30.6393 70.92 29.4557 71.4545 28.7793C71.9891 28.1029 72.9327 27.7648 74.2855 27.7648H80.7327C81.9545 27.7648 83.0291 28.0048 83.9564 28.4848C84.8945 28.9538 85.6254 29.6138 86.1491 30.4648C86.6836 31.3157 86.9509 32.3029 86.9509 33.4266C86.9509 34.4084 86.76 35.2866 86.3782 36.0611C86.0073 36.8357 85.4564 37.4957 84.7254 38.0411C85.4564 38.6193 86.0073 39.3229 86.3782 40.152C86.76 40.9811 86.9509 41.892 86.9509 42.8847C86.9509 44.0193 86.6782 45.0393 86.1327 45.9447C85.5982 46.8502 84.8618 47.5647 83.9236 48.0884C82.9854 48.612 81.9218 48.8738 80.7327 48.8738H74.2855ZM103.802 49.1029C103.518 49.1029 103.3 49.0157 103.148 48.8411C102.995 48.6666 102.886 48.3229 102.82 47.8102C102.766 47.2975 102.738 46.5393 102.738 45.5357L103.066 46.3047C102.4 47.2429 101.566 47.9084 100.562 48.3011C99.5585 48.6829 98.3694 48.8738 96.9948 48.8738H93.9512C92.8167 48.8738 91.8894 48.492 91.1694 47.7284C90.4603 46.9538 90.1058 45.7811 90.1058 44.2102C90.1058 43.1411 90.2803 42.2629 90.6294 41.5757C90.9785 40.8775 91.4967 40.3266 92.1839 39.9229C92.8821 39.5193 93.7276 39.2357 94.7203 39.072C95.7239 38.8975 96.8694 38.8102 98.1567 38.8102H103.704L102.624 39.8084V37.3048C102.624 36.7593 102.526 36.3884 102.329 36.192C102.144 35.9957 101.757 35.8975 101.168 35.8975H96.553C95.5058 35.8975 94.693 35.9411 94.1148 36.0284C93.5367 36.1048 93.1276 36.2466 92.8876 36.4538C92.6476 36.6502 92.5221 36.9175 92.5112 37.2557C92.4785 37.7575 92.3858 38.1284 92.233 38.3684C92.0912 38.6084 91.7803 38.7284 91.3003 38.7284C90.5039 38.7284 90.1058 38.1993 90.1058 37.1411C90.1058 35.8866 90.6239 34.9648 91.6603 34.3757C92.7076 33.7866 94.2621 33.492 96.3239 33.492H101.397C102.749 33.492 103.693 33.8138 104.228 34.4575C104.762 35.1011 105.029 36.2302 105.029 37.8448V47.6793C105.029 48.6284 104.62 49.1029 103.802 49.1029ZM94.033 46.5666H96.9948C99.0348 46.5666 100.486 46.0975 101.348 45.1593C102.209 44.2211 102.635 42.7811 102.624 40.8393L102.918 41.1175H98.1567C96.793 41.1175 95.6967 41.1938 94.8676 41.3466C94.0385 41.4884 93.4385 41.772 93.0676 42.1975C92.6967 42.6229 92.5112 43.2557 92.5112 44.0957C92.5112 44.9029 92.653 45.5193 92.9367 45.9447C93.2203 46.3593 93.5858 46.5666 94.033 46.5666ZM110.089 49.1029C109.282 49.1029 108.878 48.6284 108.878 47.6793V33.492H124.849V47.6793C124.849 48.6284 124.451 49.1029 123.655 49.1029C122.847 49.1029 122.444 48.6284 122.444 47.6793V35.8975H111.284V47.6793C111.284 48.6284 110.885 49.1029 110.089 49.1029ZM132.258 55.5829C131.396 55.5829 130.698 55.4302 130.163 55.1247C129.64 54.8302 129.258 54.3938 129.018 53.8157C128.778 53.2484 128.658 52.5666 128.658 51.7702C128.658 51.2138 128.756 50.7884 128.952 50.4938C129.16 50.2102 129.465 50.0684 129.869 50.0684C130.283 50.0684 130.583 50.1993 130.769 50.4611C130.965 50.7338 131.063 51.0884 131.063 51.5247C131.074 52.1247 131.167 52.5502 131.342 52.8011C131.527 53.052 131.92 53.1775 132.52 53.1775H142.142C142.632 53.1775 142.943 53.1011 143.074 52.9484C143.216 52.7957 143.287 52.4411 143.287 51.8847V47.2047C141.967 48.3175 140.085 48.8738 137.642 48.8738H136.692C134.751 48.8738 133.185 48.6938 131.996 48.3338C130.818 47.9629 129.967 47.3466 129.443 46.4847C128.92 45.612 128.658 44.4229 128.658 42.9175V34.7029C128.658 33.7429 129.062 33.2629 129.869 33.2629C130.665 33.2629 131.063 33.7429 131.063 34.7029V42.852C131.063 43.8775 131.205 44.652 131.489 45.1757C131.772 45.6884 132.318 46.032 133.125 46.2066C133.932 46.3811 135.122 46.4684 136.692 46.4684H137.642C139.518 46.4684 140.925 46.0266 141.863 45.1429C142.812 44.2484 143.287 42.9229 143.287 41.1666V34.7029C143.287 33.7429 143.691 33.2629 144.498 33.2629C145.294 33.2629 145.692 33.7429 145.692 34.7029V51.3611C145.692 52.9102 145.447 54.0011 144.956 54.6338C144.465 55.2666 143.603 55.5829 142.371 55.5829H132.258ZM157.253 48.8738C155.301 48.8738 153.735 48.6938 152.557 48.3338C151.379 47.9738 150.522 47.3629 149.988 46.5011C149.464 45.6284 149.202 44.4338 149.202 42.9175V39.432C149.202 37.9266 149.464 36.7429 149.988 35.8811C150.522 35.0084 151.379 34.392 152.557 34.032C153.735 33.672 155.301 33.492 157.253 33.492H161.901C162.762 33.492 163.455 33.6448 163.979 33.9502C164.513 34.2448 164.901 34.6757 165.141 35.2429C165.381 35.8102 165.501 36.492 165.501 37.2884C165.501 37.8557 165.397 38.2866 165.19 38.5811C164.993 38.8647 164.693 39.0066 164.29 39.0066C163.886 39.0066 163.586 38.8647 163.39 38.5811C163.193 38.2866 163.095 37.9157 163.095 37.4684C163.084 36.912 162.986 36.5138 162.801 36.2738C162.626 36.0229 162.239 35.8975 161.639 35.8975H157.253C155.682 35.8975 154.488 35.9793 153.67 36.1429C152.862 36.3066 152.317 36.6502 152.033 37.1738C151.75 37.6866 151.608 38.4666 151.608 39.5138V42.852C151.608 43.8775 151.75 44.652 152.033 45.1757C152.317 45.6884 152.862 46.032 153.67 46.2066C154.488 46.3811 155.682 46.4684 157.253 46.4684H161.639C162.25 46.4684 162.642 46.3538 162.817 46.1247C162.992 45.8847 163.084 45.4811 163.095 44.9138C163.095 44.4338 163.199 44.0575 163.406 43.7847C163.613 43.5011 163.902 43.3593 164.273 43.3593C164.655 43.3593 164.955 43.5011 165.173 43.7847C165.392 44.0575 165.501 44.4884 165.501 45.0775C165.501 45.8957 165.375 46.5884 165.124 47.1557C164.884 47.7229 164.497 48.1538 163.962 48.4484C163.428 48.732 162.73 48.8738 161.868 48.8738H157.253ZM170.111 49.1029C169.751 49.1029 169.462 48.9775 169.244 48.7266C169.037 48.4757 168.933 48.1484 168.933 47.7447V34.6211C168.933 34.1957 169.042 33.8629 169.26 33.6229C169.489 33.3829 169.795 33.2629 170.177 33.2629C170.526 33.2629 170.804 33.3884 171.011 33.6393C171.229 33.8793 171.338 34.2066 171.338 34.6211V39.9557H174.595C174.867 39.9557 175.173 39.7757 175.511 39.4157C175.849 39.0447 176.286 38.4502 176.82 37.632C177.235 36.9993 177.715 36.3448 178.26 35.6684C178.806 34.992 179.515 34.4138 180.387 33.9338C181.249 33.4648 182.198 33.2302 183.235 33.2302C183.715 33.2302 184.097 33.3338 184.38 33.5411C184.664 33.7484 184.806 34.0429 184.806 34.4248C184.806 34.8502 184.664 35.1611 184.38 35.3575C184.097 35.5429 183.726 35.6357 183.267 35.6357C182.635 35.6466 182.046 35.8757 181.5 36.3229C180.966 36.7702 180.36 37.4848 179.684 38.4666C179.422 38.8593 179.187 39.2029 178.98 39.4975C178.773 39.7811 178.582 40.032 178.407 40.2502C178.233 40.4684 178.053 40.6702 177.867 40.8557C178.806 41.2593 179.602 41.7938 180.257 42.4593C180.922 43.1138 181.38 43.7902 181.631 44.4884C181.926 45.2193 182.198 45.7702 182.449 46.1411C182.7 46.5011 182.973 46.6866 183.267 46.6975C183.715 46.6975 184.08 46.8011 184.364 47.0084C184.658 47.2157 184.806 47.5102 184.806 47.892C184.806 48.6993 184.287 49.1029 183.251 49.1029C182.487 49.1029 181.838 48.9557 181.304 48.6611C180.769 48.3666 180.338 47.9575 180.011 47.4338C179.727 47.0193 179.482 46.5938 179.275 46.1575C179.067 45.7102 178.811 45.2629 178.506 44.8157C178.2 44.3575 177.769 43.9157 177.213 43.4902C176.307 42.7375 174.84 42.3611 172.811 42.3611H171.338V47.7775C171.338 48.1811 171.229 48.5029 171.011 48.7429C170.793 48.9829 170.493 49.1029 170.111 49.1029Z" fill="#191919"/>
</g>
<path d="M247.594 28.6479L269.009 7.23242H290.179C298.234 7.23242 304.764 13.7624 304.764 21.8176V42.9874L283.349 64.4028H247.594V28.6479Z" stroke="#191919" stroke-width="1.375"/>
<g filter="url(#filter4_d_817_13288)">
<path d="M273.82 25.0898L284.729 35.9989L273.82 46.908" stroke="#191919" stroke-width="2.5" stroke-linecap="square" stroke-linejoin="round"/>
<path d="M271.635 33.8174L273.817 35.9992L271.635 38.181L269.453 35.9992L271.635 33.8174Z" fill="#191919"/>
<path d="M266.182 33.8174L268.364 35.9992L266.182 38.181L264 35.9992L266.182 33.8174Z" fill="#191919"/>
</g>
<defs>
<filter id="filter0_ddi_817_13288" x="0.500004" y="0.499026" width="317" height="76.6367" filterUnits="userSpaceOnUse" color-interpolation-filters="sRGB">
<feFlood flood-opacity="0" result="BackgroundImageFix"/>
<feColorMatrix in="SourceAlpha" type="matrix" values="0 0 0 0 0 0 0 0 0 0 0 0 0 0 0 0 0 0 127 0" result="hardAlpha"/>
<feOffset dx="-2.5" dy="2.5"/>
<feGaussianBlur stdDeviation="2.5"/>
<feComposite in2="hardAlpha" operator="out"/>
<feColorMatrix type="matrix" values="0 0 0 0 0.0823529 0 0 0 0 0.0823529 0 0 0 0 0.0823529 0 0 0 0.25 0"/>
<feBlend mode="normal" in2="BackgroundImageFix" result="effect1_dropShadow_817_13288"/>
<feColorMatrix in="SourceAlpha" type="matrix" values="0 0 0 0 0 0 0 0 0 0 0 0 0 0 0 0 0 0 127 0" result="hardAlpha"/>
<feOffset dx="3" dy="3"/>
<feGaussianBlur stdDeviation="3.25"/>
<feComposite in2="hardAlpha" operator="out"/>
<feColorMatrix type="matrix" values="0 0 0 0 0.0823529 0 0 0 0 0.0823529 0 0 0 0 0.0823529 0 0 0 0.25 0"/>
<feBlend mode="normal" in2="effect1_dropShadow_817_13288" result="effect2_dropShadow_817_13288"/>
<feBlend mode="normal" in="SourceGraphic" in2="effect2_dropShadow_817_13288" result="shape"/>
<feColorMatrix in="SourceAlpha" type="matrix" values="0 0 0 0 0 0 0 0 0 0 0 0 0 0 0 0 0 0 127 0" result="hardAlpha"/>
<feOffset dx="4" dy="1.5"/>
<feGaussianBlur stdDeviation="1.75"/>
<feComposite in2="hardAlpha" operator="arithmetic" k2="-1" k3="1"/>
<feColorMatrix type="matrix" values="0 0 0 0 0.0823529 0 0 0 0 0.0823529 0 0 0 0 0.0823529 0 0 0 0.5 0"/>
<feBlend mode="normal" in2="shape" result="effect3_innerShadow_817_13288"/>
</filter>
<filter id="filter1_i_817_13288" x="290.547" y="50.1807" width="18.7031" height="18.7041" filterUnits="userSpaceOnUse" color-interpolation-filters="sRGB">
<feFlood flood-opacity="0" result="BackgroundImageFix"/>
<feBlend mode="normal" in="SourceGraphic" in2="BackgroundImageFix" result="shape"/>
<feColorMatrix in="SourceAlpha" type="matrix" values="0 0 0 0 0 0 0 0 0 0 0 0 0 0 0 0 0 0 127 0" result="hardAlpha"/>
<feOffset dx="1.25" dy="1.25"/>
<feGaussianBlur stdDeviation="0.75"/>
<feComposite in2="hardAlpha" operator="arithmetic" k2="-1" k3="1"/>
<feColorMatrix type="matrix" values="0 0 0 0 0.0823529 0 0 0 0 0.0823529 0 0 0 0 0.0823529 0 0 0 0.8 0"/>
<feBlend mode="normal" in2="shape" result="effect1_innerShadow_817_13288"/>
</filter>
<filter id="filter2_i_817_13288" x="8" y="3.99902" width="18.7031" height="18.7041" filterUnits="userSpaceOnUse" color-interpolation-filters="sRGB">
<feFlood flood-opacity="0" result="BackgroundImageFix"/>
<feBlend mode="normal" in="SourceGraphic" in2="BackgroundImageFix" result="shape"/>
<feColorMatrix in="SourceAlpha" type="matrix" values="0 0 0 0 0 0 0 0 0 0 0 0 0 0 0 0 0 0 127 0" result="hardAlpha"/>
<feOffset dx="1.25" dy="1.25"/>
<feGaussianBlur stdDeviation="0.75"/>
<feComposite in2="hardAlpha" operator="arithmetic" k2="-1" k3="1"/>
<feColorMatrix type="matrix" values="0 0 0 0 0.0823529 0 0 0 0 0.0823529 0 0 0 0 0.0823529 0 0 0 0.8 0"/>
<feBlend mode="normal" in2="shape" result="effect1_innerShadow_817_13288"/>
</filter>
<filter id="filter3_d_817_13288" x="70.1563" y="26.7646" width="118.148" height="31.8184" filterUnits="userSpaceOnUse" color-interpolation-filters="sRGB">
<feFlood flood-opacity="0" result="BackgroundImageFix"/>
<feColorMatrix in="SourceAlpha" type="matrix" values="0 0 0 0 0 0 0 0 0 0 0 0 0 0 0 0 0 0 127 0" result="hardAlpha"/>
<feOffset dx="1.5" dy="0.999999"/>
<feGaussianBlur stdDeviation="0.999999"/>
<feComposite in2="hardAlpha" operator="out"/>
<feColorMatrix type="matrix" values="0 0 0 0 0.0823529 0 0 0 0 0.0823529 0 0 0 0 0.0823529 0 0 0 0.5 0"/>
<feBlend mode="normal" in2="BackgroundImageFix" result="effect1_dropShadow_817_13288"/>
<feBlend mode="normal" in="SourceGraphic" in2="effect1_dropShadow_817_13288" result="shape"/>
</filter>
<filter id="filter4_d_817_13288" x="263.5" y="22.3223" width="25.9766" height="29.3535" filterUnits="userSpaceOnUse" color-interpolation-filters="sRGB">
<feFlood flood-opacity="0" result="BackgroundImageFix"/>
<feColorMatrix in="SourceAlpha" type="matrix" values="0 0 0 0 0 0 0 0 0 0 0 0 0 0 0 0 0 0 127 0" result="hardAlpha"/>
<feOffset dx="1.5" dy="0.999999"/>
<feGaussianBlur stdDeviation="0.999999"/>
<feComposite in2="hardAlpha" operator="out"/>
<feColorMatrix type="matrix" values="0 0 0 0 0 0 0 0 0 0 0 0 0 0 0 0 0 0 0.5 0"/>
<feBlend mode="normal" in2="BackgroundImageFix" result="effect1_dropShadow_817_13288"/>
<feBlend mode="normal" in="SourceGraphic" in2="effect1_dropShadow_817_13288" result="shape"/>
</filter>
</defs>
</svg>
