<svg width="412" height="97" viewBox="0 0 412 97" fill="none" xmlns="http://www.w3.org/2000/svg">
<g filter="url(#filter0_ddi_472_3559)">
<path d="M36.5152 4.99902H381.727C394.58 4.99902 405 15.4186 405 28.2718V58.3327L373.485 89.848H28.2728C15.4196 89.848 5 79.4284 5 66.5752V36.5144L36.5152 4.99902Z" fill="#090709" fill-opacity="0.5" shape-rendering="crispEdges"/>
<path d="M5.9697 36.916L36.9168 5.96872H381.727C394.045 5.96872 404.03 15.9542 404.03 28.2718V57.931L373.083 88.8783H28.2728C15.9552 88.8783 5.9697 78.8928 5.9697 66.5752V36.916Z" stroke="white" stroke-opacity="0.25" stroke-width="1.9394" shape-rendering="crispEdges"/>
</g>
<g filter="url(#filter1_i_472_3559)">
<path d="M381.727 89.8461L404.999 66.5732V89.8461H381.727Z" fill="#969696"/>
</g>
<g filter="url(#filter2_i_472_3559)">
<path d="M5 28.2719V18.5749L18.5758 4.99902H28.2727V5.96873L5.9697 28.2719H5Z" fill="#969696"/>
</g>
<path d="M56.6305 64.5926C55.5542 64.5926 55.016 63.9599 55.016 62.6945V37.778C55.016 36.4835 55.5251 35.8362 56.5433 35.8362C57.6633 35.8362 58.2233 36.4835 58.2233 37.778V47.509H73.5397V37.778C73.5397 36.4835 74.0778 35.8362 75.1542 35.8362C76.216 35.8362 76.7469 36.4835 76.7469 37.778V62.6945C76.7469 63.9599 76.216 64.5926 75.1542 64.5926C74.0778 64.5926 73.5397 63.9599 73.5397 62.6945V50.7162H58.2233V62.6945C58.2233 63.9599 57.6923 64.5926 56.6305 64.5926ZM100.081 64.5926C99.7024 64.5926 99.4114 64.4763 99.2078 64.2435C99.0042 64.0108 98.8587 63.5526 98.7714 62.869C98.6987 62.1854 98.6623 61.1744 98.6623 59.8363L99.0987 60.8617C98.2114 62.1126 97.0987 62.9999 95.7605 63.5235C94.4223 64.0326 92.8369 64.2872 91.0041 64.2872H86.946C85.4332 64.2872 84.1969 63.7781 83.2369 62.7599C82.2914 61.7272 81.8187 60.1635 81.8187 58.069C81.8187 56.6435 82.0514 55.4726 82.5168 54.5562C82.9823 53.6253 83.6732 52.8908 84.5896 52.3526C85.5205 51.8144 86.6478 51.4362 87.9714 51.2181C89.3096 50.9853 90.8369 50.869 92.5532 50.869H99.9496L98.5096 52.1999V48.8617C98.5096 48.1344 98.3787 47.6399 98.1169 47.378C97.8696 47.1162 97.3533 46.9853 96.5678 46.9853H90.4151C89.0187 46.9853 87.935 47.0435 87.1641 47.1599C86.3932 47.2617 85.8478 47.4508 85.5278 47.7271C85.2078 47.989 85.0405 48.3453 85.0259 48.7962C84.9823 49.4653 84.8587 49.9599 84.655 50.2799C84.4659 50.5999 84.0514 50.7599 83.4114 50.7599C82.3496 50.7599 81.8187 50.0544 81.8187 48.6435C81.8187 46.9708 82.5096 45.7417 83.8914 44.9562C85.2878 44.1708 87.3605 43.778 90.1096 43.778H96.8733C98.6769 43.778 99.9351 44.2071 100.648 45.0653C101.361 45.9235 101.717 47.429 101.717 49.5817V62.6945C101.717 63.9599 101.171 64.5926 100.081 64.5926ZM87.055 61.2108H91.0041C93.7242 61.2108 95.6587 60.5854 96.8078 59.3344C97.9569 58.0835 98.5242 56.1635 98.5096 53.5744L98.9023 53.9453H92.5532C90.7351 53.9453 89.2732 54.0472 88.1678 54.2508C87.0623 54.4399 86.2623 54.8181 85.7678 55.3853C85.2732 55.9526 85.0259 56.7963 85.0259 57.9163C85.0259 58.9926 85.215 59.8144 85.5932 60.3817C85.9714 60.9344 86.4587 61.2108 87.055 61.2108ZM126.55 64.5926C125.489 64.5926 124.958 63.909 124.958 62.5417V48.2944L109.969 64.2872H106.87V45.4144C106.87 44.1199 107.401 43.4726 108.463 43.4726C109.54 43.4726 110.078 44.1489 110.078 45.5017V59.9235L125.176 43.778H128.165V62.6508C128.165 63.9454 127.627 64.5926 126.55 64.5926ZM115.03 42.5344C113.387 42.5344 112.238 42.1198 111.583 41.2908C110.929 40.4471 110.601 39.0071 110.601 36.9707V35.3126H113.809V37.6689C113.809 38.3817 113.896 38.8398 114.07 39.0435C114.26 39.2326 114.696 39.3271 115.38 39.3271H119.83C120.5 39.3271 120.921 39.2326 121.096 39.0435C121.285 38.8398 121.38 38.3817 121.38 37.6689V35.3126H124.587V36.9707C124.587 39.0362 124.26 40.4835 123.605 41.3126C122.965 42.1271 121.809 42.5344 120.136 42.5344H115.03ZM141.053 64.5926C139.89 64.5926 139.308 64.0035 139.308 62.8254V46.9853H132.915C131.635 46.9853 130.995 46.4471 130.995 45.3708C130.995 44.3089 131.635 43.778 132.915 43.778H149.214C150.479 43.778 151.112 44.3089 151.112 45.3708C151.112 46.4471 150.479 46.9853 149.214 46.9853H142.843V62.8254C142.843 63.3635 142.683 63.7926 142.363 64.1126C142.043 64.4326 141.606 64.5926 141.053 64.5926ZM173.598 64.5926C172.536 64.5926 172.005 63.909 172.005 62.5417V48.2944L157.016 64.2872H153.918V45.4144C153.918 44.1199 154.449 43.4726 155.51 43.4726C156.587 43.4726 157.125 44.1489 157.125 45.5017V59.9235L172.223 43.778H175.212V62.6508C175.212 63.9454 174.674 64.5926 173.598 64.5926Z" fill="white" fill-opacity="0.55"/>
<path d="M324.517 37.8863L353.039 9.36325H381.244C391.955 9.36325 400.638 18.0462 400.638 28.7572V56.9619L372.115 85.4849H324.517V37.8863Z" stroke="white" stroke-opacity="0.25" stroke-width="1.9394"/>
<path d="M359.426 33.1201L373.971 47.6656L359.426 62.2111" stroke="white" stroke-opacity="0.55" stroke-width="2.9091" stroke-linecap="square" stroke-linejoin="round"/>
<path d="M356.518 44.7568L359.428 47.6659L356.518 50.575L353.609 47.6659L356.518 44.7568Z" fill="white" fill-opacity="0.55"/>
<path d="M349.245 44.7568L352.154 47.6659L349.245 50.575L346.336 47.6659L349.245 44.7568Z" fill="white" fill-opacity="0.55"/>
<defs>
<filter id="filter0_ddi_472_3559" x="0.151502" y="0.150525" width="411.152" height="96.0002" filterUnits="userSpaceOnUse" color-interpolation-filters="sRGB">
<feFlood flood-opacity="0" result="BackgroundImageFix"/>
<feColorMatrix in="SourceAlpha" type="matrix" values="0 0 0 0 0 0 0 0 0 0 0 0 0 0 0 0 0 0 127 0" result="hardAlpha"/>
<feOffset dx="-1.45455" dy="-1.45455"/>
<feGaussianBlur stdDeviation="1.69697"/>
<feComposite in2="hardAlpha" operator="out"/>
<feColorMatrix type="matrix" values="0 0 0 0 0.909804 0 0 0 0 0.909804 0 0 0 0 0.909804 0 0 0 0.25 0"/>
<feBlend mode="normal" in2="BackgroundImageFix" result="effect1_dropShadow_472_3559"/>
<feColorMatrix in="SourceAlpha" type="matrix" values="0 0 0 0 0 0 0 0 0 0 0 0 0 0 0 0 0 0 127 0" result="hardAlpha"/>
<feOffset dx="1.9394" dy="1.9394"/>
<feGaussianBlur stdDeviation="2.18182"/>
<feComposite in2="hardAlpha" operator="out"/>
<feColorMatrix type="matrix" values="0 0 0 0 0.909804 0 0 0 0 0.909804 0 0 0 0 0.909804 0 0 0 0.25 0"/>
<feBlend mode="normal" in2="effect1_dropShadow_472_3559" result="effect2_dropShadow_472_3559"/>
<feBlend mode="normal" in="SourceGraphic" in2="effect2_dropShadow_472_3559" result="shape"/>
<feColorMatrix in="SourceAlpha" type="matrix" values="0 0 0 0 0 0 0 0 0 0 0 0 0 0 0 0 0 0 127 0" result="hardAlpha"/>
<feOffset dx="4.8485" dy="1.9394"/>
<feGaussianBlur stdDeviation="2.18182"/>
<feComposite in2="hardAlpha" operator="arithmetic" k2="-1" k3="1"/>
<feColorMatrix type="matrix" values="0 0 0 0 0.909804 0 0 0 0 0.909804 0 0 0 0 0.909804 0 0 0 0.25 0"/>
<feBlend mode="normal" in2="shape" result="effect3_innerShadow_472_3559"/>
</filter>
<filter id="filter1_i_472_3559" x="381.727" y="66.5732" width="25.2128" height="25.2119" filterUnits="userSpaceOnUse" color-interpolation-filters="sRGB">
<feFlood flood-opacity="0" result="BackgroundImageFix"/>
<feBlend mode="normal" in="SourceGraphic" in2="BackgroundImageFix" result="shape"/>
<feColorMatrix in="SourceAlpha" type="matrix" values="0 0 0 0 0 0 0 0 0 0 0 0 0 0 0 0 0 0 127 0" result="hardAlpha"/>
<feOffset dx="1.9394" dy="1.9394"/>
<feGaussianBlur stdDeviation="0.9697"/>
<feComposite in2="hardAlpha" operator="arithmetic" k2="-1" k3="1"/>
<feColorMatrix type="matrix" values="0 0 0 0 0.909804 0 0 0 0 0.909804 0 0 0 0 0.909804 0 0 0 0.5 0"/>
<feBlend mode="normal" in2="shape" result="effect1_innerShadow_472_3559"/>
</filter>
<filter id="filter2_i_472_3559" x="5" y="4.99902" width="25.2128" height="25.2119" filterUnits="userSpaceOnUse" color-interpolation-filters="sRGB">
<feFlood flood-opacity="0" result="BackgroundImageFix"/>
<feBlend mode="normal" in="SourceGraphic" in2="BackgroundImageFix" result="shape"/>
<feColorMatrix in="SourceAlpha" type="matrix" values="0 0 0 0 0 0 0 0 0 0 0 0 0 0 0 0 0 0 127 0" result="hardAlpha"/>
<feOffset dx="1.9394" dy="1.9394"/>
<feGaussianBlur stdDeviation="0.9697"/>
<feComposite in2="hardAlpha" operator="arithmetic" k2="-1" k3="1"/>
<feColorMatrix type="matrix" values="0 0 0 0 0.909804 0 0 0 0 0.909804 0 0 0 0 0.909804 0 0 0 0.5 0"/>
<feBlend mode="normal" in2="shape" result="effect1_innerShadow_472_3559"/>
</filter>
</defs>
</svg>
