<svg width="309" height="73" viewBox="0 0 309 73" fill="none" xmlns="http://www.w3.org/2000/svg">
<g filter="url(#filter0_ddi_817_12776)">
<path d="M27.6364 4H286.545C296.185 4 304 11.8147 304 21.4545V44L280.364 67.6363H21.4546C11.8147 67.6363 4 59.8216 4 50.1818V27.6363L27.6364 4Z" fill="white" fill-opacity="0.1" shape-rendering="crispEdges"/>
<path d="M4.625 27.8952L27.8952 4.625H286.545C295.84 4.625 303.375 12.1598 303.375 21.4545V43.7411L280.105 67.0113H21.4546C12.1599 67.0113 4.625 59.4764 4.625 50.1818V27.8952Z" stroke="white" stroke-opacity="0.55" stroke-width="1.25" shape-rendering="crispEdges"/>
</g>
<g filter="url(#filter1_i_817_12776)">
<path d="M286.547 67.6362L304.001 50.1816V67.6362H286.547Z" fill="#969696"/>
</g>
<g filter="url(#filter2_i_817_12776)">
<path d="M4 21.4545V14.1818L14.1818 4H21.4545V4.72727L4.72727 21.4545H4Z" fill="#969696"/>
</g>
<path d="M44.7855 48.1473C43.4327 48.1473 42.4891 47.8091 41.9545 47.1327C41.42 46.4455 41.1527 45.2564 41.1527 43.5655C41.1527 42.5727 41.5564 42.0764 42.3636 42.0764C43.16 42.0764 43.5582 42.5727 43.5582 43.5655V44.1545C43.5582 44.7873 43.6509 45.2127 43.8364 45.4309C44.0327 45.6382 44.4255 45.7418 45.0145 45.7418H51.0036C51.7782 45.7418 52.4709 45.5673 53.0818 45.2182C53.6927 44.8582 54.1727 44.3891 54.5218 43.8109C54.8709 43.2327 55.0454 42.6055 55.0454 41.9291C55.0454 41.2855 54.8764 40.7018 54.5382 40.1782C54.2109 39.6546 53.7473 39.24 53.1473 38.9346C52.5582 38.6182 51.8873 38.46 51.1345 38.46H48.32C47.2945 38.46 46.7818 38.0618 46.7818 37.2655C46.7818 36.4582 47.2945 36.0546 48.32 36.0546H51.1345C51.9091 36.0546 52.5909 35.9236 53.18 35.6618C53.7691 35.3891 54.2273 35.0182 54.5545 34.5491C54.8818 34.08 55.0454 33.54 55.0454 32.9291C55.0454 32.2855 54.8709 31.7018 54.5218 31.1782C54.1836 30.6436 53.7091 30.2236 53.0982 29.9182C52.4982 29.6018 51.8 29.4436 51.0036 29.4436H45.0145C44.4255 29.4436 44.0327 29.5527 43.8364 29.7709C43.6509 29.9782 43.5582 30.3927 43.5582 31.0146V31.6036C43.5582 32.6073 43.16 33.1091 42.3636 33.1091C41.5564 33.1091 41.1527 32.6073 41.1527 31.6036C41.1527 29.9127 41.42 28.7291 41.9545 28.0527C42.4891 27.3764 43.4327 27.0382 44.7855 27.0382H51.2327C52.4545 27.0382 53.5291 27.2782 54.4564 27.7582C55.3945 28.2273 56.1254 28.8873 56.6491 29.7382C57.1836 30.5891 57.4509 31.5764 57.4509 32.7C57.4509 33.6818 57.26 34.56 56.8782 35.3346C56.5073 36.1091 55.9564 36.7691 55.2254 37.3146C55.9564 37.8927 56.5073 38.5964 56.8782 39.4255C57.26 40.2545 57.4509 41.1655 57.4509 42.1582C57.4509 43.2927 57.1782 44.3127 56.6327 45.2182C56.0982 46.1236 55.3618 46.8382 54.4236 47.3618C53.4854 47.8855 52.4218 48.1473 51.2327 48.1473H44.7855ZM74.3021 48.3764C74.0185 48.3764 73.8003 48.2891 73.6476 48.1145C73.4948 47.94 73.3857 47.5964 73.3203 47.0836C73.2657 46.5709 73.2385 45.8127 73.2385 44.8091L73.5657 45.5782C72.9003 46.5164 72.0657 47.1818 71.0621 47.5745C70.0585 47.9564 68.8694 48.1473 67.4948 48.1473H64.4512C63.3167 48.1473 62.3894 47.7655 61.6694 47.0018C60.9603 46.2273 60.6058 45.0545 60.6058 43.4836C60.6058 42.4145 60.7803 41.5364 61.1294 40.8491C61.4785 40.1509 61.9967 39.6 62.6839 39.1964C63.3821 38.7927 64.2276 38.5091 65.2203 38.3455C66.2239 38.1709 67.3694 38.0836 68.6567 38.0836H74.2039L73.1239 39.0818V36.5782C73.1239 36.0327 73.0257 35.6618 72.8294 35.4655C72.6439 35.2691 72.2567 35.1709 71.6676 35.1709H67.053C66.0058 35.1709 65.193 35.2146 64.6148 35.3018C64.0367 35.3782 63.6276 35.52 63.3876 35.7273C63.1476 35.9236 63.0221 36.1909 63.0112 36.5291C62.9785 37.0309 62.8858 37.4018 62.733 37.6418C62.5912 37.8818 62.2803 38.0018 61.8003 38.0018C61.0039 38.0018 60.6058 37.4727 60.6058 36.4146C60.6058 35.16 61.1239 34.2382 62.1603 33.6491C63.2076 33.06 64.7621 32.7655 66.8239 32.7655H71.8967C73.2494 32.7655 74.193 33.0873 74.7276 33.7309C75.2621 34.3746 75.5294 35.5036 75.5294 37.1182V46.9527C75.5294 47.9018 75.1203 48.3764 74.3021 48.3764ZM64.533 45.84H67.4948C69.5348 45.84 70.9857 45.3709 71.8476 44.4327C72.7094 43.4945 73.1348 42.0545 73.1239 40.1127L73.4185 40.3909H68.6567C67.293 40.3909 66.1967 40.4673 65.3676 40.62C64.5385 40.7618 63.9385 41.0455 63.5676 41.4709C63.1967 41.8964 63.0112 42.5291 63.0112 43.3691C63.0112 44.1764 63.153 44.7927 63.4367 45.2182C63.7203 45.6327 64.0858 45.84 64.533 45.84ZM91.6509 35.1709H83.1582C82.58 35.1709 82.1927 35.2746 81.9963 35.4818C81.8 35.6891 81.7018 36.0982 81.7018 36.7091V46.9527C81.7018 47.9018 81.3036 48.3764 80.5072 48.3764C79.7 48.3764 79.2963 47.9018 79.2963 46.9527V37.1182C79.2963 35.5036 79.5636 34.3746 80.0982 33.7309C80.6327 33.0873 81.5763 32.7655 82.9291 32.7655H91.6509C92.6436 32.7655 93.14 33.1636 93.14 33.96C93.14 34.7673 92.6436 35.1709 91.6509 35.1709ZM96.4089 54.1036C95.6234 54.1036 95.2307 53.6018 95.2307 52.5982V33.96C95.2307 33.0109 95.6398 32.5364 96.4579 32.5364C96.8834 32.5364 97.1834 32.6727 97.3579 32.9455C97.5325 33.2073 97.6198 33.66 97.6198 34.3036V35.5964L97.1943 35.0236C97.8598 34.2382 98.7052 33.6655 99.7307 33.3055C100.756 32.9455 101.945 32.7655 103.298 32.7655H104.247C106.2 32.7655 107.76 32.9509 108.927 33.3218C110.105 33.6818 110.956 34.2982 111.48 35.1709C112.003 36.0327 112.265 37.2109 112.265 38.7055V42.1909C112.265 43.6964 112.003 44.8855 111.48 45.7582C110.956 46.62 110.111 47.2364 108.943 47.6073C107.787 47.9673 106.243 48.1473 104.312 48.1473H97.6361V52.5982C97.6361 53.6018 97.227 54.1036 96.4089 54.1036ZM97.6361 45.7418H104.312C105.862 45.7418 107.034 45.6545 107.831 45.48C108.627 45.3055 109.162 44.9618 109.434 44.4491C109.718 43.9255 109.86 43.1509 109.86 42.1255V38.7873C109.86 37.74 109.712 36.96 109.418 36.4473C109.134 35.9236 108.589 35.58 107.782 35.4164C106.974 35.2527 105.796 35.1709 104.247 35.1709H103.298C101.378 35.1709 99.9543 35.6073 99.027 36.48C98.0998 37.3418 97.6361 38.6509 97.6361 40.4073V45.7418ZM119.234 54.8564C118.372 54.8564 117.674 54.7036 117.14 54.3982C116.616 54.1036 116.234 53.6673 115.994 53.0891C115.754 52.5218 115.634 51.84 115.634 51.0436C115.634 50.4873 115.732 50.0618 115.929 49.7673C116.136 49.4836 116.441 49.3418 116.845 49.3418C117.26 49.3418 117.56 49.4727 117.745 49.7345C117.941 50.0073 118.04 50.3618 118.04 50.7982C118.05 51.3982 118.143 51.8236 118.318 52.0745C118.503 52.3255 118.896 52.4509 119.496 52.4509H129.118C129.609 52.4509 129.92 52.3745 130.05 52.2218C130.192 52.0691 130.263 51.7145 130.263 51.1582V46.4782C128.943 47.5909 127.061 48.1473 124.618 48.1473H123.669C121.727 48.1473 120.161 47.9673 118.972 47.6073C117.794 47.2364 116.943 46.62 116.42 45.7582C115.896 44.8855 115.634 43.6964 115.634 42.1909V33.9764C115.634 33.0164 116.038 32.5364 116.845 32.5364C117.641 32.5364 118.04 33.0164 118.04 33.9764V42.1255C118.04 43.1509 118.181 43.9255 118.465 44.4491C118.749 44.9618 119.294 45.3055 120.101 45.48C120.909 45.6545 122.098 45.7418 123.669 45.7418H124.618C126.494 45.7418 127.901 45.3 128.84 44.4164C129.789 43.5218 130.263 42.1964 130.263 40.44V33.9764C130.263 33.0164 130.667 32.5364 131.474 32.5364C132.27 32.5364 132.669 33.0164 132.669 33.9764V50.6345C132.669 52.1836 132.423 53.2745 131.932 53.9073C131.441 54.54 130.58 54.8564 129.347 54.8564H119.234ZM139.762 48.1473C138.41 48.1473 137.466 47.8091 136.931 47.1327C136.408 46.4455 136.146 45.2564 136.146 43.5655C136.146 42.5727 136.544 42.0764 137.34 42.0764C138.148 42.0764 138.551 42.5727 138.551 43.5655V44.1545C138.551 44.7873 138.644 45.2127 138.83 45.4309C139.026 45.6382 139.413 45.7418 139.991 45.7418H145.98C148.686 45.7418 150.039 45.2073 150.039 44.1382C150.039 43.1673 149.739 42.4691 149.139 42.0436C148.539 41.6182 147.53 41.4055 146.111 41.4055H143.297C142.282 41.4055 141.775 41.0291 141.775 40.2764C141.775 39.4255 142.282 39 143.297 39H146.111C147.126 39 147.917 38.94 148.484 38.82C149.062 38.6891 149.471 38.46 149.711 38.1327C149.951 37.8055 150.071 37.3473 150.071 36.7582C150.071 35.7 148.708 35.1709 145.98 35.1709H139.991C139.413 35.1709 139.026 35.28 138.83 35.4982C138.644 35.7055 138.551 36.12 138.551 36.7418V37.3309C138.551 38.3346 138.148 38.8364 137.34 38.8364C136.544 38.8364 136.146 38.3346 136.146 37.3309C136.146 35.64 136.408 34.4564 136.931 33.78C137.466 33.1036 138.41 32.7655 139.762 32.7655H146.21C148.206 32.7655 149.744 33.1255 150.824 33.8455C151.904 34.5655 152.444 35.6564 152.444 37.1182C152.444 37.9036 152.302 38.5527 152.019 39.0655C151.735 39.5782 151.326 39.9873 150.791 40.2927C151.893 41.1 152.444 42.2509 152.444 43.7455C152.444 45.24 151.904 46.3473 150.824 47.0673C149.744 47.7873 148.206 48.1473 146.21 48.1473H139.762ZM170.798 48.3764C170.001 48.3764 169.603 47.8636 169.603 46.8382V36.1527L158.361 48.1473H156.038V33.9927C156.038 33.0218 156.436 32.5364 157.232 32.5364C158.039 32.5364 158.443 33.0436 158.443 34.0582V44.8745L169.767 32.7655H172.009V46.92C172.009 47.8909 171.605 48.3764 170.798 48.3764ZM181.675 48.3764C180.802 48.3764 180.366 47.9345 180.366 47.0509V35.1709H175.571C174.611 35.1709 174.131 34.7673 174.131 33.96C174.131 33.1636 174.611 32.7655 175.571 32.7655H187.795C188.744 32.7655 189.218 33.1636 189.218 33.96C189.218 34.7673 188.744 35.1709 187.795 35.1709H183.017V47.0509C183.017 47.4545 182.897 47.7764 182.657 48.0164C182.417 48.2564 182.089 48.3764 181.675 48.3764ZM191.323 48.1473V33.9927C191.323 33.0218 191.721 32.5364 192.518 32.5364C193.325 32.5364 193.728 33.0218 193.728 33.9927V39H200.732C201.899 39 202.903 39.1746 203.743 39.5236C204.583 39.8618 205.232 40.3691 205.69 41.0455C206.148 41.7218 206.378 42.5618 206.378 43.5655C206.378 44.5691 206.148 45.4091 205.69 46.0855C205.243 46.7618 204.594 47.2691 203.743 47.6073C202.903 47.9455 201.899 48.1255 200.732 48.1473H191.323ZM193.728 45.7418H200.454C201.458 45.7418 202.292 45.6 202.958 45.3164C203.634 45.0218 203.972 44.4764 203.972 43.68C203.972 43.0255 203.825 42.5345 203.53 42.2073C203.247 41.88 202.838 41.6673 202.303 41.5691C201.779 41.46 201.163 41.4055 200.454 41.4055H193.728V45.7418Z" fill="white" fill-opacity="0.55"/>
<path d="M243.531 28.6229L264.983 7.1709H286.179C294.269 7.1709 300.827 13.7289 300.827 21.8186V43.0142L279.375 64.4663H243.531V28.6229Z" stroke="white" stroke-opacity="0.55" stroke-width="1.25"/>
<path d="M269.82 25.0908L280.729 35.9999L269.82 46.909" stroke="white" stroke-opacity="0.55" stroke-width="2.18182" stroke-linecap="square" stroke-linejoin="round"/>
<path d="M267.635 33.8184L269.817 36.0002L267.635 38.182L265.453 36.0002L267.635 33.8184Z" fill="white" fill-opacity="0.55"/>
<path d="M262.182 33.8184L264.364 36.0002L262.182 38.182L260 36.0002L262.182 33.8184Z" fill="white" fill-opacity="0.55"/>
<defs>
<filter id="filter0_ddi_817_12776" x="0.500002" y="0.500002" width="308.5" height="72.1367" filterUnits="userSpaceOnUse" color-interpolation-filters="sRGB">
<feFlood flood-opacity="0" result="BackgroundImageFix"/>
<feColorMatrix in="SourceAlpha" type="matrix" values="0 0 0 0 0 0 0 0 0 0 0 0 0 0 0 0 0 0 127 0" result="hardAlpha"/>
<feOffset dx="-0.999999" dy="-0.999999"/>
<feGaussianBlur stdDeviation="1.25"/>
<feComposite in2="hardAlpha" operator="out"/>
<feColorMatrix type="matrix" values="0 0 0 0 0.0823529 0 0 0 0 0.0823529 0 0 0 0 0.0823529 0 0 0 0.25 0"/>
<feBlend mode="normal" in2="BackgroundImageFix" result="effect1_dropShadow_817_12776"/>
<feColorMatrix in="SourceAlpha" type="matrix" values="0 0 0 0 0 0 0 0 0 0 0 0 0 0 0 0 0 0 127 0" result="hardAlpha"/>
<feOffset dx="1.5" dy="1.5"/>
<feGaussianBlur stdDeviation="1.75"/>
<feComposite in2="hardAlpha" operator="out"/>
<feColorMatrix type="matrix" values="0 0 0 0 0.0823529 0 0 0 0 0.0823529 0 0 0 0 0.0823529 0 0 0 0.25 0"/>
<feBlend mode="normal" in2="effect1_dropShadow_817_12776" result="effect2_dropShadow_817_12776"/>
<feBlend mode="normal" in="SourceGraphic" in2="effect2_dropShadow_817_12776" result="shape"/>
<feColorMatrix in="SourceAlpha" type="matrix" values="0 0 0 0 0 0 0 0 0 0 0 0 0 0 0 0 0 0 127 0" result="hardAlpha"/>
<feOffset dx="4" dy="1.5"/>
<feGaussianBlur stdDeviation="1.75"/>
<feComposite in2="hardAlpha" operator="arithmetic" k2="-1" k3="1"/>
<feColorMatrix type="matrix" values="0 0 0 0 0.0823529 0 0 0 0 0.0823529 0 0 0 0 0.0823529 0 0 0 0.25 0"/>
<feBlend mode="normal" in2="shape" result="effect3_innerShadow_817_12776"/>
</filter>
<filter id="filter1_i_817_12776" x="286.547" y="50.1816" width="18.9531" height="18.9541" filterUnits="userSpaceOnUse" color-interpolation-filters="sRGB">
<feFlood flood-opacity="0" result="BackgroundImageFix"/>
<feBlend mode="normal" in="SourceGraphic" in2="BackgroundImageFix" result="shape"/>
<feColorMatrix in="SourceAlpha" type="matrix" values="0 0 0 0 0 0 0 0 0 0 0 0 0 0 0 0 0 0 127 0" result="hardAlpha"/>
<feOffset dx="1.5" dy="1.5"/>
<feGaussianBlur stdDeviation="0.75"/>
<feComposite in2="hardAlpha" operator="arithmetic" k2="-1" k3="1"/>
<feColorMatrix type="matrix" values="0 0 0 0 0.0833333 0 0 0 0 0.0833333 0 0 0 0 0.0833333 0 0 0 0.5 0"/>
<feBlend mode="normal" in2="shape" result="effect1_innerShadow_817_12776"/>
</filter>
<filter id="filter2_i_817_12776" x="4" y="4" width="18.9531" height="18.9541" filterUnits="userSpaceOnUse" color-interpolation-filters="sRGB">
<feFlood flood-opacity="0" result="BackgroundImageFix"/>
<feBlend mode="normal" in="SourceGraphic" in2="BackgroundImageFix" result="shape"/>
<feColorMatrix in="SourceAlpha" type="matrix" values="0 0 0 0 0 0 0 0 0 0 0 0 0 0 0 0 0 0 127 0" result="hardAlpha"/>
<feOffset dx="1.5" dy="1.5"/>
<feGaussianBlur stdDeviation="0.75"/>
<feComposite in2="hardAlpha" operator="arithmetic" k2="-1" k3="1"/>
<feColorMatrix type="matrix" values="0 0 0 0 0.0833333 0 0 0 0 0.0833333 0 0 0 0 0.0833333 0 0 0 0.5 0"/>
<feBlend mode="normal" in2="shape" result="effect1_innerShadow_817_12776"/>
</filter>
</defs>
</svg>
