<svg width="318" height="78" viewBox="0 0 318 78" fill="none" xmlns="http://www.w3.org/2000/svg">
<g filter="url(#filter0_ddi_817_12776)">
<path d="M31.6364 3.99902H290.545C300.185 3.99902 308 11.8137 308 21.4536V43.999L284.364 67.6353H25.4546C15.8147 67.6353 8 59.8206 8 50.1808V27.6354L31.6364 3.99902Z" fill="white" fill-opacity="0.85" shape-rendering="crispEdges"/>
<path d="M8.6875 27.9201L31.9211 4.68652H290.545C299.806 4.68652 307.312 12.1934 307.312 21.4536V43.7142L284.079 66.9478H25.4546C16.1944 66.9478 8.6875 59.441 8.6875 50.1808V27.9201Z" stroke="#191919" stroke-width="1.375" shape-rendering="crispEdges"/>
</g>
<g filter="url(#filter1_i_817_12776)">
<path d="M290.547 67.6352L308.001 50.1807V67.6352H290.547Z" fill="#DCDCDC"/>
</g>
<g filter="url(#filter2_i_817_12776)">
<path d="M8 21.4535V14.1808L18.1818 3.99902H25.4545V4.7263L8.72727 21.4535H8Z" fill="#DCDCDC"/>
</g>
<g filter="url(#filter3_d_817_12776)">
<path d="M48.7855 48.8738C47.4327 48.8738 46.4891 48.5357 45.9545 47.8593C45.42 47.172 45.1527 45.9829 45.1527 44.292C45.1527 43.2993 45.5564 42.8029 46.3636 42.8029C47.16 42.8029 47.5582 43.2993 47.5582 44.292V44.8811C47.5582 45.5138 47.6509 45.9393 47.8364 46.1575C48.0327 46.3647 48.4255 46.4684 49.0145 46.4684H55.0036C55.7782 46.4684 56.4709 46.2938 57.0818 45.9447C57.6927 45.5847 58.1727 45.1157 58.5218 44.5375C58.8709 43.9593 59.0454 43.332 59.0454 42.6557C59.0454 42.012 58.8764 41.4284 58.5382 40.9047C58.2109 40.3811 57.7473 39.9666 57.1473 39.6611C56.5582 39.3447 55.8873 39.1866 55.1345 39.1866H52.32C51.2945 39.1866 50.7818 38.7884 50.7818 37.992C50.7818 37.1848 51.2945 36.7811 52.32 36.7811H55.1345C55.9091 36.7811 56.5909 36.6502 57.18 36.3884C57.7691 36.1157 58.2273 35.7448 58.5545 35.2757C58.8818 34.8066 59.0454 34.2666 59.0454 33.6557C59.0454 33.012 58.8709 32.4284 58.5218 31.9048C58.1836 31.3702 57.7091 30.9502 57.0982 30.6448C56.4982 30.3284 55.8 30.1702 55.0036 30.1702H49.0145C48.4255 30.1702 48.0327 30.2793 47.8364 30.4975C47.6509 30.7048 47.5582 31.1193 47.5582 31.7411V32.3302C47.5582 33.3338 47.16 33.8357 46.3636 33.8357C45.5564 33.8357 45.1527 33.3338 45.1527 32.3302C45.1527 30.6393 45.42 29.4557 45.9545 28.7793C46.4891 28.1029 47.4327 27.7648 48.7855 27.7648H55.2327C56.4545 27.7648 57.5291 28.0048 58.4564 28.4848C59.3945 28.9538 60.1254 29.6138 60.6491 30.4648C61.1836 31.3157 61.4509 32.3029 61.4509 33.4266C61.4509 34.4084 61.26 35.2866 60.8782 36.0611C60.5073 36.8357 59.9564 37.4957 59.2254 38.0411C59.9564 38.6193 60.5073 39.3229 60.8782 40.152C61.26 40.9811 61.4509 41.892 61.4509 42.8847C61.4509 44.0193 61.1782 45.0393 60.6327 45.9447C60.0982 46.8502 59.3618 47.5647 58.4236 48.0884C57.4854 48.612 56.4218 48.8738 55.2327 48.8738H48.7855ZM78.3021 49.1029C78.0185 49.1029 77.8003 49.0157 77.6476 48.8411C77.4948 48.6666 77.3857 48.3229 77.3203 47.8102C77.2657 47.2975 77.2385 46.5393 77.2385 45.5357L77.5657 46.3047C76.9003 47.2429 76.0657 47.9084 75.0621 48.3011C74.0585 48.6829 72.8694 48.8738 71.4948 48.8738H68.4512C67.3167 48.8738 66.3894 48.492 65.6694 47.7284C64.9603 46.9538 64.6058 45.7811 64.6058 44.2102C64.6058 43.1411 64.7803 42.2629 65.1294 41.5757C65.4785 40.8775 65.9967 40.3266 66.6839 39.9229C67.3821 39.5193 68.2276 39.2357 69.2203 39.072C70.2239 38.8975 71.3694 38.8102 72.6567 38.8102H78.2039L77.1239 39.8084V37.3048C77.1239 36.7593 77.0257 36.3884 76.8294 36.192C76.6439 35.9957 76.2567 35.8975 75.6676 35.8975H71.053C70.0058 35.8975 69.193 35.9411 68.6148 36.0284C68.0367 36.1048 67.6276 36.2466 67.3876 36.4538C67.1476 36.6502 67.0221 36.9175 67.0112 37.2557C66.9785 37.7575 66.8858 38.1284 66.733 38.3684C66.5912 38.6084 66.2803 38.7284 65.8003 38.7284C65.0039 38.7284 64.6058 38.1993 64.6058 37.1411C64.6058 35.8866 65.1239 34.9648 66.1603 34.3757C67.2076 33.7866 68.7621 33.492 70.8239 33.492H75.8967C77.2494 33.492 78.193 33.8138 78.7276 34.4575C79.2621 35.1011 79.5294 36.2302 79.5294 37.8448V47.6793C79.5294 48.6284 79.1203 49.1029 78.3021 49.1029ZM68.533 46.5666H71.4948C73.5348 46.5666 74.9857 46.0975 75.8476 45.1593C76.7094 44.2211 77.1348 42.7811 77.1239 40.8393L77.4185 41.1175H72.6567C71.293 41.1175 70.1967 41.1938 69.3676 41.3466C68.5385 41.4884 67.9385 41.772 67.5676 42.1975C67.1967 42.6229 67.0112 43.2557 67.0112 44.0957C67.0112 44.9029 67.153 45.5193 67.4367 45.9447C67.7203 46.3593 68.0858 46.5666 68.533 46.5666ZM95.6509 35.8975H87.1582C86.58 35.8975 86.1927 36.0011 85.9963 36.2084C85.8 36.4157 85.7018 36.8248 85.7018 37.4357V47.6793C85.7018 48.6284 85.3036 49.1029 84.5072 49.1029C83.7 49.1029 83.2963 48.6284 83.2963 47.6793V37.8448C83.2963 36.2302 83.5636 35.1011 84.0982 34.4575C84.6327 33.8138 85.5763 33.492 86.9291 33.492H95.6509C96.6436 33.492 97.14 33.8902 97.14 34.6866C97.14 35.4938 96.6436 35.8975 95.6509 35.8975ZM100.409 54.8302C99.6234 54.8302 99.2307 54.3284 99.2307 53.3247V34.6866C99.2307 33.7375 99.6398 33.2629 100.458 33.2629C100.883 33.2629 101.183 33.3993 101.358 33.672C101.532 33.9338 101.62 34.3866 101.62 35.0302V36.3229L101.194 35.7502C101.86 34.9648 102.705 34.392 103.731 34.032C104.756 33.672 105.945 33.492 107.298 33.492H108.247C110.2 33.492 111.76 33.6775 112.927 34.0484C114.105 34.4084 114.956 35.0248 115.48 35.8975C116.003 36.7593 116.265 37.9375 116.265 39.432V42.9175C116.265 44.4229 116.003 45.612 115.48 46.4847C114.956 47.3466 114.111 47.9629 112.943 48.3338C111.787 48.6938 110.243 48.8738 108.312 48.8738H101.636V53.3247C101.636 54.3284 101.227 54.8302 100.409 54.8302ZM101.636 46.4684H108.312C109.862 46.4684 111.034 46.3811 111.831 46.2066C112.627 46.032 113.162 45.6884 113.434 45.1757C113.718 44.652 113.86 43.8775 113.86 42.852V39.5138C113.86 38.4666 113.712 37.6866 113.418 37.1738C113.134 36.6502 112.589 36.3066 111.782 36.1429C110.974 35.9793 109.796 35.8975 108.247 35.8975H107.298C105.378 35.8975 103.954 36.3338 103.027 37.2066C102.1 38.0684 101.636 39.3775 101.636 41.1338V46.4684ZM123.234 55.5829C122.372 55.5829 121.674 55.4302 121.14 55.1247C120.616 54.8302 120.234 54.3938 119.994 53.8157C119.754 53.2484 119.634 52.5666 119.634 51.7702C119.634 51.2138 119.732 50.7884 119.929 50.4938C120.136 50.2102 120.441 50.0684 120.845 50.0684C121.26 50.0684 121.56 50.1993 121.745 50.4611C121.941 50.7338 122.04 51.0884 122.04 51.5247C122.05 52.1247 122.143 52.5502 122.318 52.8011C122.503 53.052 122.896 53.1775 123.496 53.1775H133.118C133.609 53.1775 133.92 53.1011 134.05 52.9484C134.192 52.7957 134.263 52.4411 134.263 51.8847V47.2047C132.943 48.3175 131.061 48.8738 128.618 48.8738H127.669C125.727 48.8738 124.161 48.6938 122.972 48.3338C121.794 47.9629 120.943 47.3466 120.42 46.4847C119.896 45.612 119.634 44.4229 119.634 42.9175V34.7029C119.634 33.7429 120.038 33.2629 120.845 33.2629C121.641 33.2629 122.04 33.7429 122.04 34.7029V42.852C122.04 43.8775 122.181 44.652 122.465 45.1757C122.749 45.6884 123.294 46.032 124.101 46.2066C124.909 46.3811 126.098 46.4684 127.669 46.4684H128.618C130.494 46.4684 131.901 46.0266 132.84 45.1429C133.789 44.2484 134.263 42.9229 134.263 41.1666V34.7029C134.263 33.7429 134.667 33.2629 135.474 33.2629C136.27 33.2629 136.669 33.7429 136.669 34.7029V51.3611C136.669 52.9102 136.423 54.0011 135.932 54.6338C135.441 55.2666 134.58 55.5829 133.347 55.5829H123.234ZM143.762 48.8738C142.41 48.8738 141.466 48.5357 140.931 47.8593C140.408 47.172 140.146 45.9829 140.146 44.292C140.146 43.2993 140.544 42.8029 141.34 42.8029C142.148 42.8029 142.551 43.2993 142.551 44.292V44.8811C142.551 45.5138 142.644 45.9393 142.83 46.1575C143.026 46.3647 143.413 46.4684 143.991 46.4684H149.98C152.686 46.4684 154.039 45.9338 154.039 44.8647C154.039 43.8938 153.739 43.1957 153.139 42.7702C152.539 42.3447 151.53 42.132 150.111 42.132H147.297C146.282 42.132 145.775 41.7557 145.775 41.0029C145.775 40.152 146.282 39.7266 147.297 39.7266H150.111C151.126 39.7266 151.917 39.6666 152.484 39.5466C153.062 39.4157 153.471 39.1866 153.711 38.8593C153.951 38.532 154.071 38.0738 154.071 37.4848C154.071 36.4266 152.708 35.8975 149.98 35.8975H143.991C143.413 35.8975 143.026 36.0066 142.83 36.2248C142.644 36.432 142.551 36.8466 142.551 37.4684V38.0575C142.551 39.0611 142.148 39.5629 141.34 39.5629C140.544 39.5629 140.146 39.0611 140.146 38.0575C140.146 36.3666 140.408 35.1829 140.931 34.5066C141.466 33.8302 142.41 33.492 143.762 33.492H150.21C152.206 33.492 153.744 33.852 154.824 34.572C155.904 35.292 156.444 36.3829 156.444 37.8448C156.444 38.6302 156.302 39.2793 156.019 39.792C155.735 40.3047 155.326 40.7138 154.791 41.0193C155.893 41.8266 156.444 42.9775 156.444 44.472C156.444 45.9666 155.904 47.0738 154.824 47.7938C153.744 48.5138 152.206 48.8738 150.21 48.8738H143.762ZM174.798 49.1029C174.001 49.1029 173.603 48.5902 173.603 47.5647V36.8793L162.361 48.8738H160.038V34.7193C160.038 33.7484 160.436 33.2629 161.232 33.2629C162.039 33.2629 162.443 33.7702 162.443 34.7848V45.6011L173.767 33.492H176.009V47.6466C176.009 48.6175 175.605 49.1029 174.798 49.1029ZM185.675 49.1029C184.802 49.1029 184.366 48.6611 184.366 47.7775V35.8975H179.571C178.611 35.8975 178.131 35.4938 178.131 34.6866C178.131 33.8902 178.611 33.492 179.571 33.492H191.795C192.744 33.492 193.218 33.8902 193.218 34.6866C193.218 35.4938 192.744 35.8975 191.795 35.8975H187.017V47.7775C187.017 48.1811 186.897 48.5029 186.657 48.7429C186.417 48.9829 186.089 49.1029 185.675 49.1029ZM195.323 48.8738V34.7193C195.323 33.7484 195.721 33.2629 196.518 33.2629C197.325 33.2629 197.728 33.7484 197.728 34.7193V39.7266H204.732C205.899 39.7266 206.903 39.9011 207.743 40.2502C208.583 40.5884 209.232 41.0957 209.69 41.772C210.148 42.4484 210.378 43.2884 210.378 44.292C210.378 45.2957 210.148 46.1357 209.69 46.812C209.243 47.4884 208.594 47.9957 207.743 48.3338C206.903 48.672 205.899 48.852 204.732 48.8738H195.323ZM197.728 46.4684H204.454C205.458 46.4684 206.292 46.3266 206.958 46.0429C207.634 45.7484 207.972 45.2029 207.972 44.4066C207.972 43.752 207.825 43.2611 207.53 42.9338C207.247 42.6066 206.838 42.3938 206.303 42.2957C205.779 42.1866 205.163 42.132 204.454 42.132H197.728V46.4684Z" fill="#191919"/>
</g>
<path d="M247.594 28.6479L269.009 7.23242H290.179C298.234 7.23242 304.764 13.7624 304.764 21.8176V42.9874L283.349 64.4028H247.594V28.6479Z" stroke="#191919" stroke-width="1.375"/>
<g filter="url(#filter4_d_817_12776)">
<path d="M273.82 25.0898L284.729 35.9989L273.82 46.908" stroke="#191919" stroke-width="2.5" stroke-linecap="square" stroke-linejoin="round"/>
<path d="M271.635 33.8174L273.817 35.9992L271.635 38.181L269.453 35.9992L271.635 33.8174Z" fill="#191919"/>
<path d="M266.182 33.8174L268.364 35.9992L266.182 38.181L264 35.9992L266.182 33.8174Z" fill="#191919"/>
</g>
<defs>
<filter id="filter0_ddi_817_12776" x="0.500004" y="0.499026" width="317" height="76.6367" filterUnits="userSpaceOnUse" color-interpolation-filters="sRGB">
<feFlood flood-opacity="0" result="BackgroundImageFix"/>
<feColorMatrix in="SourceAlpha" type="matrix" values="0 0 0 0 0 0 0 0 0 0 0 0 0 0 0 0 0 0 127 0" result="hardAlpha"/>
<feOffset dx="-2.5" dy="2.5"/>
<feGaussianBlur stdDeviation="2.5"/>
<feComposite in2="hardAlpha" operator="out"/>
<feColorMatrix type="matrix" values="0 0 0 0 0.0823529 0 0 0 0 0.0823529 0 0 0 0 0.0823529 0 0 0 0.25 0"/>
<feBlend mode="normal" in2="BackgroundImageFix" result="effect1_dropShadow_817_12776"/>
<feColorMatrix in="SourceAlpha" type="matrix" values="0 0 0 0 0 0 0 0 0 0 0 0 0 0 0 0 0 0 127 0" result="hardAlpha"/>
<feOffset dx="3" dy="3"/>
<feGaussianBlur stdDeviation="3.25"/>
<feComposite in2="hardAlpha" operator="out"/>
<feColorMatrix type="matrix" values="0 0 0 0 0.0823529 0 0 0 0 0.0823529 0 0 0 0 0.0823529 0 0 0 0.25 0"/>
<feBlend mode="normal" in2="effect1_dropShadow_817_12776" result="effect2_dropShadow_817_12776"/>
<feBlend mode="normal" in="SourceGraphic" in2="effect2_dropShadow_817_12776" result="shape"/>
<feColorMatrix in="SourceAlpha" type="matrix" values="0 0 0 0 0 0 0 0 0 0 0 0 0 0 0 0 0 0 127 0" result="hardAlpha"/>
<feOffset dx="4" dy="1.5"/>
<feGaussianBlur stdDeviation="1.75"/>
<feComposite in2="hardAlpha" operator="arithmetic" k2="-1" k3="1"/>
<feColorMatrix type="matrix" values="0 0 0 0 0.0823529 0 0 0 0 0.0823529 0 0 0 0 0.0823529 0 0 0 0.5 0"/>
<feBlend mode="normal" in2="shape" result="effect3_innerShadow_817_12776"/>
</filter>
<filter id="filter1_i_817_12776" x="290.547" y="50.1807" width="18.7031" height="18.7041" filterUnits="userSpaceOnUse" color-interpolation-filters="sRGB">
<feFlood flood-opacity="0" result="BackgroundImageFix"/>
<feBlend mode="normal" in="SourceGraphic" in2="BackgroundImageFix" result="shape"/>
<feColorMatrix in="SourceAlpha" type="matrix" values="0 0 0 0 0 0 0 0 0 0 0 0 0 0 0 0 0 0 127 0" result="hardAlpha"/>
<feOffset dx="1.25" dy="1.25"/>
<feGaussianBlur stdDeviation="0.75"/>
<feComposite in2="hardAlpha" operator="arithmetic" k2="-1" k3="1"/>
<feColorMatrix type="matrix" values="0 0 0 0 0.0823529 0 0 0 0 0.0823529 0 0 0 0 0.0823529 0 0 0 0.8 0"/>
<feBlend mode="normal" in2="shape" result="effect1_innerShadow_817_12776"/>
</filter>
<filter id="filter2_i_817_12776" x="8" y="3.99902" width="18.7031" height="18.7041" filterUnits="userSpaceOnUse" color-interpolation-filters="sRGB">
<feFlood flood-opacity="0" result="BackgroundImageFix"/>
<feBlend mode="normal" in="SourceGraphic" in2="BackgroundImageFix" result="shape"/>
<feColorMatrix in="SourceAlpha" type="matrix" values="0 0 0 0 0 0 0 0 0 0 0 0 0 0 0 0 0 0 127 0" result="hardAlpha"/>
<feOffset dx="1.25" dy="1.25"/>
<feGaussianBlur stdDeviation="0.75"/>
<feComposite in2="hardAlpha" operator="arithmetic" k2="-1" k3="1"/>
<feColorMatrix type="matrix" values="0 0 0 0 0.0823529 0 0 0 0 0.0823529 0 0 0 0 0.0823529 0 0 0 0.8 0"/>
<feBlend mode="normal" in2="shape" result="effect1_innerShadow_817_12776"/>
</filter>
<filter id="filter3_d_817_12776" x="44.6563" y="26.7646" width="169.219" height="31.8184" filterUnits="userSpaceOnUse" color-interpolation-filters="sRGB">
<feFlood flood-opacity="0" result="BackgroundImageFix"/>
<feColorMatrix in="SourceAlpha" type="matrix" values="0 0 0 0 0 0 0 0 0 0 0 0 0 0 0 0 0 0 127 0" result="hardAlpha"/>
<feOffset dx="1.5" dy="0.999999"/>
<feGaussianBlur stdDeviation="0.999999"/>
<feComposite in2="hardAlpha" operator="out"/>
<feColorMatrix type="matrix" values="0 0 0 0 0.0823529 0 0 0 0 0.0823529 0 0 0 0 0.0823529 0 0 0 0.5 0"/>
<feBlend mode="normal" in2="BackgroundImageFix" result="effect1_dropShadow_817_12776"/>
<feBlend mode="normal" in="SourceGraphic" in2="effect1_dropShadow_817_12776" result="shape"/>
</filter>
<filter id="filter4_d_817_12776" x="263.5" y="22.3223" width="25.9766" height="29.3535" filterUnits="userSpaceOnUse" color-interpolation-filters="sRGB">
<feFlood flood-opacity="0" result="BackgroundImageFix"/>
<feColorMatrix in="SourceAlpha" type="matrix" values="0 0 0 0 0 0 0 0 0 0 0 0 0 0 0 0 0 0 127 0" result="hardAlpha"/>
<feOffset dx="1.5" dy="0.999999"/>
<feGaussianBlur stdDeviation="0.999999"/>
<feComposite in2="hardAlpha" operator="out"/>
<feColorMatrix type="matrix" values="0 0 0 0 0 0 0 0 0 0 0 0 0 0 0 0 0 0 0.5 0"/>
<feBlend mode="normal" in2="BackgroundImageFix" result="effect1_dropShadow_817_12776"/>
<feBlend mode="normal" in="SourceGraphic" in2="effect1_dropShadow_817_12776" result="shape"/>
</filter>
</defs>
</svg>
