<svg width="24" height="24" viewBox="0 0 24 24" fill="none" xmlns="http://www.w3.org/2000/svg">
<path d="M11.6265 7.22161C10.7505 7.22161 9.3945 6.22561 7.9665 6.26161C6.0825 6.28561 4.3545 7.35361 3.3825 9.04561C1.4265 12.4416 2.8785 17.4576 4.7865 20.2176C5.7225 21.5616 6.8265 23.0736 8.2905 23.0256C9.6945 22.9656 10.2225 22.1136 11.9265 22.1136C13.6185 22.1136 14.0985 23.0256 15.5865 22.9896C17.0985 22.9656 18.0585 21.6216 18.9825 20.2656C20.0505 18.7056 20.4945 17.1936 20.5185 17.1096C20.4825 17.0976 17.5785 15.9816 17.5425 12.6216C17.5185 9.81361 19.8345 8.46961 19.9425 8.40961C18.6225 6.47761 16.5945 6.26161 15.8865 6.21361C14.0385 6.06961 12.4905 7.22161 11.6265 7.22161ZM14.7465 4.38961C15.5265 3.45361 16.0425 2.14561 15.8985 0.849609C14.7825 0.897609 13.4385 1.59361 12.6345 2.52961C11.9145 3.35761 11.2905 4.68961 11.4585 5.96161C12.6945 6.05761 13.9665 5.32561 14.7465 4.38961Z" fill="#191919"/>
</svg>
