<svg width="232" height="48" viewBox="0 0 232 48" fill="none" xmlns="http://www.w3.org/2000/svg">
<g id="Navmenu">
<path id="Rectangle 11" d="M0 0H232V36L220 48H0V0Z" fill="#191919"/>
<path id="&#208;&#151;&#208;&#176;&#208;&#179;&#209;&#128;&#209;&#131;&#208;&#183;&#208;&#184;&#209;&#130;&#209;&#140;" d="M32.456 32.084C30.8973 32.084 29.6373 31.9347 28.676 31.636C27.724 31.328 27.024 30.8053 26.576 30.068C26.1373 29.3213 25.918 28.29 25.918 26.974V19.218C25.918 17.9113 26.1327 16.8893 26.562 16.152C27.0007 15.4053 27.682 14.878 28.606 14.57C29.53 14.262 30.7293 14.108 32.204 14.108H36.404C37.1693 14.108 37.7667 14.2433 38.196 14.514C38.6253 14.7753 38.924 15.1347 39.092 15.592C39.2693 16.0493 39.358 16.5627 39.358 17.132C39.358 18.0653 39.064 18.532 38.476 18.532C38.168 18.532 37.9487 18.4293 37.818 18.224C37.6873 18.0093 37.6127 17.7153 37.594 17.342C37.5847 16.8193 37.4913 16.446 37.314 16.222C37.146 15.9887 36.7773 15.872 36.208 15.872H32.204C31.0187 15.872 30.0993 15.9513 29.446 16.11C28.7927 16.2593 28.3353 16.5767 28.074 17.062C27.8127 17.5473 27.682 18.2753 27.682 19.246V26.946C27.682 27.898 27.8127 28.6167 28.074 29.102C28.3353 29.578 28.8113 29.9 29.502 30.068C30.1927 30.236 31.1773 30.32 32.456 30.32H36.208C36.7773 30.32 37.146 30.208 37.314 29.984C37.4913 29.7507 37.5847 29.3727 37.594 28.85C37.622 28.43 37.7107 28.1267 37.86 27.94C38.0187 27.7533 38.224 27.66 38.476 27.66C38.7653 27.66 38.9847 27.7673 39.134 27.982C39.2833 28.1873 39.358 28.5047 39.358 28.934C39.358 29.5593 39.2693 30.11 39.092 30.586C38.924 31.0527 38.6253 31.4213 38.196 31.692C37.7667 31.9533 37.1693 32.084 36.404 32.084H32.456ZM43.1818 32.28C42.5938 32.28 42.2998 31.916 42.2998 31.188V19.008H55.4598V31.188C55.4598 31.916 55.1658 32.28 54.5778 32.28C53.9898 32.28 53.6958 31.916 53.6958 31.188V20.772H44.0638V31.188C44.0638 31.916 43.7698 32.28 43.1818 32.28ZM59.793 37.18C59.2236 37.18 58.939 36.802 58.939 36.046V19.904C58.939 19.176 59.2376 18.812 59.835 18.812C60.143 18.812 60.3623 18.9147 60.493 19.12C60.6236 19.316 60.689 19.6427 60.689 20.1V21.472L60.381 21.066C60.941 20.3567 61.6456 19.8387 62.495 19.512C63.3536 19.176 64.3476 19.008 65.477 19.008H66.289C67.8383 19.008 69.089 19.1573 70.041 19.456C71.0023 19.7547 71.7023 20.268 72.141 20.996C72.5796 21.724 72.799 22.7367 72.799 24.034V27.058C72.799 28.346 72.5796 29.3587 72.141 30.096C71.7023 30.824 71.007 31.3373 70.055 31.636C69.1123 31.9347 67.871 32.084 66.331 32.084H60.703V36.046C60.703 36.802 60.3996 37.18 59.793 37.18ZM60.703 30.32H66.331C67.6096 30.32 68.585 30.2407 69.257 30.082C69.9383 29.914 70.405 29.592 70.657 29.116C70.909 28.64 71.035 27.94 71.035 27.016V24.076C71.035 23.1053 70.8996 22.3867 70.629 21.92C70.3676 21.4533 69.8916 21.1453 69.201 20.996C68.5196 20.8467 67.549 20.772 66.289 20.772H65.477C63.8903 20.772 62.6956 21.1687 61.893 21.962C61.0996 22.7553 60.703 23.936 60.703 25.504V30.32ZM82.0663 32.084C80.517 32.084 79.2616 31.9347 78.3003 31.636C77.339 31.3373 76.6343 30.824 76.1863 30.096C75.7476 29.368 75.5283 28.3553 75.5283 27.058V24.034C75.5283 22.7367 75.7476 21.724 76.1863 20.996C76.6343 20.2587 77.339 19.7453 78.3003 19.456C79.2616 19.1573 80.517 19.008 82.0663 19.008H82.8783C84.4276 19.008 85.6783 19.1573 86.6303 19.456C87.5916 19.7547 88.2916 20.268 88.7303 20.996C89.169 21.724 89.3883 22.7367 89.3883 24.034V27.058C89.3883 28.346 89.169 29.3587 88.7303 30.096C88.2916 30.824 87.5916 31.3373 86.6303 31.636C85.6783 31.9347 84.4276 32.084 82.8783 32.084H82.0663ZM82.0663 30.32H82.8783C84.1663 30.32 85.151 30.2407 85.8323 30.082C86.5136 29.914 86.9803 29.592 87.2323 29.116C87.4936 28.64 87.6243 27.94 87.6243 27.016V24.076C87.6243 23.1053 87.489 22.3867 87.2183 21.92C86.957 21.4533 86.481 21.1453 85.7903 20.996C85.109 20.8467 84.1383 20.772 82.8783 20.772H82.0663C80.797 20.772 79.817 20.8467 79.1263 20.996C78.4356 21.1453 77.955 21.458 77.6843 21.934C77.423 22.4007 77.2923 23.1147 77.2923 24.076V27.016C77.2923 27.9493 77.423 28.654 77.6843 29.13C77.9456 29.5967 78.417 29.914 79.0983 30.082C79.789 30.2407 80.7783 30.32 82.0663 30.32ZM98.6508 32.084C97.1015 32.084 95.8462 31.9347 94.8848 31.636C93.9235 31.3373 93.2188 30.824 92.7708 30.096C92.3322 29.368 92.1128 28.3553 92.1128 27.058V24.034C92.1128 22.7367 92.3322 21.724 92.7708 20.996C93.2188 20.2587 93.9235 19.7453 94.8848 19.456C95.8462 19.1573 97.1015 19.008 98.6508 19.008H102.655C103.392 19.008 103.971 19.1433 104.391 19.414C104.82 19.6753 105.119 20.0393 105.287 20.506C105.464 20.9633 105.553 21.486 105.553 22.074C105.553 22.5313 105.478 22.872 105.329 23.096C105.189 23.32 104.97 23.432 104.671 23.432C104.354 23.432 104.125 23.3153 103.985 23.082C103.854 22.8393 103.789 22.564 103.789 22.256C103.789 21.7707 103.705 21.402 103.537 21.15C103.369 20.898 102.991 20.772 102.403 20.772H98.6508C97.3815 20.772 96.4015 20.8467 95.7108 20.996C95.0202 21.1453 94.5395 21.458 94.2688 21.934C94.0075 22.4007 93.8768 23.1147 93.8768 24.076V27.016C93.8768 27.9493 94.0075 28.654 94.2688 29.13C94.5302 29.5967 95.0015 29.914 95.6828 30.082C96.3735 30.2407 97.3628 30.32 98.6508 30.32H102.403C103 30.32 103.374 30.1987 103.523 29.956C103.682 29.7133 103.77 29.3447 103.789 28.85C103.808 28.4487 103.892 28.15 104.041 27.954C104.19 27.758 104.4 27.66 104.671 27.66C104.951 27.66 105.166 27.7673 105.315 27.982C105.474 28.1967 105.553 28.542 105.553 29.018C105.553 29.6433 105.46 30.1847 105.273 30.642C105.086 31.0993 104.778 31.454 104.349 31.706C103.92 31.958 103.336 32.084 102.599 32.084H98.6508ZM120.848 32.28C120.26 32.28 119.966 31.8927 119.966 31.118V21.486L110.362 32.084H108.57V19.932C108.57 19.1853 108.864 18.812 109.452 18.812C110.04 18.812 110.334 19.1993 110.334 19.974V29.718L120.036 19.008H121.73V31.16C121.73 31.9067 121.436 32.28 120.848 32.28ZM129.773 32.28C129.148 32.28 128.835 31.944 128.835 31.272V20.772H124.649C123.93 20.772 123.571 20.478 123.571 19.89C123.571 19.302 123.93 19.008 124.649 19.008H134.897C135.616 19.008 135.975 19.302 135.975 19.89C135.975 20.478 135.616 20.772 134.897 20.772H130.739V31.272C130.739 31.5893 130.655 31.8367 130.487 32.014C130.319 32.1913 130.081 32.28 129.773 32.28ZM137.829 32.084V19.932C137.829 19.1853 138.123 18.812 138.711 18.812C139.299 18.812 139.593 19.1853 139.593 19.932V24.454H145.571C146.504 24.454 147.316 24.594 148.007 24.874C148.697 25.1447 149.234 25.56 149.617 26.12C150.009 26.68 150.205 27.394 150.205 28.262C150.205 29.1207 150.013 29.8347 149.631 30.404C149.248 30.964 148.707 31.384 148.007 31.664C147.316 31.9347 146.504 32.0747 145.571 32.084H137.829ZM139.593 30.32H145.347C146.289 30.32 147.041 30.1707 147.601 29.872C148.17 29.564 148.455 29.046 148.455 28.318C148.455 27.702 148.315 27.2447 148.035 26.946C147.755 26.6473 147.381 26.4513 146.915 26.358C146.448 26.2647 145.925 26.218 145.347 26.218H139.593V30.32Z" fill="white"/>
<g id="Icons" clip-path="url(#clip0_451_5361)">
<g id="Group">
<path id="Vector" d="M216 28L208 35.9947L193.336 36C192.983 36.0014 192.644 35.8628 192.394 35.6145C192.143 35.3662 192.002 35.0287 192 34.676V13.324C192 12.5933 192.593 12 193.324 12H214.676C215.407 12 216 12.608 216 13.336V28ZM213.333 14.6667H194.667V33.3333H205.333V26.6667C205.333 26.3401 205.453 26.0249 205.67 25.7808C205.887 25.5368 206.186 25.3809 206.511 25.3427L206.667 25.3333L213.333 25.332V14.6667ZM212.228 27.9987L208 28V32.2253L212.228 27.9987Z" fill="white"/>
</g>
</g>
</g>
<defs>
<clipPath id="clip0_451_5361">
<rect width="32" height="32" fill="white" transform="translate(188 8)"/>
</clipPath>
</defs>
</svg>
