<svg width="32" height="32" viewBox="0 0 32 32" fill="none" xmlns="http://www.w3.org/2000/svg">
<g id="Group">
<path id="Vector" d="M29.3307 28H2.66406V25.3333H3.9974V5.33333C3.9974 4.97971 4.13787 4.64057 4.38792 4.39052C4.63797 4.14048 4.97711 4 5.33073 4H23.9974C24.351 4 24.6902 4.14048 24.9402 4.39052C25.1903 4.64057 25.3307 4.97971 25.3307 5.33333V12H27.9974V25.3333H29.3307V28ZM22.6641 25.3333H25.3307V14.6667H17.3307V25.3333H19.9974V17.3333H22.6641V25.3333ZM22.6641 12V6.66667H6.66406V25.3333H14.6641V12H22.6641ZM9.33073 14.6667H11.9974V17.3333H9.33073V14.6667ZM9.33073 20H11.9974V22.6667H9.33073V20ZM9.33073 9.33333H11.9974V12H9.33073V9.33333Z" fill="white"/>
</g>
</svg>
