<svg width="232" height="48" viewBox="0 0 232 48" fill="none" xmlns="http://www.w3.org/2000/svg">
<g id="Navmenu" clip-path="url(#clip0_392_3363)">
<path id="Rectangle 11" d="M1 1H231V35.5858L219.586 47H1V1Z" stroke="white" stroke-width="2"/>
<path id="&#208;&#151;&#208;&#176;&#208;&#179;&#209;&#128;&#209;&#131;&#208;&#183;&#208;&#184;&#209;&#130;&#209;&#140;" d="M32.456 32.084C30.8973 32.084 29.6373 31.9347 28.676 31.636C27.724 31.328 27.024 30.8053 26.576 30.068C26.1373 29.3213 25.918 28.29 25.918 26.974V19.218C25.918 17.9113 26.1327 16.8893 26.562 16.152C27.0007 15.4053 27.682 14.878 28.606 14.57C29.53 14.262 30.7293 14.108 32.204 14.108H36.404C37.1693 14.108 37.7667 14.2433 38.196 14.514C38.6253 14.7753 38.924 15.1347 39.092 15.592C39.2693 16.0493 39.358 16.5627 39.358 17.132C39.358 18.0653 39.064 18.532 38.476 18.532C38.168 18.532 37.9487 18.4293 37.818 18.224C37.6873 18.0093 37.6127 17.7153 37.594 17.342C37.5847 16.8193 37.4913 16.446 37.314 16.222C37.146 15.9887 36.7773 15.872 36.208 15.872H32.204C31.0187 15.872 30.0993 15.9513 29.446 16.11C28.7927 16.2593 28.3353 16.5767 28.074 17.062C27.8127 17.5473 27.682 18.2753 27.682 19.246V26.946C27.682 27.898 27.8127 28.6167 28.074 29.102C28.3353 29.578 28.8113 29.9 29.502 30.068C30.1927 30.236 31.1773 30.32 32.456 30.32H36.208C36.7773 30.32 37.146 30.208 37.314 29.984C37.4913 29.7507 37.5847 29.3727 37.594 28.85C37.622 28.43 37.7107 28.1267 37.86 27.94C38.0187 27.7533 38.224 27.66 38.476 27.66C38.7653 27.66 38.9847 27.7673 39.134 27.982C39.2833 28.1873 39.358 28.5047 39.358 28.934C39.358 29.5593 39.2693 30.11 39.092 30.586C38.924 31.0527 38.6253 31.4213 38.196 31.692C37.7667 31.9533 37.1693 32.084 36.404 32.084H32.456ZM48.4598 32.084C46.9104 32.084 45.6551 31.9347 44.6938 31.636C43.7324 31.3373 43.0278 30.824 42.5798 30.096C42.1411 29.368 41.9218 28.3553 41.9218 27.058V24.034C41.9218 22.7367 42.1411 21.724 42.5798 20.996C43.0278 20.2587 43.7324 19.7453 44.6938 19.456C45.6551 19.1573 46.9104 19.008 48.4598 19.008H49.2718C50.8211 19.008 52.0718 19.1573 53.0238 19.456C53.9851 19.7547 54.6851 20.268 55.1238 20.996C55.5624 21.724 55.7818 22.7367 55.7818 24.034V27.058C55.7818 28.346 55.5624 29.3587 55.1238 30.096C54.6851 30.824 53.9851 31.3373 53.0238 31.636C52.0718 31.9347 50.8211 32.084 49.2718 32.084H48.4598ZM48.4598 30.32H49.2718C50.5598 30.32 51.5444 30.2407 52.2258 30.082C52.9071 29.914 53.3738 29.592 53.6258 29.116C53.8871 28.64 54.0178 27.94 54.0178 27.016V24.076C54.0178 23.1053 53.8824 22.3867 53.6118 21.92C53.3504 21.4533 52.8744 21.1453 52.1838 20.996C51.5024 20.8467 50.5318 20.772 49.2718 20.772H48.4598C47.1904 20.772 46.2104 20.8467 45.5198 20.996C44.8291 21.1453 44.3484 21.458 44.0778 21.934C43.8164 22.4007 43.6858 23.1147 43.6858 24.076V27.016C43.6858 27.9493 43.8164 28.654 44.0778 29.13C44.3391 29.5967 44.8104 29.914 45.4918 30.082C46.1824 30.2407 47.1718 30.32 48.4598 30.32ZM61.4043 32.084C60.2936 32.084 59.5236 31.804 59.0943 31.244C58.6649 30.684 58.4503 29.7087 58.4503 28.318C58.4503 27.562 58.7443 27.184 59.3323 27.184C59.9203 27.184 60.2143 27.562 60.2143 28.318V28.822C60.2143 29.3913 60.3076 29.7833 60.4943 29.998C60.6903 30.2127 61.0589 30.32 61.6003 30.32H66.7243C68.9923 30.32 70.1263 29.802 70.1263 28.766C70.1263 27.8793 69.8649 27.2353 69.3423 26.834C68.8289 26.4233 67.9936 26.218 66.8363 26.218H64.4283C63.6536 26.218 63.2663 25.9427 63.2663 25.392C63.2663 24.7667 63.6536 24.454 64.4283 24.454H66.8363C67.6576 24.454 68.3063 24.3933 68.7823 24.272C69.2676 24.1507 69.6176 23.936 69.8323 23.628C70.0469 23.32 70.1543 22.886 70.1543 22.326C70.1543 21.29 69.0109 20.772 66.7243 20.772H61.6003C61.0589 20.772 60.6903 20.8793 60.4943 21.094C60.3076 21.2993 60.2143 21.6913 60.2143 22.27V22.774C60.2143 23.53 59.9203 23.908 59.3323 23.908C58.7443 23.908 58.4503 23.53 58.4503 22.774C58.4503 21.374 58.6649 20.3987 59.0943 19.848C59.5236 19.288 60.2936 19.008 61.4043 19.008H66.9203C68.4603 19.008 69.6736 19.3067 70.5603 19.904C71.4469 20.5013 71.8903 21.416 71.8903 22.648C71.8903 23.376 71.7549 23.95 71.4843 24.37C71.2229 24.79 70.8449 25.126 70.3503 25.378C71.3769 26.078 71.8903 27.072 71.8903 28.36C71.8903 29.6387 71.4469 30.5813 70.5603 31.188C69.6736 31.7853 68.4603 32.084 66.9203 32.084H61.4043ZM74.1773 34.66C73.5893 34.66 73.2953 34.282 73.2953 33.526V32.14C73.2953 30.908 73.8553 30.3013 74.9753 30.32H75.7873L74.8073 30.74C76.8326 27.548 77.836 23.6373 77.8173 19.008H85.6713V30.32H86.7213C87.776 30.32 88.3033 30.9267 88.3033 32.14V33.526C88.3033 34.282 88.0093 34.66 87.4213 34.66C86.8333 34.66 86.5393 34.282 86.5393 33.526V32.084H75.0593V33.526C75.0593 34.282 74.7653 34.66 74.1773 34.66ZM77.0613 30.32H83.8653V20.772H79.6653C79.6093 24.244 78.7413 27.4267 77.0613 30.32ZM101.375 32.28C101.141 32.28 100.969 32.196 100.857 32.028C100.745 31.8693 100.67 31.5707 100.633 31.132C100.605 30.6933 100.586 30.068 100.577 29.256L100.829 29.858C100.287 30.642 99.5967 31.2113 98.7567 31.566C97.9167 31.9113 96.9181 32.084 95.7607 32.084H93.1567C92.2234 32.084 91.4627 31.7667 90.8747 31.132C90.2961 30.4973 90.0067 29.522 90.0067 28.206C90.0067 27.2353 90.1701 26.4513 90.4967 25.854C90.8234 25.2567 91.2807 24.7993 91.8687 24.482C92.4567 24.1553 93.1474 23.936 93.9407 23.824C94.7434 23.7027 95.6114 23.642 96.5447 23.642H101.305L100.507 24.384V22.186C100.507 21.6447 100.413 21.276 100.227 21.08C100.04 20.8747 99.6714 20.772 99.1207 20.772H95.1727C94.3327 20.772 93.6654 20.8187 93.1707 20.912C92.6761 21.0053 92.3214 21.1547 92.1067 21.36C91.8921 21.5653 91.7801 21.8407 91.7707 22.186C91.7521 22.5407 91.6914 22.8113 91.5887 22.998C91.4861 23.1847 91.2527 23.278 90.8887 23.278C90.3007 23.278 90.0067 22.8767 90.0067 22.074C90.0067 21.0287 90.4361 20.2587 91.2947 19.764C92.1627 19.26 93.3901 19.008 94.9767 19.008H99.3167C100.427 19.008 101.197 19.2787 101.627 19.82C102.056 20.352 102.271 21.2947 102.271 22.648V31.188C102.271 31.916 101.972 32.28 101.375 32.28ZM93.1987 30.376H95.7607C97.4967 30.376 98.7287 29.9327 99.4567 29.046C100.185 28.1593 100.535 26.82 100.507 25.028L100.857 25.35H96.5447C95.4434 25.35 94.5381 25.4153 93.8287 25.546C93.1287 25.6673 92.6107 25.924 92.2747 26.316C91.9387 26.708 91.7707 27.3007 91.7707 28.094C91.7707 28.8687 91.9107 29.4427 92.1907 29.816C92.4707 30.1893 92.8067 30.376 93.1987 30.376ZM110.235 32.28C109.61 32.28 109.297 31.944 109.297 31.272V20.772H105.111C104.393 20.772 104.033 20.478 104.033 19.89C104.033 19.302 104.393 19.008 105.111 19.008H115.359C116.078 19.008 116.437 19.302 116.437 19.89C116.437 20.478 116.078 20.772 115.359 20.772H111.201V31.272C111.201 31.5893 111.117 31.8367 110.949 32.014C110.781 32.1913 110.543 32.28 110.235 32.28ZM118.291 32.084V19.932C118.291 19.1853 118.585 18.812 119.173 18.812C119.761 18.812 120.055 19.1853 120.055 19.932V24.454H126.033C126.966 24.454 127.778 24.594 128.469 24.874C129.16 25.1447 129.696 25.56 130.079 26.12C130.471 26.68 130.667 27.394 130.667 28.262C130.667 29.1207 130.476 29.8347 130.093 30.404C129.71 30.964 129.169 31.384 128.469 31.664C127.778 31.9347 126.966 32.0747 126.033 32.084H118.291ZM120.055 30.32H125.809C126.752 30.32 127.503 30.1707 128.063 29.872C128.632 29.564 128.917 29.046 128.917 28.318C128.917 27.702 128.777 27.2447 128.497 26.946C128.217 26.6473 127.844 26.4513 127.377 26.358C126.91 26.2647 126.388 26.218 125.809 26.218H120.055V30.32Z" fill="white"/>
<g id="Icons" clip-path="url(#clip1_392_3363)">
<g id="Group">
<path id="Vector" d="M214.776 28.2664L216.379 29.2278C216.478 29.287 216.56 29.3708 216.617 29.471C216.674 29.5713 216.703 29.6845 216.703 29.7998C216.703 29.915 216.674 30.0283 216.617 30.1285C216.56 30.2288 216.478 30.3126 216.379 30.3718L204.686 37.3878C204.478 37.5124 204.241 37.5782 203.999 37.5782C203.757 37.5782 203.52 37.5124 203.312 37.3878L191.619 30.3718C191.52 30.3126 191.438 30.2288 191.382 30.1285C191.325 30.0283 191.295 29.915 191.295 29.7998C191.295 29.6845 191.325 29.5713 191.382 29.471C191.438 29.3708 191.52 29.287 191.619 29.2278L193.222 28.2664L203.999 34.7331L214.776 28.2664ZM214.776 21.9998L216.379 22.9611C216.478 23.0203 216.56 23.1041 216.617 23.2043C216.674 23.3046 216.703 23.4179 216.703 23.5331C216.703 23.6483 216.674 23.7616 216.617 23.8619C216.56 23.9621 216.478 24.0459 216.379 24.1051L203.999 31.5331L191.619 24.1051C191.52 24.0459 191.438 23.9621 191.382 23.8619C191.325 23.7616 191.295 23.6483 191.295 23.5331C191.295 23.4179 191.325 23.3046 191.382 23.2043C191.438 23.1041 191.52 23.0203 191.619 22.9611L193.222 21.9998L203.999 28.4664L214.776 21.9998ZM204.684 9.7451L216.379 16.7611C216.478 16.8203 216.56 16.9041 216.617 17.0043C216.674 17.1046 216.703 17.2179 216.703 17.3331C216.703 17.4483 216.674 17.5616 216.617 17.6619C216.56 17.7621 216.478 17.8459 216.379 17.9051L203.999 25.3331L191.619 17.9051C191.52 17.8459 191.438 17.7621 191.382 17.6619C191.325 17.5616 191.295 17.4483 191.295 17.3331C191.295 17.2179 191.325 17.1046 191.382 17.0043C191.438 16.9041 191.52 16.8203 191.619 16.7611L203.312 9.7451C203.52 9.62051 203.757 9.55469 203.999 9.55469C204.241 9.55469 204.478 9.62051 204.686 9.7451H204.684ZM203.999 12.4424L195.848 17.3331L203.999 22.2238L212.15 17.3331L203.999 12.4424Z" fill="white"/>
</g>
</g>
</g>
<defs>
<clipPath id="clip0_392_3363">
<rect width="232" height="48" fill="white"/>
</clipPath>
<clipPath id="clip1_392_3363">
<rect width="32" height="32" fill="white" transform="translate(188 8)"/>
</clipPath>
</defs>
</svg>
