<svg width="309" height="73" viewBox="0 0 309 73" fill="none" xmlns="http://www.w3.org/2000/svg">
<g filter="url(#filter0_ddi_783_12084)">
<path d="M27.6364 4H286.545C296.185 4 304 11.8147 304 21.4545V44L280.364 67.6363H21.4546C11.8147 67.6363 4 59.8216 4 50.1818V27.6363L27.6364 4Z" fill="white" fill-opacity="0.1" shape-rendering="crispEdges"/>
<path d="M4.625 27.8952L27.8952 4.625H286.545C295.84 4.625 303.375 12.1598 303.375 21.4545V43.7411L280.105 67.0113H21.4546C12.1599 67.0113 4.625 59.4764 4.625 50.1818V27.8952Z" stroke="white" stroke-opacity="0.55" stroke-width="1.25" shape-rendering="crispEdges"/>
</g>
<g filter="url(#filter1_i_783_12084)">
<path d="M286.547 67.6362L304.001 50.1816V67.6362H286.547Z" fill="#969696"/>
</g>
<g filter="url(#filter2_i_783_12084)">
<path d="M4 21.4545V14.1818L14.1818 4H21.4545V4.72727L4.72727 21.4545H4Z" fill="#969696"/>
</g>
<path d="M68.7436 48.1473C66.78 48.1473 65.2091 47.9618 64.0309 47.5909C62.8636 47.2091 62.0127 46.5764 61.4782 45.6927C60.9545 44.8091 60.6927 43.5927 60.6927 42.0436V33.1255C60.6927 31.5982 60.9436 30.3927 61.4455 29.5091C61.9582 28.6255 62.7709 27.9927 63.8836 27.6109C65.0073 27.2291 66.48 27.0382 68.3018 27.0382H73.3582C74.2309 27.0382 74.9345 27.1909 75.4691 27.4964C76.0036 27.8018 76.3909 28.2327 76.6309 28.7891C76.8709 29.3346 76.9909 29.9727 76.9909 30.7036C76.9909 31.9364 76.5873 32.5527 75.78 32.5527C75.3545 32.5527 75.0545 32.4164 74.88 32.1436C74.7054 31.86 74.6073 31.4727 74.5854 30.9818C74.5527 30.4255 74.46 30.0327 74.3073 29.8036C74.1545 29.5636 73.7618 29.4436 73.1291 29.4436H68.3018C66.8945 29.4436 65.8145 29.5364 65.0618 29.7218C64.3091 29.8964 63.7909 30.2509 63.5073 30.7855C63.2345 31.32 63.0982 32.1164 63.0982 33.1746V41.9945C63.0982 43.0527 63.24 43.8545 63.5236 44.4C63.8182 44.9345 64.3691 45.2945 65.1764 45.48C65.9836 45.6545 67.1727 45.7418 68.7436 45.7418H73.1291C73.7618 45.7418 74.1545 45.6218 74.3073 45.3818C74.46 45.1418 74.5527 44.7436 74.5854 44.1873C74.6182 43.6309 74.7327 43.2327 74.9291 42.9927C75.1254 42.7527 75.4091 42.6327 75.78 42.6327C76.1836 42.6436 76.4836 42.7909 76.68 43.0745C76.8873 43.3582 76.9909 43.8055 76.9909 44.4164C76.9909 45.18 76.8709 45.8455 76.6309 46.4127C76.3909 46.9691 76.0036 47.4 75.4691 47.7055C74.9345 48 74.2309 48.1473 73.3582 48.1473H68.7436ZM87.9287 48.1473C85.976 48.1473 84.4105 47.9673 83.2323 47.6073C82.0542 47.2473 81.1978 46.6364 80.6633 45.7745C80.1396 44.9018 79.8778 43.7073 79.8778 42.1909V38.7055C79.8778 37.2 80.1396 36.0164 80.6633 35.1546C81.1978 34.2818 82.0542 33.6655 83.2323 33.3055C84.4105 32.9455 85.976 32.7655 87.9287 32.7655H88.8778C90.8305 32.7655 92.396 32.9509 93.5742 33.3218C94.7523 33.6818 95.6032 34.2982 96.1269 35.1709C96.6505 36.0327 96.9123 37.2109 96.9123 38.7055V42.1909C96.9123 43.6964 96.6505 44.8855 96.1269 45.7582C95.6032 46.62 94.7523 47.2364 93.5742 47.6073C92.396 47.9673 90.8305 48.1473 88.8778 48.1473H87.9287ZM87.9287 45.7418H88.8778C90.4487 45.7418 91.6378 45.6545 92.4451 45.48C93.2523 45.3055 93.7978 44.9618 94.0814 44.4491C94.3651 43.9255 94.5069 43.1509 94.5069 42.1255V38.7873C94.5069 37.74 94.3596 36.96 94.0651 36.4473C93.7705 35.9236 93.2196 35.58 92.4123 35.4164C91.6051 35.2527 90.4269 35.1709 88.8778 35.1709H87.9287C86.3578 35.1709 85.1633 35.2527 84.3451 35.4164C83.5378 35.58 82.9923 35.9236 82.7087 36.4473C82.4251 36.96 82.2833 37.74 82.2833 38.7873V42.1255C82.2833 43.1509 82.4251 43.9255 82.7087 44.4491C82.9923 44.9618 83.5378 45.3055 84.3451 45.48C85.1633 45.6545 86.3578 45.7418 87.9287 45.7418ZM103.549 48.1473C102.196 48.1473 101.253 47.8091 100.718 47.1327C100.195 46.4455 99.9327 45.2564 99.9327 43.5655C99.9327 42.5727 100.331 42.0764 101.127 42.0764C101.935 42.0764 102.338 42.5727 102.338 43.5655V44.1545C102.338 44.7873 102.431 45.2127 102.616 45.4309C102.813 45.6382 103.2 45.7418 103.778 45.7418H109.767C112.473 45.7418 113.825 45.2073 113.825 44.1382C113.825 43.1673 113.525 42.4691 112.925 42.0436C112.325 41.6182 111.316 41.4055 109.898 41.4055H107.084C106.069 41.4055 105.562 41.0291 105.562 40.2764C105.562 39.4255 106.069 39 107.084 39H109.898C110.913 39 111.704 38.94 112.271 38.82C112.849 38.6891 113.258 38.46 113.498 38.1327C113.738 37.8055 113.858 37.3473 113.858 36.7582C113.858 35.7 112.495 35.1709 109.767 35.1709H103.778C103.2 35.1709 102.813 35.28 102.616 35.4982C102.431 35.7055 102.338 36.12 102.338 36.7418V37.3309C102.338 38.3346 101.935 38.8364 101.127 38.8364C100.331 38.8364 99.9327 38.3346 99.9327 37.3309C99.9327 35.64 100.195 34.4564 100.718 33.78C101.253 33.1036 102.196 32.7655 103.549 32.7655H109.996C111.993 32.7655 113.531 33.1255 114.611 33.8455C115.691 34.5655 116.231 35.6564 116.231 37.1182C116.231 37.9036 116.089 38.5527 115.805 39.0655C115.522 39.5782 115.113 39.9873 114.578 40.2927C115.68 41.1 116.231 42.2509 116.231 43.7455C116.231 45.24 115.691 46.3473 114.611 47.0673C113.531 47.7873 111.993 48.1473 109.996 48.1473H103.549ZM119.023 51.1582C118.215 51.1582 117.812 50.6564 117.812 49.6527V48.0818C117.812 46.5 118.543 45.72 120.004 45.7418H120.904L119.595 46.3145C121.974 42.6164 123.152 38.1 123.13 32.7655H132.866V45.7418H133.93C135.272 45.7418 135.943 46.5218 135.943 48.0818V49.6527C135.943 50.6564 135.544 51.1582 134.748 51.1582C133.941 51.1582 133.537 50.6564 133.537 49.6527V48.1473H120.217V49.6527C120.217 50.6564 119.819 51.1582 119.023 51.1582ZM122.688 45.7418H130.395V35.1709H125.699C125.601 38.9891 124.597 42.5127 122.688 45.7418ZM151.583 48.3764C151.3 48.3764 151.082 48.2891 150.929 48.1145C150.776 47.94 150.667 47.5964 150.602 47.0836C150.547 46.5709 150.52 45.8127 150.52 44.8091L150.847 45.5782C150.182 46.5164 149.347 47.1818 148.343 47.5745C147.34 47.9564 146.151 48.1473 144.776 48.1473H141.733C140.598 48.1473 139.671 47.7655 138.951 47.0018C138.242 46.2273 137.887 45.0545 137.887 43.4836C137.887 42.4145 138.062 41.5364 138.411 40.8491C138.76 40.1509 139.278 39.6 139.965 39.1964C140.663 38.7927 141.509 38.5091 142.502 38.3455C143.505 38.1709 144.651 38.0836 145.938 38.0836H151.485L150.405 39.0818V36.5782C150.405 36.0327 150.307 35.6618 150.111 35.4655C149.925 35.2691 149.538 35.1709 148.949 35.1709H144.334C143.287 35.1709 142.474 35.2146 141.896 35.3018C141.318 35.3782 140.909 35.52 140.669 35.7273C140.429 35.9236 140.303 36.1909 140.293 36.5291C140.26 37.0309 140.167 37.4018 140.014 37.6418C139.873 37.8818 139.562 38.0018 139.082 38.0018C138.285 38.0018 137.887 37.4727 137.887 36.4146C137.887 35.16 138.405 34.2382 139.442 33.6491C140.489 33.06 142.043 32.7655 144.105 32.7655H149.178C150.531 32.7655 151.474 33.0873 152.009 33.7309C152.543 34.3746 152.811 35.5036 152.811 37.1182V46.9527C152.811 47.9018 152.402 48.3764 151.583 48.3764ZM141.814 45.84H144.776C146.816 45.84 148.267 45.3709 149.129 44.4327C149.991 43.4945 150.416 42.0545 150.405 40.1127L150.7 40.3909H145.938C144.574 40.3909 143.478 40.4673 142.649 40.62C141.82 40.7618 141.22 41.0455 140.849 41.4709C140.478 41.8964 140.293 42.5291 140.293 43.3691C140.293 44.1764 140.434 44.7927 140.718 45.2182C141.002 45.6327 141.367 45.84 141.814 45.84ZM162.321 48.3764C161.449 48.3764 161.012 47.9345 161.012 47.0509V35.1709H156.218C155.258 35.1709 154.778 34.7673 154.778 33.96C154.778 33.1636 155.258 32.7655 156.218 32.7655H168.441C169.39 32.7655 169.865 33.1636 169.865 33.96C169.865 34.7673 169.39 35.1709 168.441 35.1709H163.663V47.0509C163.663 47.4545 163.543 47.7764 163.303 48.0164C163.063 48.2564 162.736 48.3764 162.321 48.3764ZM171.969 48.1473V33.9927C171.969 33.0218 172.368 32.5364 173.164 32.5364C173.971 32.5364 174.375 33.0218 174.375 33.9927V39H181.379C182.546 39 183.549 39.1746 184.389 39.5236C185.229 39.8618 185.879 40.3691 186.337 41.0455C186.795 41.7218 187.024 42.5618 187.024 43.5655C187.024 44.5691 186.795 45.4091 186.337 46.0855C185.889 46.7618 185.24 47.2691 184.389 47.6073C183.549 47.9455 182.546 48.1255 181.379 48.1473H171.969ZM174.375 45.7418H181.1C182.104 45.7418 182.939 45.6 183.604 45.3164C184.28 45.0218 184.619 44.4764 184.619 43.68C184.619 43.0255 184.471 42.5345 184.177 42.2073C183.893 41.88 183.484 41.6673 182.949 41.5691C182.426 41.46 181.809 41.4055 181.1 41.4055H174.375V45.7418Z" fill="white" fill-opacity="0.55"/>
<path d="M243.531 28.622L264.983 7.16992H286.179C294.269 7.16992 300.827 13.7279 300.827 21.8176V43.0133L279.375 64.4653H243.531V28.622Z" stroke="white" stroke-opacity="0.55" stroke-width="1.25"/>
<path d="M269.82 25.0898L280.729 35.9989L269.82 46.908" stroke="white" stroke-opacity="0.55" stroke-width="2.18182" stroke-linecap="square" stroke-linejoin="round"/>
<path d="M267.635 33.8164L269.817 35.9982L267.635 38.18L265.453 35.9982L267.635 33.8164Z" fill="white" fill-opacity="0.55"/>
<path d="M262.182 33.8164L264.364 35.9982L262.182 38.18L260 35.9982L262.182 33.8164Z" fill="white" fill-opacity="0.55"/>
<defs>
<filter id="filter0_ddi_783_12084" x="0.500002" y="0.500002" width="308.5" height="72.1367" filterUnits="userSpaceOnUse" color-interpolation-filters="sRGB">
<feFlood flood-opacity="0" result="BackgroundImageFix"/>
<feColorMatrix in="SourceAlpha" type="matrix" values="0 0 0 0 0 0 0 0 0 0 0 0 0 0 0 0 0 0 127 0" result="hardAlpha"/>
<feOffset dx="-0.999999" dy="-0.999999"/>
<feGaussianBlur stdDeviation="1.25"/>
<feComposite in2="hardAlpha" operator="out"/>
<feColorMatrix type="matrix" values="0 0 0 0 0.0823529 0 0 0 0 0.0823529 0 0 0 0 0.0823529 0 0 0 0.25 0"/>
<feBlend mode="normal" in2="BackgroundImageFix" result="effect1_dropShadow_783_12084"/>
<feColorMatrix in="SourceAlpha" type="matrix" values="0 0 0 0 0 0 0 0 0 0 0 0 0 0 0 0 0 0 127 0" result="hardAlpha"/>
<feOffset dx="1.5" dy="1.5"/>
<feGaussianBlur stdDeviation="1.75"/>
<feComposite in2="hardAlpha" operator="out"/>
<feColorMatrix type="matrix" values="0 0 0 0 0.0823529 0 0 0 0 0.0823529 0 0 0 0 0.0823529 0 0 0 0.25 0"/>
<feBlend mode="normal" in2="effect1_dropShadow_783_12084" result="effect2_dropShadow_783_12084"/>
<feBlend mode="normal" in="SourceGraphic" in2="effect2_dropShadow_783_12084" result="shape"/>
<feColorMatrix in="SourceAlpha" type="matrix" values="0 0 0 0 0 0 0 0 0 0 0 0 0 0 0 0 0 0 127 0" result="hardAlpha"/>
<feOffset dx="4" dy="1.5"/>
<feGaussianBlur stdDeviation="1.75"/>
<feComposite in2="hardAlpha" operator="arithmetic" k2="-1" k3="1"/>
<feColorMatrix type="matrix" values="0 0 0 0 0.0823529 0 0 0 0 0.0823529 0 0 0 0 0.0823529 0 0 0 0.25 0"/>
<feBlend mode="normal" in2="shape" result="effect3_innerShadow_783_12084"/>
</filter>
<filter id="filter1_i_783_12084" x="286.547" y="50.1816" width="18.9531" height="18.9551" filterUnits="userSpaceOnUse" color-interpolation-filters="sRGB">
<feFlood flood-opacity="0" result="BackgroundImageFix"/>
<feBlend mode="normal" in="SourceGraphic" in2="BackgroundImageFix" result="shape"/>
<feColorMatrix in="SourceAlpha" type="matrix" values="0 0 0 0 0 0 0 0 0 0 0 0 0 0 0 0 0 0 127 0" result="hardAlpha"/>
<feOffset dx="1.5" dy="1.5"/>
<feGaussianBlur stdDeviation="0.75"/>
<feComposite in2="hardAlpha" operator="arithmetic" k2="-1" k3="1"/>
<feColorMatrix type="matrix" values="0 0 0 0 0.0833333 0 0 0 0 0.0833333 0 0 0 0 0.0833333 0 0 0 0.5 0"/>
<feBlend mode="normal" in2="shape" result="effect1_innerShadow_783_12084"/>
</filter>
<filter id="filter2_i_783_12084" x="4" y="4" width="18.9531" height="18.9551" filterUnits="userSpaceOnUse" color-interpolation-filters="sRGB">
<feFlood flood-opacity="0" result="BackgroundImageFix"/>
<feBlend mode="normal" in="SourceGraphic" in2="BackgroundImageFix" result="shape"/>
<feColorMatrix in="SourceAlpha" type="matrix" values="0 0 0 0 0 0 0 0 0 0 0 0 0 0 0 0 0 0 127 0" result="hardAlpha"/>
<feOffset dx="1.5" dy="1.5"/>
<feGaussianBlur stdDeviation="0.75"/>
<feComposite in2="hardAlpha" operator="arithmetic" k2="-1" k3="1"/>
<feColorMatrix type="matrix" values="0 0 0 0 0.0833333 0 0 0 0 0.0833333 0 0 0 0 0.0833333 0 0 0 0.5 0"/>
<feBlend mode="normal" in2="shape" result="effect1_innerShadow_783_12084"/>
</filter>
</defs>
</svg>
