<svg width="318" height="78" viewBox="0 0 318 78" fill="none" xmlns="http://www.w3.org/2000/svg">
<g filter="url(#filter0_ddi_839_14750)">
<path d="M31.6364 4.37109H290.545C300.185 4.37109 308 12.1858 308 21.8256V44.371L284.364 68.0074H25.4546C15.8147 68.0074 8 60.1927 8 50.5528V28.0074L31.6364 4.37109Z" fill="white" fill-opacity="0.85" shape-rendering="crispEdges"/>
<path d="M8.6875 28.2922L31.9211 5.05859H290.545C299.806 5.05859 307.312 12.5655 307.312 21.8256V44.0863L284.079 67.3199H25.4546C16.1944 67.3199 8.6875 59.813 8.6875 50.5528V28.2922Z" stroke="#191919" stroke-width="1.375" shape-rendering="crispEdges"/>
</g>
<g filter="url(#filter1_i_839_14750)">
<path d="M290.547 68.0073L308.001 50.5527V68.0073H290.547Z" fill="#DCDCDC"/>
</g>
<g filter="url(#filter2_i_839_14750)">
<path d="M8 21.8256V14.5529L18.1818 4.37109H25.4545V5.09837L8.72727 21.8256H8Z" fill="#DCDCDC"/>
</g>
<g filter="url(#filter3_d_839_14750)">
<path d="M73.7436 49.2459C71.78 49.2459 70.2091 49.0605 69.0309 48.6895C67.8636 48.3077 67.0127 47.675 66.4782 46.7914C65.9545 45.9077 65.6927 44.6914 65.6927 43.1423V34.2241C65.6927 32.6968 65.9436 31.4914 66.4455 30.6077C66.9582 29.7241 67.7709 29.0914 68.8836 28.7096C70.0073 28.3277 71.48 28.1368 73.3018 28.1368H78.3582C79.2309 28.1368 79.9345 28.2896 80.4691 28.595C81.0036 28.9005 81.3909 29.3314 81.6309 29.8877C81.8709 30.4332 81.9909 31.0714 81.9909 31.8023C81.9909 33.035 81.5873 33.6514 80.78 33.6514C80.3545 33.6514 80.0545 33.515 79.88 33.2423C79.7054 32.9586 79.6073 32.5714 79.5854 32.0805C79.5527 31.5241 79.46 31.1314 79.3073 30.9023C79.1545 30.6623 78.7618 30.5423 78.1291 30.5423H73.3018C71.8945 30.5423 70.8145 30.635 70.0618 30.8205C69.3091 30.995 68.7909 31.3496 68.5073 31.8841C68.2345 32.4186 68.0982 33.215 68.0982 34.2732V43.0932C68.0982 44.1514 68.24 44.9532 68.5236 45.4986C68.8182 46.0332 69.3691 46.3932 70.1764 46.5786C70.9836 46.7532 72.1727 46.8405 73.7436 46.8405H78.1291C78.7618 46.8405 79.1545 46.7205 79.3073 46.4805C79.46 46.2405 79.5527 45.8423 79.5854 45.2859C79.6182 44.7295 79.7327 44.3314 79.9291 44.0914C80.1254 43.8514 80.4091 43.7314 80.78 43.7314C81.1836 43.7423 81.4836 43.8895 81.68 44.1732C81.8873 44.4568 81.9909 44.9041 81.9909 45.515C81.9909 46.2786 81.8709 46.9441 81.6309 47.5114C81.3909 48.0677 81.0036 48.4986 80.4691 48.8041C79.9345 49.0986 79.2309 49.2459 78.3582 49.2459H73.7436ZM86.4978 49.475C86.1378 49.475 85.8487 49.3495 85.6305 49.0986C85.4233 48.8477 85.3196 48.5205 85.3196 48.1168V34.9932C85.3196 34.5677 85.4287 34.235 85.6469 33.995C85.876 33.755 86.1814 33.635 86.5633 33.635C86.9123 33.635 87.1905 33.7605 87.3978 34.0114C87.616 34.2514 87.7251 34.5786 87.7251 34.9932V40.3277H90.9814C91.2542 40.3277 91.5596 40.1477 91.8978 39.7877C92.236 39.4168 92.6723 38.8223 93.2069 38.0041C93.6214 37.3714 94.1014 36.7168 94.6469 36.0405C95.1923 35.3641 95.9014 34.7859 96.7742 34.3059C97.636 33.8368 98.5851 33.6023 99.6214 33.6023C100.101 33.6023 100.483 33.7059 100.767 33.9132C101.051 34.1205 101.192 34.415 101.192 34.7968C101.192 35.2223 101.051 35.5332 100.767 35.7295C100.483 35.915 100.112 36.0077 99.6542 36.0077C99.0214 36.0186 98.4323 36.2477 97.8869 36.695C97.3523 37.1423 96.7469 37.8568 96.0705 38.8386C95.8087 39.2314 95.5742 39.575 95.3669 39.8695C95.1596 40.1532 94.9687 40.4041 94.7942 40.6223C94.6196 40.8405 94.4396 41.0423 94.2542 41.2277C95.1923 41.6314 95.9887 42.1659 96.6432 42.8314C97.3087 43.4859 97.7669 44.1623 98.0178 44.8605C98.3123 45.5914 98.5851 46.1423 98.836 46.5132C99.0869 46.8732 99.3596 47.0586 99.6542 47.0695C100.101 47.0695 100.467 47.1732 100.751 47.3805C101.045 47.5877 101.192 47.8823 101.192 48.2641C101.192 49.0714 100.674 49.475 99.6378 49.475C98.8742 49.475 98.2251 49.3277 97.6905 49.0332C97.156 48.7386 96.7251 48.3295 96.3978 47.8059C96.1142 47.3914 95.8687 46.9659 95.6614 46.5295C95.4542 46.0823 95.1978 45.635 94.8923 45.1877C94.5869 44.7295 94.156 44.2877 93.5996 43.8623C92.6942 43.1095 91.2269 42.7332 89.1978 42.7332H87.7251V48.1495C87.7251 48.5532 87.616 48.875 87.3978 49.115C87.1796 49.355 86.8796 49.475 86.4978 49.475ZM117.239 49.475C116.956 49.475 116.737 49.3877 116.585 49.2132C116.432 49.0386 116.323 48.695 116.257 48.1823C116.203 47.6695 116.176 46.9114 116.176 45.9077L116.503 46.6768C115.837 47.615 115.003 48.2805 113.999 48.6732C112.996 49.055 111.806 49.2459 110.432 49.2459H107.388C106.254 49.2459 105.326 48.8641 104.606 48.1005C103.897 47.3259 103.543 46.1532 103.543 44.5823C103.543 43.5132 103.717 42.635 104.066 41.9477C104.416 41.2495 104.934 40.6986 105.621 40.295C106.319 39.8914 107.165 39.6077 108.157 39.4441C109.161 39.2695 110.306 39.1823 111.594 39.1823H117.141L116.061 40.1805V37.6768C116.061 37.1314 115.963 36.7605 115.766 36.5641C115.581 36.3677 115.194 36.2695 114.605 36.2695H109.99C108.943 36.2695 108.13 36.3132 107.552 36.4005C106.974 36.4768 106.565 36.6186 106.325 36.8259C106.085 37.0223 105.959 37.2895 105.948 37.6277C105.916 38.1295 105.823 38.5005 105.67 38.7405C105.528 38.9805 105.217 39.1005 104.737 39.1005C103.941 39.1005 103.543 38.5714 103.543 37.5132C103.543 36.2586 104.061 35.3368 105.097 34.7477C106.145 34.1586 107.699 33.8641 109.761 33.8641H114.834C116.186 33.8641 117.13 34.1859 117.665 34.8295C118.199 35.4732 118.466 36.6023 118.466 38.2168V48.0514C118.466 49.0005 118.057 49.475 117.239 49.475ZM107.47 46.9386H110.432C112.472 46.9386 113.923 46.4695 114.785 45.5314C115.646 44.5932 116.072 43.1532 116.061 41.2114L116.356 41.4895H111.594C110.23 41.4895 109.134 41.5659 108.305 41.7186C107.476 41.8605 106.876 42.1441 106.505 42.5695C106.134 42.995 105.948 43.6277 105.948 44.4677C105.948 45.275 106.09 45.8914 106.374 46.3168C106.657 46.7314 107.023 46.9386 107.47 46.9386ZM136.601 49.475C135.782 49.475 135.373 48.995 135.373 48.035V43.5841C134.064 44.6968 132.324 45.2532 130.153 45.2532H129.057C127.246 45.2532 125.784 45.0677 124.672 44.6968C123.559 44.315 122.746 43.6823 122.233 42.7986C121.732 41.915 121.481 40.7259 121.481 39.2314V35.0586C121.481 34.1096 121.879 33.635 122.675 33.635C123.482 33.635 123.886 34.1096 123.886 35.0586V39.1659C123.886 40.2023 124.022 40.9823 124.295 41.5059C124.579 42.0295 125.092 42.3841 125.833 42.5695C126.586 42.755 127.661 42.8477 129.057 42.8477H130.153C131.888 42.8477 133.192 42.4005 134.064 41.5059C134.937 40.6005 135.373 39.2532 135.373 37.4641V35.0586C135.373 34.1096 135.772 33.635 136.568 33.635C137.375 33.635 137.779 34.1096 137.779 35.0586V48.0186C137.779 48.9895 137.386 49.475 136.601 49.475ZM154.953 49.475C154.67 49.475 154.452 49.3877 154.299 49.2132C154.146 49.0386 154.037 48.695 153.972 48.1823C153.917 47.6695 153.89 46.9114 153.89 45.9077L154.217 46.6768C153.552 47.615 152.717 48.2805 151.713 48.6732C150.71 49.055 149.521 49.2459 148.146 49.2459H145.103C143.968 49.2459 143.041 48.8641 142.321 48.1005C141.612 47.3259 141.257 46.1532 141.257 44.5823C141.257 43.5132 141.432 42.635 141.781 41.9477C142.13 41.2495 142.648 40.6986 143.335 40.295C144.034 39.8914 144.879 39.6077 145.872 39.4441C146.875 39.2695 148.021 39.1823 149.308 39.1823H154.855L153.775 40.1805V37.6768C153.775 37.1314 153.677 36.7605 153.481 36.5641C153.295 36.3677 152.908 36.2695 152.319 36.2695H147.704C146.657 36.2695 145.844 36.3132 145.266 36.4005C144.688 36.4768 144.279 36.6186 144.039 36.8259C143.799 37.0223 143.674 37.2895 143.663 37.6277C143.63 38.1295 143.537 38.5005 143.384 38.7405C143.243 38.9805 142.932 39.1005 142.452 39.1005C141.655 39.1005 141.257 38.5714 141.257 37.5132C141.257 36.2586 141.775 35.3368 142.812 34.7477C143.859 34.1586 145.414 33.8641 147.475 33.8641H152.548C153.901 33.8641 154.844 34.1859 155.379 34.8295C155.913 35.4732 156.181 36.6023 156.181 38.2168V48.0514C156.181 49.0005 155.772 49.475 154.953 49.475ZM145.184 46.9386H148.146C150.186 46.9386 151.637 46.4695 152.499 45.5314C153.361 44.5932 153.786 43.1532 153.775 41.2114L154.07 41.4895H149.308C147.944 41.4895 146.848 41.5659 146.019 41.7186C145.19 41.8605 144.59 42.1441 144.219 42.5695C143.848 42.995 143.663 43.6277 143.663 44.4677C143.663 45.275 143.804 45.8914 144.088 46.3168C144.372 46.7314 144.737 46.9386 145.184 46.9386ZM165.691 49.475C164.819 49.475 164.382 49.0332 164.382 48.1495V36.2695H159.588C158.628 36.2695 158.148 35.8659 158.148 35.0586C158.148 34.2623 158.628 33.8641 159.588 33.8641H171.811C172.76 33.8641 173.235 34.2623 173.235 35.0586C173.235 35.8659 172.76 36.2695 171.811 36.2695H167.033V48.1495C167.033 48.5532 166.913 48.875 166.673 49.115C166.433 49.355 166.106 49.475 165.691 49.475ZM175.34 49.2459V35.0914C175.34 34.1205 175.738 33.635 176.534 33.635C177.341 33.635 177.745 34.1205 177.745 35.0914V40.0986H184.749C185.916 40.0986 186.92 40.2732 187.76 40.6223C188.6 40.9605 189.249 41.4677 189.707 42.1441C190.165 42.8205 190.394 43.6605 190.394 44.6641C190.394 45.6677 190.165 46.5077 189.707 47.1841C189.26 47.8605 188.61 48.3677 187.76 48.7059C186.92 49.0441 185.916 49.2241 184.749 49.2459H175.34ZM177.745 46.8405H184.47C185.474 46.8405 186.309 46.6986 186.974 46.415C187.65 46.1205 187.989 45.575 187.989 44.7786C187.989 44.1241 187.841 43.6332 187.547 43.3059C187.263 42.9786 186.854 42.7659 186.32 42.6677C185.796 42.5586 185.18 42.5041 184.47 42.5041H177.745V46.8405Z" fill="#191919"/>
</g>
<path d="M247.598 29.0199L269.013 7.60449H290.183C298.238 7.60449 304.768 14.1345 304.768 22.1897V43.3595L283.353 64.7749H247.598V29.0199Z" stroke="#191919" stroke-width="1.375"/>
<g filter="url(#filter4_d_839_14750)">
<path d="M273.816 25.4619L284.725 36.371L273.816 47.2801" stroke="#191919" stroke-width="2.5" stroke-linecap="square" stroke-linejoin="round"/>
<path d="M271.635 34.1895L273.817 36.3713L271.635 38.5531L269.453 36.3713L271.635 34.1895Z" fill="#191919"/>
<path d="M266.182 34.1895L268.364 36.3713L266.182 38.5531L264 36.3713L266.182 34.1895Z" fill="#191919"/>
</g>
<defs>
<filter id="filter0_ddi_839_14750" x="0.500004" y="0.871096" width="317" height="76.6367" filterUnits="userSpaceOnUse" color-interpolation-filters="sRGB">
<feFlood flood-opacity="0" result="BackgroundImageFix"/>
<feColorMatrix in="SourceAlpha" type="matrix" values="0 0 0 0 0 0 0 0 0 0 0 0 0 0 0 0 0 0 127 0" result="hardAlpha"/>
<feOffset dx="-2.5" dy="2.5"/>
<feGaussianBlur stdDeviation="2.5"/>
<feComposite in2="hardAlpha" operator="out"/>
<feColorMatrix type="matrix" values="0 0 0 0 0.0823529 0 0 0 0 0.0823529 0 0 0 0 0.0823529 0 0 0 0.25 0"/>
<feBlend mode="normal" in2="BackgroundImageFix" result="effect1_dropShadow_839_14750"/>
<feColorMatrix in="SourceAlpha" type="matrix" values="0 0 0 0 0 0 0 0 0 0 0 0 0 0 0 0 0 0 127 0" result="hardAlpha"/>
<feOffset dx="3" dy="3"/>
<feGaussianBlur stdDeviation="3.25"/>
<feComposite in2="hardAlpha" operator="out"/>
<feColorMatrix type="matrix" values="0 0 0 0 0.0823529 0 0 0 0 0.0823529 0 0 0 0 0.0823529 0 0 0 0.25 0"/>
<feBlend mode="normal" in2="effect1_dropShadow_839_14750" result="effect2_dropShadow_839_14750"/>
<feBlend mode="normal" in="SourceGraphic" in2="effect2_dropShadow_839_14750" result="shape"/>
<feColorMatrix in="SourceAlpha" type="matrix" values="0 0 0 0 0 0 0 0 0 0 0 0 0 0 0 0 0 0 127 0" result="hardAlpha"/>
<feOffset dx="4" dy="1.5"/>
<feGaussianBlur stdDeviation="1.75"/>
<feComposite in2="hardAlpha" operator="arithmetic" k2="-1" k3="1"/>
<feColorMatrix type="matrix" values="0 0 0 0 0.0823529 0 0 0 0 0.0823529 0 0 0 0 0.0823529 0 0 0 0.5 0"/>
<feBlend mode="normal" in2="shape" result="effect3_innerShadow_839_14750"/>
</filter>
<filter id="filter1_i_839_14750" x="290.547" y="50.5527" width="18.7031" height="18.7041" filterUnits="userSpaceOnUse" color-interpolation-filters="sRGB">
<feFlood flood-opacity="0" result="BackgroundImageFix"/>
<feBlend mode="normal" in="SourceGraphic" in2="BackgroundImageFix" result="shape"/>
<feColorMatrix in="SourceAlpha" type="matrix" values="0 0 0 0 0 0 0 0 0 0 0 0 0 0 0 0 0 0 127 0" result="hardAlpha"/>
<feOffset dx="1.25" dy="1.25"/>
<feGaussianBlur stdDeviation="0.75"/>
<feComposite in2="hardAlpha" operator="arithmetic" k2="-1" k3="1"/>
<feColorMatrix type="matrix" values="0 0 0 0 0.0823529 0 0 0 0 0.0823529 0 0 0 0 0.0823529 0 0 0 0.8 0"/>
<feBlend mode="normal" in2="shape" result="effect1_innerShadow_839_14750"/>
</filter>
<filter id="filter2_i_839_14750" x="8" y="4.37109" width="18.7031" height="18.7041" filterUnits="userSpaceOnUse" color-interpolation-filters="sRGB">
<feFlood flood-opacity="0" result="BackgroundImageFix"/>
<feBlend mode="normal" in="SourceGraphic" in2="BackgroundImageFix" result="shape"/>
<feColorMatrix in="SourceAlpha" type="matrix" values="0 0 0 0 0 0 0 0 0 0 0 0 0 0 0 0 0 0 127 0" result="hardAlpha"/>
<feOffset dx="1.25" dy="1.25"/>
<feGaussianBlur stdDeviation="0.75"/>
<feComposite in2="hardAlpha" operator="arithmetic" k2="-1" k3="1"/>
<feColorMatrix type="matrix" values="0 0 0 0 0.0823529 0 0 0 0 0.0823529 0 0 0 0 0.0823529 0 0 0 0.8 0"/>
<feBlend mode="normal" in2="shape" result="effect1_innerShadow_839_14750"/>
</filter>
<filter id="filter3_d_839_14750" x="65.1914" y="27.1367" width="128.703" height="25.3379" filterUnits="userSpaceOnUse" color-interpolation-filters="sRGB">
<feFlood flood-opacity="0" result="BackgroundImageFix"/>
<feColorMatrix in="SourceAlpha" type="matrix" values="0 0 0 0 0 0 0 0 0 0 0 0 0 0 0 0 0 0 127 0" result="hardAlpha"/>
<feOffset dx="1.5" dy="0.999999"/>
<feGaussianBlur stdDeviation="0.999999"/>
<feComposite in2="hardAlpha" operator="out"/>
<feColorMatrix type="matrix" values="0 0 0 0 0.0823529 0 0 0 0 0.0823529 0 0 0 0 0.0823529 0 0 0 0.5 0"/>
<feBlend mode="normal" in2="BackgroundImageFix" result="effect1_dropShadow_839_14750"/>
<feBlend mode="normal" in="SourceGraphic" in2="effect1_dropShadow_839_14750" result="shape"/>
</filter>
<filter id="filter4_d_839_14750" x="263.5" y="22.6943" width="25.9766" height="29.3535" filterUnits="userSpaceOnUse" color-interpolation-filters="sRGB">
<feFlood flood-opacity="0" result="BackgroundImageFix"/>
<feColorMatrix in="SourceAlpha" type="matrix" values="0 0 0 0 0 0 0 0 0 0 0 0 0 0 0 0 0 0 127 0" result="hardAlpha"/>
<feOffset dx="1.5" dy="0.999999"/>
<feGaussianBlur stdDeviation="0.999999"/>
<feComposite in2="hardAlpha" operator="out"/>
<feColorMatrix type="matrix" values="0 0 0 0 0 0 0 0 0 0 0 0 0 0 0 0 0 0 0.5 0"/>
<feBlend mode="normal" in2="BackgroundImageFix" result="effect1_dropShadow_839_14750"/>
<feBlend mode="normal" in="SourceGraphic" in2="effect1_dropShadow_839_14750" result="shape"/>
</filter>
</defs>
</svg>
