<svg width="32" height="32" viewBox="0 0 32 32" fill="none" xmlns="http://www.w3.org/2000/svg">
<g id="Group">
<path id="Vector" d="M22.3427 4.00078L19.676 6.66745H6.66667V25.3341H25.3333V12.3248L28 9.65811V26.6674C28 27.0211 27.8595 27.3602 27.6095 27.6103C27.3594 27.8603 27.0203 28.0008 26.6667 28.0008H5.33333C4.97971 28.0008 4.64057 27.8603 4.39052 27.6103C4.14048 27.3602 4 27.0211 4 26.6674V5.33411C4 4.98049 4.14048 4.64135 4.39052 4.39131C4.64057 4.14126 4.97971 4.00078 5.33333 4.00078H22.3427ZM27.3133 2.80078L29.2 4.68878L16.944 16.9448L15.0613 16.9488L15.0587 15.0594L27.3133 2.80078Z" fill="white" fill-opacity="0.65"/>
</g>
</svg>
