<svg width="309" height="73" viewBox="0 0 309 73" fill="none" xmlns="http://www.w3.org/2000/svg">
<g filter="url(#filter0_ddi_817_13113)">
<path d="M27.6364 4H286.545C296.185 4 304 11.8147 304 21.4545V44L280.364 67.6363H21.4546C11.8147 67.6363 4 59.8216 4 50.1818V27.6363L27.6364 4Z" fill="white" fill-opacity="0.1" shape-rendering="crispEdges"/>
<path d="M4.625 27.8952L27.8952 4.625H286.545C295.84 4.625 303.375 12.1598 303.375 21.4545V43.7411L280.105 67.0113H21.4546C12.1599 67.0113 4.625 59.4764 4.625 50.1818V27.8952Z" stroke="white" stroke-opacity="0.55" stroke-width="1.25" shape-rendering="crispEdges"/>
</g>
<g filter="url(#filter1_i_817_13113)">
<path d="M286.547 67.6362L304.001 50.1816V67.6362H286.547Z" fill="#969696"/>
</g>
<g filter="url(#filter2_i_817_13113)">
<path d="M4 21.4545V14.1818L14.1818 4H21.4545V4.72727L4.72727 21.4545H4Z" fill="#969696"/>
</g>
<path d="M70.2855 48.1473C68.9327 48.1473 67.9891 47.8091 67.4545 47.1327C66.92 46.4455 66.6527 45.2564 66.6527 43.5655C66.6527 42.5727 67.0564 42.0764 67.8636 42.0764C68.66 42.0764 69.0582 42.5727 69.0582 43.5655V44.1545C69.0582 44.7873 69.1509 45.2127 69.3364 45.4309C69.5327 45.6382 69.9255 45.7418 70.5145 45.7418H76.5036C77.2782 45.7418 77.9709 45.5673 78.5818 45.2182C79.1927 44.8582 79.6727 44.3891 80.0218 43.8109C80.3709 43.2327 80.5454 42.6055 80.5454 41.9291C80.5454 41.2855 80.3764 40.7018 80.0382 40.1782C79.7109 39.6546 79.2473 39.24 78.6473 38.9346C78.0582 38.6182 77.3873 38.46 76.6345 38.46H73.82C72.7945 38.46 72.2818 38.0618 72.2818 37.2655C72.2818 36.4582 72.7945 36.0546 73.82 36.0546H76.6345C77.4091 36.0546 78.0909 35.9236 78.68 35.6618C79.2691 35.3891 79.7273 35.0182 80.0545 34.5491C80.3818 34.08 80.5454 33.54 80.5454 32.9291C80.5454 32.2855 80.3709 31.7018 80.0218 31.1782C79.6836 30.6436 79.2091 30.2236 78.5982 29.9182C77.9982 29.6018 77.3 29.4436 76.5036 29.4436H70.5145C69.9255 29.4436 69.5327 29.5527 69.3364 29.7709C69.1509 29.9782 69.0582 30.3927 69.0582 31.0146V31.6036C69.0582 32.6073 68.66 33.1091 67.8636 33.1091C67.0564 33.1091 66.6527 32.6073 66.6527 31.6036C66.6527 29.9127 66.92 28.7291 67.4545 28.0527C67.9891 27.3764 68.9327 27.0382 70.2855 27.0382H76.7327C77.9545 27.0382 79.0291 27.2782 79.9564 27.7582C80.8945 28.2273 81.6254 28.8873 82.1491 29.7382C82.6836 30.5891 82.9509 31.5764 82.9509 32.7C82.9509 33.6818 82.76 34.56 82.3782 35.3346C82.0073 36.1091 81.4564 36.7691 80.7254 37.3146C81.4564 37.8927 82.0073 38.5964 82.3782 39.4255C82.76 40.2545 82.9509 41.1655 82.9509 42.1582C82.9509 43.2927 82.6782 44.3127 82.1327 45.2182C81.5982 46.1236 80.8618 46.8382 79.9236 47.3618C78.9854 47.8855 77.9218 48.1473 76.7327 48.1473H70.2855ZM99.8021 48.3764C99.5185 48.3764 99.3003 48.2891 99.1476 48.1145C98.9948 47.94 98.8857 47.5964 98.8203 47.0836C98.7657 46.5709 98.7385 45.8127 98.7385 44.8091L99.0657 45.5782C98.4003 46.5164 97.5657 47.1818 96.5621 47.5745C95.5585 47.9564 94.3694 48.1473 92.9948 48.1473H89.9512C88.8167 48.1473 87.8894 47.7655 87.1694 47.0018C86.4603 46.2273 86.1058 45.0545 86.1058 43.4836C86.1058 42.4145 86.2803 41.5364 86.6294 40.8491C86.9785 40.1509 87.4967 39.6 88.1839 39.1964C88.8821 38.7927 89.7276 38.5091 90.7203 38.3455C91.7239 38.1709 92.8694 38.0836 94.1567 38.0836H99.7039L98.6239 39.0818V36.5782C98.6239 36.0327 98.5257 35.6618 98.3294 35.4655C98.1439 35.2691 97.7567 35.1709 97.1676 35.1709H92.553C91.5058 35.1709 90.693 35.2146 90.1148 35.3018C89.5367 35.3782 89.1276 35.52 88.8876 35.7273C88.6476 35.9236 88.5221 36.1909 88.5112 36.5291C88.4785 37.0309 88.3858 37.4018 88.233 37.6418C88.0912 37.8818 87.7803 38.0018 87.3003 38.0018C86.5039 38.0018 86.1058 37.4727 86.1058 36.4146C86.1058 35.16 86.6239 34.2382 87.6603 33.6491C88.7076 33.06 90.2621 32.7655 92.3239 32.7655H97.3967C98.7494 32.7655 99.693 33.0873 100.228 33.7309C100.762 34.3746 101.029 35.5036 101.029 37.1182V46.9527C101.029 47.9018 100.62 48.3764 99.8021 48.3764ZM90.033 45.84H92.9948C95.0348 45.84 96.4857 45.3709 97.3476 44.4327C98.2094 43.4945 98.6348 42.0545 98.6239 40.1127L98.9185 40.3909H94.1567C92.793 40.3909 91.6967 40.4673 90.8676 40.62C90.0385 40.7618 89.4385 41.0455 89.0676 41.4709C88.6967 41.8964 88.5112 42.5291 88.5112 43.3691C88.5112 44.1764 88.653 44.7927 88.9367 45.2182C89.2203 45.6327 89.5858 45.84 90.033 45.84ZM106.089 48.3764C105.282 48.3764 104.878 47.9018 104.878 46.9527V32.7655H120.849V46.9527C120.849 47.9018 120.451 48.3764 119.655 48.3764C118.847 48.3764 118.444 47.9018 118.444 46.9527V35.1709H107.284V46.9527C107.284 47.9018 106.885 48.3764 106.089 48.3764ZM128.258 54.8564C127.396 54.8564 126.698 54.7036 126.163 54.3982C125.64 54.1036 125.258 53.6673 125.018 53.0891C124.778 52.5218 124.658 51.84 124.658 51.0436C124.658 50.4873 124.756 50.0618 124.952 49.7673C125.16 49.4836 125.465 49.3418 125.869 49.3418C126.283 49.3418 126.583 49.4727 126.769 49.7345C126.965 50.0073 127.063 50.3618 127.063 50.7982C127.074 51.3982 127.167 51.8236 127.342 52.0745C127.527 52.3255 127.92 52.4509 128.52 52.4509H138.142C138.632 52.4509 138.943 52.3745 139.074 52.2218C139.216 52.0691 139.287 51.7145 139.287 51.1582V46.4782C137.967 47.5909 136.085 48.1473 133.642 48.1473H132.692C130.751 48.1473 129.185 47.9673 127.996 47.6073C126.818 47.2364 125.967 46.62 125.443 45.7582C124.92 44.8855 124.658 43.6964 124.658 42.1909V33.9764C124.658 33.0164 125.062 32.5364 125.869 32.5364C126.665 32.5364 127.063 33.0164 127.063 33.9764V42.1255C127.063 43.1509 127.205 43.9255 127.489 44.4491C127.772 44.9618 128.318 45.3055 129.125 45.48C129.932 45.6545 131.122 45.7418 132.692 45.7418H133.642C135.518 45.7418 136.925 45.3 137.863 44.4164C138.812 43.5218 139.287 42.1964 139.287 40.44V33.9764C139.287 33.0164 139.691 32.5364 140.498 32.5364C141.294 32.5364 141.692 33.0164 141.692 33.9764V50.6345C141.692 52.1836 141.447 53.2745 140.956 53.9073C140.465 54.54 139.603 54.8564 138.371 54.8564H128.258ZM153.253 48.1473C151.301 48.1473 149.735 47.9673 148.557 47.6073C147.379 47.2473 146.522 46.6364 145.988 45.7745C145.464 44.9018 145.202 43.7073 145.202 42.1909V38.7055C145.202 37.2 145.464 36.0164 145.988 35.1546C146.522 34.2818 147.379 33.6655 148.557 33.3055C149.735 32.9455 151.301 32.7655 153.253 32.7655H157.901C158.762 32.7655 159.455 32.9182 159.979 33.2236C160.513 33.5182 160.901 33.9491 161.141 34.5164C161.381 35.0836 161.501 35.7655 161.501 36.5618C161.501 37.1291 161.397 37.56 161.19 37.8546C160.993 38.1382 160.693 38.28 160.29 38.28C159.886 38.28 159.586 38.1382 159.39 37.8546C159.193 37.56 159.095 37.1891 159.095 36.7418C159.084 36.1855 158.986 35.7873 158.801 35.5473C158.626 35.2964 158.239 35.1709 157.639 35.1709H153.253C151.682 35.1709 150.488 35.2527 149.67 35.4164C148.862 35.58 148.317 35.9236 148.033 36.4473C147.75 36.96 147.608 37.74 147.608 38.7873V42.1255C147.608 43.1509 147.75 43.9255 148.033 44.4491C148.317 44.9618 148.862 45.3055 149.67 45.48C150.488 45.6545 151.682 45.7418 153.253 45.7418H157.639C158.25 45.7418 158.642 45.6273 158.817 45.3982C158.992 45.1582 159.084 44.7545 159.095 44.1873C159.095 43.7073 159.199 43.3309 159.406 43.0582C159.613 42.7745 159.902 42.6327 160.273 42.6327C160.655 42.6327 160.955 42.7745 161.173 43.0582C161.392 43.3309 161.501 43.7618 161.501 44.3509C161.501 45.1691 161.375 45.8618 161.124 46.4291C160.884 46.9964 160.497 47.4273 159.962 47.7218C159.428 48.0055 158.73 48.1473 157.868 48.1473H153.253ZM166.111 48.3764C165.751 48.3764 165.462 48.2509 165.244 48C165.037 47.7491 164.933 47.4218 164.933 47.0182V33.8946C164.933 33.4691 165.042 33.1364 165.26 32.8964C165.489 32.6564 165.795 32.5364 166.177 32.5364C166.526 32.5364 166.804 32.6618 167.011 32.9127C167.229 33.1527 167.338 33.48 167.338 33.8946V39.2291H170.595C170.867 39.2291 171.173 39.0491 171.511 38.6891C171.849 38.3182 172.286 37.7236 172.82 36.9055C173.235 36.2727 173.715 35.6182 174.26 34.9418C174.806 34.2655 175.515 33.6873 176.387 33.2073C177.249 32.7382 178.198 32.5036 179.235 32.5036C179.715 32.5036 180.097 32.6073 180.38 32.8146C180.664 33.0218 180.806 33.3164 180.806 33.6982C180.806 34.1236 180.664 34.4346 180.38 34.6309C180.097 34.8164 179.726 34.9091 179.267 34.9091C178.635 34.92 178.046 35.1491 177.5 35.5964C176.966 36.0436 176.36 36.7582 175.684 37.74C175.422 38.1327 175.187 38.4764 174.98 38.7709C174.773 39.0546 174.582 39.3055 174.407 39.5236C174.233 39.7418 174.053 39.9436 173.867 40.1291C174.806 40.5327 175.602 41.0673 176.257 41.7327C176.922 42.3873 177.38 43.0636 177.631 43.7618C177.926 44.4927 178.198 45.0436 178.449 45.4145C178.7 45.7745 178.973 45.96 179.267 45.9709C179.715 45.9709 180.08 46.0745 180.364 46.2818C180.658 46.4891 180.806 46.7836 180.806 47.1655C180.806 47.9727 180.287 48.3764 179.251 48.3764C178.487 48.3764 177.838 48.2291 177.304 47.9345C176.769 47.64 176.338 47.2309 176.011 46.7073C175.727 46.2927 175.482 45.8673 175.275 45.4309C175.067 44.9836 174.811 44.5364 174.506 44.0891C174.2 43.6309 173.769 43.1891 173.213 42.7636C172.307 42.0109 170.84 41.6345 168.811 41.6345H167.338V47.0509C167.338 47.4545 167.229 47.7764 167.011 48.0164C166.793 48.2564 166.493 48.3764 166.111 48.3764Z" fill="white" fill-opacity="0.55"/>
<path d="M243.531 28.6229L264.983 7.1709H286.179C294.269 7.1709 300.827 13.7289 300.827 21.8186V43.0142L279.375 64.4663H243.531V28.6229Z" stroke="white" stroke-opacity="0.55" stroke-width="1.25"/>
<path d="M269.82 25.0908L280.729 35.9999L269.82 46.909" stroke="white" stroke-opacity="0.55" stroke-width="2.18182" stroke-linecap="square" stroke-linejoin="round"/>
<path d="M267.635 33.8184L269.817 36.0002L267.635 38.182L265.453 36.0002L267.635 33.8184Z" fill="white" fill-opacity="0.55"/>
<path d="M262.182 33.8184L264.364 36.0002L262.182 38.182L260 36.0002L262.182 33.8184Z" fill="white" fill-opacity="0.55"/>
<defs>
<filter id="filter0_ddi_817_13113" x="0.500002" y="0.500002" width="308.5" height="72.1367" filterUnits="userSpaceOnUse" color-interpolation-filters="sRGB">
<feFlood flood-opacity="0" result="BackgroundImageFix"/>
<feColorMatrix in="SourceAlpha" type="matrix" values="0 0 0 0 0 0 0 0 0 0 0 0 0 0 0 0 0 0 127 0" result="hardAlpha"/>
<feOffset dx="-0.999999" dy="-0.999999"/>
<feGaussianBlur stdDeviation="1.25"/>
<feComposite in2="hardAlpha" operator="out"/>
<feColorMatrix type="matrix" values="0 0 0 0 0.0823529 0 0 0 0 0.0823529 0 0 0 0 0.0823529 0 0 0 0.25 0"/>
<feBlend mode="normal" in2="BackgroundImageFix" result="effect1_dropShadow_817_13113"/>
<feColorMatrix in="SourceAlpha" type="matrix" values="0 0 0 0 0 0 0 0 0 0 0 0 0 0 0 0 0 0 127 0" result="hardAlpha"/>
<feOffset dx="1.5" dy="1.5"/>
<feGaussianBlur stdDeviation="1.75"/>
<feComposite in2="hardAlpha" operator="out"/>
<feColorMatrix type="matrix" values="0 0 0 0 0.0823529 0 0 0 0 0.0823529 0 0 0 0 0.0823529 0 0 0 0.25 0"/>
<feBlend mode="normal" in2="effect1_dropShadow_817_13113" result="effect2_dropShadow_817_13113"/>
<feBlend mode="normal" in="SourceGraphic" in2="effect2_dropShadow_817_13113" result="shape"/>
<feColorMatrix in="SourceAlpha" type="matrix" values="0 0 0 0 0 0 0 0 0 0 0 0 0 0 0 0 0 0 127 0" result="hardAlpha"/>
<feOffset dx="4" dy="1.5"/>
<feGaussianBlur stdDeviation="1.75"/>
<feComposite in2="hardAlpha" operator="arithmetic" k2="-1" k3="1"/>
<feColorMatrix type="matrix" values="0 0 0 0 0.0823529 0 0 0 0 0.0823529 0 0 0 0 0.0823529 0 0 0 0.25 0"/>
<feBlend mode="normal" in2="shape" result="effect3_innerShadow_817_13113"/>
</filter>
<filter id="filter1_i_817_13113" x="286.547" y="50.1816" width="18.9531" height="18.9541" filterUnits="userSpaceOnUse" color-interpolation-filters="sRGB">
<feFlood flood-opacity="0" result="BackgroundImageFix"/>
<feBlend mode="normal" in="SourceGraphic" in2="BackgroundImageFix" result="shape"/>
<feColorMatrix in="SourceAlpha" type="matrix" values="0 0 0 0 0 0 0 0 0 0 0 0 0 0 0 0 0 0 127 0" result="hardAlpha"/>
<feOffset dx="1.5" dy="1.5"/>
<feGaussianBlur stdDeviation="0.75"/>
<feComposite in2="hardAlpha" operator="arithmetic" k2="-1" k3="1"/>
<feColorMatrix type="matrix" values="0 0 0 0 0.0833333 0 0 0 0 0.0833333 0 0 0 0 0.0833333 0 0 0 0.5 0"/>
<feBlend mode="normal" in2="shape" result="effect1_innerShadow_817_13113"/>
</filter>
<filter id="filter2_i_817_13113" x="4" y="4" width="18.9531" height="18.9541" filterUnits="userSpaceOnUse" color-interpolation-filters="sRGB">
<feFlood flood-opacity="0" result="BackgroundImageFix"/>
<feBlend mode="normal" in="SourceGraphic" in2="BackgroundImageFix" result="shape"/>
<feColorMatrix in="SourceAlpha" type="matrix" values="0 0 0 0 0 0 0 0 0 0 0 0 0 0 0 0 0 0 127 0" result="hardAlpha"/>
<feOffset dx="1.5" dy="1.5"/>
<feGaussianBlur stdDeviation="0.75"/>
<feComposite in2="hardAlpha" operator="arithmetic" k2="-1" k3="1"/>
<feColorMatrix type="matrix" values="0 0 0 0 0.0833333 0 0 0 0 0.0833333 0 0 0 0 0.0833333 0 0 0 0.5 0"/>
<feBlend mode="normal" in2="shape" result="effect1_innerShadow_817_13113"/>
</filter>
</defs>
</svg>
