<svg width="232" height="48" viewBox="0 0 232 48" fill="none" xmlns="http://www.w3.org/2000/svg">
<g id="Navmenu" clip-path="url(#clip0_382_2390)">
<path id="Rectangle 11" d="M0 0H232V36L220 48H0V0Z" fill="white" fill-opacity="0.85"/>
<path id="&#208;&#151;&#208;&#176;&#208;&#179;&#209;&#128;&#209;&#131;&#208;&#183;&#208;&#184;&#209;&#130;&#209;&#140;" d="M28.41 32.084C27.2993 32.084 26.5293 31.804 26.1 31.244C25.6707 30.684 25.456 29.7087 25.456 28.318C25.456 27.562 25.75 27.184 26.338 27.184C26.926 27.184 27.22 27.562 27.22 28.318V28.822C27.22 29.3913 27.3133 29.7833 27.5 29.998C27.696 30.2127 28.0647 30.32 28.606 30.32H33.73C34.3833 30.32 34.9667 30.152 35.48 29.816C35.9933 29.48 36.3947 29.0507 36.684 28.528C36.9827 27.996 37.132 27.4407 37.132 26.862C37.132 26.2927 36.9873 25.77 36.698 25.294C36.418 24.8087 36.0307 24.4213 35.536 24.132C35.0413 23.8427 34.4767 23.698 33.842 23.698H31.434C30.6593 23.698 30.272 23.404 30.272 22.816C30.272 22.228 30.6593 21.934 31.434 21.934H33.842C34.486 21.934 35.0553 21.808 35.55 21.556C36.0447 21.304 36.432 20.9633 36.712 20.534C36.992 20.0953 37.132 19.6053 37.132 19.064C37.132 18.4947 36.9873 17.9673 36.698 17.482C36.4087 16.9967 36.0073 16.6093 35.494 16.32C34.99 16.0213 34.402 15.872 33.73 15.872H28.606C28.0647 15.872 27.696 15.9793 27.5 16.194C27.3133 16.3993 27.22 16.7913 27.22 17.37V17.874C27.22 18.63 26.926 19.008 26.338 19.008C25.75 19.008 25.456 18.63 25.456 17.874C25.456 16.474 25.6707 15.4987 26.1 14.948C26.5293 14.388 27.2993 14.108 28.41 14.108H33.926C34.8967 14.108 35.7553 14.3133 36.502 14.724C37.2487 15.1253 37.832 15.6853 38.252 16.404C38.6813 17.1133 38.896 17.9347 38.896 18.868C38.896 19.7267 38.7187 20.4967 38.364 21.178C38.0187 21.85 37.5287 22.4053 36.894 22.844C37.5287 23.32 38.0187 23.922 38.364 24.65C38.7187 25.3687 38.896 26.1667 38.896 27.044C38.896 27.9773 38.6767 28.8267 38.238 29.592C37.8087 30.348 37.216 30.9547 36.46 31.412C35.7133 31.86 34.8687 32.084 33.926 32.084H28.41ZM53.0157 32.28C52.7823 32.28 52.6097 32.196 52.4977 32.028C52.3857 31.8693 52.311 31.5707 52.2737 31.132C52.2457 30.6933 52.227 30.068 52.2177 29.256L52.4697 29.858C51.9283 30.642 51.2377 31.2113 50.3977 31.566C49.5577 31.9113 48.559 32.084 47.4017 32.084H44.7977C43.8643 32.084 43.1037 31.7667 42.5157 31.132C41.937 30.4973 41.6477 29.522 41.6477 28.206C41.6477 27.2353 41.811 26.4513 42.1377 25.854C42.4643 25.2567 42.9217 24.7993 43.5097 24.482C44.0977 24.1553 44.7883 23.936 45.5817 23.824C46.3843 23.7027 47.2523 23.642 48.1857 23.642H52.9457L52.1477 24.384V22.186C52.1477 21.6447 52.0543 21.276 51.8677 21.08C51.681 20.8747 51.3123 20.772 50.7617 20.772H46.8137C45.9737 20.772 45.3063 20.8187 44.8117 20.912C44.317 21.0053 43.9623 21.1547 43.7477 21.36C43.533 21.5653 43.421 21.8407 43.4117 22.186C43.393 22.5407 43.3323 22.8113 43.2297 22.998C43.127 23.1847 42.8937 23.278 42.5297 23.278C41.9417 23.278 41.6477 22.8767 41.6477 22.074C41.6477 21.0287 42.077 20.2587 42.9357 19.764C43.8037 19.26 45.031 19.008 46.6177 19.008H50.9577C52.0683 19.008 52.8383 19.2787 53.2677 19.82C53.697 20.352 53.9117 21.2947 53.9117 22.648V31.188C53.9117 31.916 53.613 32.28 53.0157 32.28ZM44.8397 30.376H47.4017C49.1377 30.376 50.3697 29.9327 51.0977 29.046C51.8257 28.1593 52.1757 26.82 52.1477 25.028L52.4977 25.35H48.1857C47.0843 25.35 46.179 25.4153 45.4697 25.546C44.7697 25.6673 44.2517 25.924 43.9157 26.316C43.5797 26.708 43.4117 27.3007 43.4117 28.094C43.4117 28.8687 43.5517 29.4427 43.8317 29.816C44.1117 30.1893 44.4477 30.376 44.8397 30.376ZM58.1523 32.28C57.8817 32.28 57.667 32.1867 57.5083 32C57.359 31.8133 57.2843 31.566 57.2843 31.258V19.848C57.2843 19.512 57.3637 19.2553 57.5223 19.078C57.6903 18.9007 57.9143 18.812 58.1943 18.812C58.465 18.812 58.675 18.9053 58.8243 19.092C58.9737 19.2693 59.0483 19.5213 59.0483 19.848V24.65H61.9463C62.2357 24.65 62.5343 24.4727 62.8423 24.118C63.1503 23.7633 63.5097 23.2547 63.9203 22.592C64.2657 22.0693 64.6577 21.5093 65.0963 20.912C65.5443 20.3147 66.1277 19.806 66.8463 19.386C67.5463 18.9847 68.307 18.784 69.1283 18.784C69.5203 18.784 69.8237 18.8587 70.0383 19.008C70.253 19.1573 70.3603 19.3767 70.3603 19.666C70.3603 20.002 70.2437 20.2353 70.0103 20.366C69.777 20.4873 69.5063 20.548 69.1983 20.548C68.6103 20.5667 68.0783 20.7767 67.6023 21.178C67.1357 21.57 66.6597 22.1253 66.1743 22.844C65.8943 23.3013 65.6563 23.6747 65.4603 23.964C65.2643 24.2533 65.0823 24.5007 64.9143 24.706C64.7463 24.9113 64.5643 25.1167 64.3683 25.322C65.2457 25.6767 65.955 26.1387 66.4963 26.708C67.0377 27.2773 67.425 27.8747 67.6583 28.5C67.9197 29.172 68.1577 29.6713 68.3723 29.998C68.5963 30.3153 68.8717 30.488 69.1983 30.516C69.5343 30.516 69.8097 30.586 70.0243 30.726C70.2483 30.866 70.3603 31.0853 70.3603 31.384C70.3603 31.9813 69.9637 32.28 69.1703 32.28C68.517 32.28 67.971 32.126 67.5323 31.818C67.0937 31.51 66.7343 31.104 66.4543 30.6C66.2583 30.2733 66.067 29.9187 65.8803 29.536C65.6937 29.1533 65.4557 28.766 65.1663 28.374C64.8863 27.9727 64.4943 27.5993 63.9903 27.254C63.225 26.694 62.049 26.414 60.4623 26.414H59.0483V31.272C59.0483 31.5893 58.969 31.8367 58.8103 32.014C58.661 32.1913 58.4417 32.28 58.1523 32.28ZM83.7511 32.28C83.5178 32.28 83.3451 32.196 83.2331 32.028C83.1211 31.8693 83.0465 31.5707 83.0091 31.132C82.9811 30.6933 82.9625 30.068 82.9531 29.256L83.2051 29.858C82.6638 30.642 81.9731 31.2113 81.1331 31.566C80.2931 31.9113 79.2945 32.084 78.1371 32.084H75.5331C74.5998 32.084 73.8391 31.7667 73.2511 31.132C72.6725 30.4973 72.3831 29.522 72.3831 28.206C72.3831 27.2353 72.5465 26.4513 72.8731 25.854C73.1998 25.2567 73.6571 24.7993 74.2451 24.482C74.8331 24.1553 75.5238 23.936 76.3171 23.824C77.1198 23.7027 77.9878 23.642 78.9211 23.642H83.6811L82.8831 24.384V22.186C82.8831 21.6447 82.7898 21.276 82.6031 21.08C82.4165 20.8747 82.0478 20.772 81.4971 20.772H77.5491C76.7091 20.772 76.0418 20.8187 75.5471 20.912C75.0525 21.0053 74.6978 21.1547 74.4831 21.36C74.2685 21.5653 74.1565 21.8407 74.1471 22.186C74.1285 22.5407 74.0678 22.8113 73.9651 22.998C73.8625 23.1847 73.6291 23.278 73.2651 23.278C72.6771 23.278 72.3831 22.8767 72.3831 22.074C72.3831 21.0287 72.8125 20.2587 73.6711 19.764C74.5391 19.26 75.7665 19.008 77.3531 19.008H81.6931C82.8038 19.008 83.5738 19.2787 84.0031 19.82C84.4325 20.352 84.6471 21.2947 84.6471 22.648V31.188C84.6471 31.916 84.3485 32.28 83.7511 32.28ZM75.5751 30.376H78.1371C79.8731 30.376 81.1051 29.9327 81.8331 29.046C82.5611 28.1593 82.9111 26.82 82.8831 25.028L83.2331 25.35H78.9211C77.8198 25.35 76.9145 25.4153 76.2051 25.546C75.5051 25.6673 74.9871 25.924 74.6511 26.316C74.3151 26.708 74.1471 27.3007 74.1471 28.094C74.1471 28.8687 74.2871 29.4427 74.5671 29.816C74.8471 30.1893 75.1831 30.376 75.5751 30.376ZM90.5538 32.084C89.4431 32.084 88.6731 31.804 88.2438 31.244C87.8145 30.684 87.5998 29.7087 87.5998 28.318C87.5998 27.562 87.8938 27.184 88.4818 27.184C89.0698 27.184 89.3638 27.562 89.3638 28.318V28.822C89.3638 29.3913 89.4571 29.7833 89.6438 29.998C89.8398 30.2127 90.2085 30.32 90.7498 30.32H95.8738C98.1418 30.32 99.2758 29.802 99.2758 28.766C99.2758 27.8793 99.0145 27.2353 98.4918 26.834C97.9785 26.4233 97.1431 26.218 95.9858 26.218H93.5778C92.8031 26.218 92.4158 25.9427 92.4158 25.392C92.4158 24.7667 92.8031 24.454 93.5778 24.454H95.9858C96.8071 24.454 97.4558 24.3933 97.9318 24.272C98.4171 24.1507 98.7671 23.936 98.9818 23.628C99.1965 23.32 99.3038 22.886 99.3038 22.326C99.3038 21.29 98.1605 20.772 95.8738 20.772H90.7498C90.2085 20.772 89.8398 20.8793 89.6438 21.094C89.4571 21.2993 89.3638 21.6913 89.3638 22.27V22.774C89.3638 23.53 89.0698 23.908 88.4818 23.908C87.8938 23.908 87.5998 23.53 87.5998 22.774C87.5998 21.374 87.8145 20.3987 88.2438 19.848C88.6731 19.288 89.4431 19.008 90.5538 19.008H96.0698C97.6098 19.008 98.8231 19.3067 99.7098 19.904C100.596 20.5013 101.04 21.416 101.04 22.648C101.04 23.376 100.904 23.95 100.634 24.37C100.372 24.79 99.9945 25.126 99.4998 25.378C100.526 26.078 101.04 27.072 101.04 28.36C101.04 29.6387 100.596 30.5813 99.7098 31.188C98.8231 31.7853 97.6098 32.084 96.0698 32.084H90.5538ZM115.143 32.28C114.91 32.28 114.737 32.196 114.625 32.028C114.513 31.8693 114.438 31.5707 114.401 31.132C114.373 30.6933 114.354 30.068 114.345 29.256L114.597 29.858C114.056 30.642 113.365 31.2113 112.525 31.566C111.685 31.9113 110.686 32.084 109.529 32.084H106.925C105.992 32.084 105.231 31.7667 104.643 31.132C104.064 30.4973 103.775 29.522 103.775 28.206C103.775 27.2353 103.938 26.4513 104.265 25.854C104.592 25.2567 105.049 24.7993 105.637 24.482C106.225 24.1553 106.916 23.936 107.709 23.824C108.512 23.7027 109.38 23.642 110.313 23.642H115.073L114.275 24.384V22.186C114.275 21.6447 114.182 21.276 113.995 21.08C113.808 20.8747 113.44 20.772 112.889 20.772H108.941C108.101 20.772 107.434 20.8187 106.939 20.912C106.444 21.0053 106.09 21.1547 105.875 21.36C105.66 21.5653 105.548 21.8407 105.539 22.186C105.52 22.5407 105.46 22.8113 105.357 22.998C105.254 23.1847 105.021 23.278 104.657 23.278C104.069 23.278 103.775 22.8767 103.775 22.074C103.775 21.0287 104.204 20.2587 105.063 19.764C105.931 19.26 107.158 19.008 108.745 19.008H113.085C114.196 19.008 114.966 19.2787 115.395 19.82C115.824 20.352 116.039 21.2947 116.039 22.648V31.188C116.039 31.916 115.74 32.28 115.143 32.28ZM106.967 30.376H109.529C111.265 30.376 112.497 29.9327 113.225 29.046C113.953 28.1593 114.303 26.82 114.275 25.028L114.625 25.35H110.313C109.212 25.35 108.306 25.4153 107.597 25.546C106.897 25.6673 106.379 25.924 106.043 26.316C105.707 26.708 105.539 27.3007 105.539 28.094C105.539 28.8687 105.679 29.4427 105.959 29.816C106.239 30.1893 106.575 30.376 106.967 30.376ZM124.004 32.28C123.378 32.28 123.066 31.944 123.066 31.272V20.772H118.88C118.161 20.772 117.802 20.478 117.802 19.89C117.802 19.302 118.161 19.008 118.88 19.008H129.128C129.846 19.008 130.206 19.302 130.206 19.89C130.206 20.478 129.846 20.772 129.128 20.772H124.97V31.272C124.97 31.5893 124.886 31.8367 124.718 32.014C124.55 32.1913 124.312 32.28 124.004 32.28ZM132.059 32.084V19.932C132.059 19.1853 132.353 18.812 132.941 18.812C133.529 18.812 133.823 19.1853 133.823 19.932V24.454H139.801C140.735 24.454 141.547 24.594 142.237 24.874C142.928 25.1447 143.465 25.56 143.847 26.12C144.239 26.68 144.435 27.394 144.435 28.262C144.435 29.1207 144.244 29.8347 143.861 30.404C143.479 30.964 142.937 31.384 142.237 31.664C141.547 31.9347 140.735 32.0747 139.801 32.084H132.059ZM133.823 30.32H139.577C140.52 30.32 141.271 30.1707 141.831 29.872C142.401 29.564 142.685 29.046 142.685 28.318C142.685 27.702 142.545 27.2447 142.265 26.946C141.985 26.6473 141.612 26.4513 141.145 26.358C140.679 26.2647 140.156 26.218 139.577 26.218H133.823V30.32Z" fill="black"/>
<g id="Icons" clip-path="url(#clip1_382_2390)">
<g id="Group">
<path id="Vector" d="M200.488 22.2427C201.739 24.4406 203.559 26.2609 205.757 27.512L206.936 25.8613C207.126 25.5959 207.406 25.4092 207.724 25.3364C208.042 25.2637 208.375 25.31 208.661 25.4667C210.547 26.4972 212.63 27.117 214.772 27.2853C215.106 27.3118 215.418 27.4634 215.646 27.7098C215.874 27.9561 216 28.2793 216 28.6147V34.564C216 34.8941 215.878 35.2125 215.656 35.4576C215.435 35.7027 215.131 35.857 214.803 35.8907C214.096 35.964 213.384 36 212.667 36C201.253 36 192 26.7467 192 15.3333C192 14.616 192.036 13.904 192.109 13.1973C192.143 12.8689 192.297 12.5647 192.542 12.3435C192.787 12.1223 193.106 11.9999 193.436 12H199.385C199.721 12 200.044 12.1263 200.29 12.3539C200.537 12.5815 200.688 12.8936 200.715 13.228C200.883 15.3704 201.503 17.4529 202.533 19.3387C202.69 19.6248 202.736 19.9583 202.664 20.2763C202.591 20.5942 202.404 20.8745 202.139 21.064L200.488 22.2427ZM197.125 21.3667L199.659 19.5573C198.94 18.0055 198.447 16.3585 198.196 14.6667H194.68C194.672 14.888 194.668 15.1107 194.668 15.3333C194.667 25.2747 202.725 33.3333 212.667 33.3333C212.889 33.3333 213.112 33.3293 213.333 33.32V29.804C211.642 29.5529 209.995 29.0603 208.443 28.3413L206.633 30.8747C205.905 30.5916 205.197 30.2575 204.516 29.8747L204.439 29.8307C201.823 28.3423 199.658 26.1766 198.169 23.5613L198.125 23.484C197.743 22.8027 197.408 22.0951 197.125 21.3667Z" fill="black"/>
</g>
</g>
</g>
<defs>
<clipPath id="clip0_382_2390">
<rect width="232" height="48" fill="white"/>
</clipPath>
<clipPath id="clip1_382_2390">
<rect width="32" height="32" fill="white" transform="translate(188 8)"/>
</clipPath>
</defs>
</svg>
