<svg width="32" height="32" viewBox="0 0 32 32" fill="none" xmlns="http://www.w3.org/2000/svg">
<g id="Group">
<path id="Vector" d="M20.3228 6.0205L11.3388 15.0032L10.3962 17.8312L9.0095 19.2192L12.7802 22.9912L14.1668 21.6032L16.9962 20.6605L25.9788 11.6765L20.3228 6.0205V6.0205ZM28.8082 10.7338C29.0581 10.9839 29.1985 11.3229 29.1985 11.6765C29.1985 12.03 29.0581 12.3691 28.8082 12.6192L18.4362 22.9912L15.6095 23.9338L13.7228 25.8192C13.4728 26.0691 13.1337 26.2095 12.7802 26.2095C12.4266 26.2095 12.0875 26.0691 11.8375 25.8192L6.18017 20.1618C5.93021 19.9118 5.78978 19.5727 5.78978 19.2192C5.78978 18.8656 5.93021 18.5265 6.18017 18.2765L8.0655 16.3912L9.00817 13.5632L19.3802 3.19116C19.6302 2.9412 19.9693 2.80078 20.3228 2.80078C20.6764 2.80078 21.0155 2.9412 21.2655 3.19116L28.8082 10.7338V10.7338ZM20.3228 9.79116L22.2082 11.6765L15.6082 18.2765L13.7228 16.3912L20.3228 9.79116V9.79116ZM5.7095 22.5205L9.48017 26.2925L7.59483 28.1778L1.9375 26.2925L5.70817 22.5205H5.7095Z" fill="#191919"/>
</g>
</svg>
