<svg width="32" height="32" viewBox="0 0 32 32" fill="none" xmlns="http://www.w3.org/2000/svg">
<g id="Group">
<path id="Vector" d="M15.9974 29.3327C8.6334 29.3327 2.66406 23.3633 2.66406 15.9993C2.66406 8.63535 8.6334 2.66602 15.9974 2.66602C23.3614 2.66602 29.3307 8.63535 29.3307 15.9993C29.3307 23.3633 23.3614 29.3327 15.9974 29.3327ZM9.34806 24.3407C11.2355 25.8496 13.581 26.6699 15.9974 26.666C18.6241 26.666 21.0281 25.7167 22.8867 24.1433C22.0184 23.2523 20.9801 22.5445 19.8334 22.0618C18.6868 21.579 17.4549 21.3311 16.2107 21.3327C14.9208 21.3312 13.6447 21.5978 12.4633 22.1156C11.282 22.6334 10.2211 23.3912 9.34806 24.3407ZM7.4854 22.426C8.606 21.2368 9.95829 20.2896 11.4589 19.643C12.9595 18.9963 14.5767 18.6638 16.2107 18.666C17.7863 18.664 19.3467 18.9732 20.8024 19.5759C22.2581 20.1785 23.5804 21.0629 24.6934 22.178C25.8348 20.5715 26.5089 18.6802 26.6408 16.7139C26.7727 14.7476 26.3573 12.7832 25.4407 11.0386C24.5241 9.29405 23.1421 7.83751 21.448 6.83061C19.7539 5.8237 17.814 5.3058 15.8435 5.33435C13.873 5.3629 11.9489 5.93679 10.2848 6.99236C8.62057 8.04792 7.28134 9.54388 6.41565 11.3143C5.54996 13.0847 5.19165 15.0603 5.38048 17.0219C5.56931 18.9836 6.29789 20.8546 7.4854 22.4273V22.426ZM15.9974 17.3327C14.5829 17.3327 13.2264 16.7708 12.2262 15.7706C11.226 14.7704 10.6641 13.4138 10.6641 11.9993C10.6641 10.5849 11.226 9.22831 12.2262 8.22811C13.2264 7.22792 14.5829 6.66602 15.9974 6.66602C17.4119 6.66602 18.7684 7.22792 19.7686 8.22811C20.7688 9.22831 21.3307 10.5849 21.3307 11.9993C21.3307 13.4138 20.7688 14.7704 19.7686 15.7706C18.7684 16.7708 17.4119 17.3327 15.9974 17.3327ZM15.9974 14.666C16.7046 14.666 17.3829 14.3851 17.883 13.885C18.3831 13.3849 18.6641 12.7066 18.6641 11.9993C18.6641 11.2921 18.3831 10.6138 17.883 10.1137C17.3829 9.61363 16.7046 9.33268 15.9974 9.33268C15.2902 9.33268 14.6119 9.61363 14.1118 10.1137C13.6117 10.6138 13.3307 11.2921 13.3307 11.9993C13.3307 12.7066 13.6117 13.3849 14.1118 13.885C14.6119 14.3851 15.2902 14.666 15.9974 14.666Z" fill="white"/>
</g>
</svg>
