<svg width="32" height="32" viewBox="0 0 32 32" fill="none" xmlns="http://www.w3.org/2000/svg">
<g id="Group">
<path id="Vector" d="M15.9974 29.3327C8.6334 29.3327 2.66406 23.3633 2.66406 15.9993C2.66406 8.63535 8.6334 2.66602 15.9974 2.66602C23.3614 2.66602 29.3307 8.63535 29.3307 15.9993C29.3307 23.3633 23.3614 29.3327 15.9974 29.3327ZM15.9974 26.666C18.8264 26.666 21.5395 25.5422 23.5399 23.5418C25.5403 21.5414 26.6641 18.8283 26.6641 15.9993C26.6641 13.1704 25.5403 10.4573 23.5399 8.45688C21.5395 6.45649 18.8264 5.33268 15.9974 5.33268C13.1684 5.33268 10.4553 6.45649 8.45492 8.45688C6.45454 10.4573 5.33073 13.1704 5.33073 15.9993C5.33073 18.8283 6.45454 21.5414 8.45492 23.5418C10.4553 25.5422 13.1684 26.666 15.9974 26.666ZM14.6641 9.33268H17.3307V11.9993H14.6641V9.33268ZM14.6641 14.666H17.3307V22.666H14.6641V14.666Z" fill="#191919"/>
</g>
</svg>
