<svg width="232" height="48" viewBox="0 0 232 48" fill="none" xmlns="http://www.w3.org/2000/svg">
<g clip-path="url(#clip0_382_2480)">
<path d="M0 0H232V36L220 48H0V0Z" fill="white" fill-opacity="0.85"/>
<path d="M27.094 32.084C26.5433 32.084 26.268 31.706 26.268 30.95V15.242C26.268 14.486 26.5433 14.108 27.094 14.108H32.19C34.3833 14.108 35.9887 14.4347 37.006 15.088C38.0233 15.7413 38.532 16.88 38.532 18.504C38.532 19.2507 38.4247 19.89 38.21 20.422C38.0047 20.9447 37.6873 21.374 37.258 21.71C38.0793 22.0553 38.6907 22.6013 39.092 23.348C39.5027 24.0853 39.708 25.07 39.708 26.302V26.974C39.708 28.29 39.4887 29.3213 39.05 30.068C38.6113 30.8053 37.9113 31.328 36.95 31.636C35.998 31.9347 34.7473 32.084 33.198 32.084H27.094ZM28.032 30.32H33.198C34.038 30.32 34.7847 30.2873 35.438 30.222C36.1007 30.1473 36.6233 29.9747 37.006 29.704C37.3793 29.452 37.6267 29.1067 37.748 28.668C37.8787 28.22 37.944 27.6553 37.944 26.974V26.344C37.944 25.5507 37.8693 24.9487 37.72 24.538C37.5707 24.118 37.3233 23.796 36.978 23.572C36.614 23.32 36.1613 23.1613 35.62 23.096C35.0787 23.0307 34.3553 22.998 33.45 22.998H28.032V30.32ZM28.032 21.234H32.19C33.3567 21.234 34.2713 21.164 34.934 21.024C35.5967 20.8747 36.068 20.6087 36.348 20.226C36.628 19.8433 36.768 19.2927 36.768 18.574C36.768 17.8647 36.628 17.3187 36.348 16.936C36.0773 16.5533 35.606 16.292 34.934 16.152C34.2713 16.012 33.3567 15.942 32.19 15.942H28.032V21.234ZM48.8152 32.084C47.2659 32.084 46.0106 31.9347 45.0492 31.636C44.0879 31.3373 43.3832 30.824 42.9352 30.096C42.4966 29.368 42.2772 28.3553 42.2772 27.058V24.034C42.2772 22.7367 42.4966 21.724 42.9352 20.996C43.3832 20.2587 44.0879 19.7453 45.0492 19.456C46.0106 19.1573 47.2659 19.008 48.8152 19.008H49.6272C51.1766 19.008 52.4272 19.1573 53.3792 19.456C54.3406 19.7547 55.0406 20.268 55.4792 20.996C55.9179 21.724 56.1372 22.7367 56.1372 24.034V25.294H44.0412V27.016C44.0412 27.9493 44.1719 28.654 44.4332 29.13C44.6946 29.5967 45.1659 29.914 45.8472 30.082C46.5379 30.2407 47.5272 30.32 48.8152 30.32H52.8472C53.3886 30.32 53.7526 30.2127 53.9392 29.998C54.1352 29.774 54.2332 29.3913 54.2332 28.85C54.2332 28.458 54.3172 28.164 54.4852 27.968C54.6532 27.7627 54.8679 27.66 55.1292 27.66C55.3999 27.66 55.6099 27.7627 55.7592 27.968C55.9179 28.1733 55.9972 28.4627 55.9972 28.836C55.9972 29.508 55.9086 30.0867 55.7312 30.572C55.5632 31.0573 55.2646 31.4307 54.8352 31.692C54.4059 31.9533 53.8086 32.084 53.0432 32.084H48.8152ZM44.0552 23.53H54.3732C54.3172 22.466 54.0139 21.752 53.4632 21.388C53.1272 21.1547 52.6372 20.996 51.9932 20.912C51.3492 20.8187 50.5606 20.772 49.6272 20.772H48.8152C47.8632 20.772 47.0699 20.814 46.4352 20.898C45.8006 20.9727 45.3152 21.122 44.9792 21.346C44.3912 21.7007 44.0832 22.4287 44.0552 23.53ZM59.9844 37.18C59.415 37.18 59.1304 36.802 59.1304 36.046V19.904C59.1304 19.176 59.429 18.812 60.0264 18.812C60.3344 18.812 60.5537 18.9147 60.6844 19.12C60.815 19.316 60.8804 19.6427 60.8804 20.1V21.472L60.5724 21.066C61.1324 20.3567 61.837 19.8387 62.6864 19.512C63.545 19.176 64.539 19.008 65.6684 19.008H66.4804C68.0297 19.008 69.2804 19.1573 70.2324 19.456C71.1937 19.7547 71.8937 20.268 72.3324 20.996C72.771 21.724 72.9904 22.7367 72.9904 24.034V27.058C72.9904 28.346 72.771 29.3587 72.3324 30.096C71.8937 30.824 71.1984 31.3373 70.2464 31.636C69.3037 31.9347 68.0624 32.084 66.5224 32.084H60.8944V36.046C60.8944 36.802 60.591 37.18 59.9844 37.18ZM60.8944 30.32H66.5224C67.801 30.32 68.7764 30.2407 69.4484 30.082C70.1297 29.914 70.5964 29.592 70.8484 29.116C71.1004 28.64 71.2264 27.94 71.2264 27.016V24.076C71.2264 23.1053 71.091 22.3867 70.8204 21.92C70.559 21.4533 70.083 21.1453 69.3924 20.996C68.711 20.8467 67.7404 20.772 66.4804 20.772H65.6684C64.0817 20.772 62.887 21.1687 62.0844 21.962C61.291 22.7553 60.8944 23.936 60.8944 25.504V30.32ZM76.9657 32.28C76.3777 32.28 76.0837 31.916 76.0837 31.188V19.932C76.0837 19.1853 76.3591 18.812 76.9097 18.812C77.5351 18.812 77.8477 19.1853 77.8477 19.932V24.286H87.4797V19.932C87.4797 19.1853 87.7737 18.812 88.3617 18.812C88.9497 18.812 89.2437 19.1853 89.2437 19.932V31.188C89.2437 31.916 88.9497 32.28 88.3617 32.28C87.7737 32.28 87.4797 31.916 87.4797 31.188V26.05H77.8477V31.188C77.8477 31.916 77.5537 32.28 76.9657 32.28ZM95.4676 37.824C94.7303 37.824 94.1516 37.6887 93.7316 37.418C93.3116 37.1567 93.0129 36.7927 92.8356 36.326C92.6583 35.8593 92.5696 35.3367 92.5696 34.758C92.5696 34.2913 92.6443 33.946 92.7936 33.722C92.9429 33.5073 93.1623 33.4 93.4516 33.4C93.7876 33.4 94.0163 33.512 94.1376 33.736C94.2683 33.96 94.3336 34.226 94.3336 34.534C94.3429 35.038 94.4269 35.416 94.5856 35.668C94.7536 35.9293 95.1316 36.06 95.7196 36.06H103.532C104.008 36.06 104.316 35.9807 104.456 35.822C104.596 35.6633 104.666 35.3273 104.666 34.814V30.46C103.583 31.5427 101.996 32.084 99.9056 32.084H99.0936C97.5443 32.084 96.2889 31.9347 95.3276 31.636C94.3756 31.3373 93.6756 30.824 93.2276 30.096C92.7889 29.3587 92.5696 28.346 92.5696 27.058V19.932C92.5696 19.1853 92.8636 18.812 93.4516 18.812C94.0396 18.812 94.3336 19.1853 94.3336 19.932V27.016C94.3336 27.9493 94.4643 28.654 94.7256 29.13C94.9869 29.5967 95.4583 29.914 96.1396 30.082C96.8303 30.2407 97.8149 30.32 99.0936 30.32H99.9056C101.464 30.32 102.645 29.9187 103.448 29.116C104.26 28.304 104.666 27.1187 104.666 25.56V19.932C104.666 19.1853 104.96 18.812 105.548 18.812C106.136 18.812 106.43 19.1853 106.43 19.932V34.366C106.43 35.6353 106.234 36.5267 105.842 37.04C105.459 37.5627 104.754 37.824 103.728 37.824H95.4676ZM114.474 32.28C113.848 32.28 113.536 31.944 113.536 31.272V20.772H109.35C108.631 20.772 108.272 20.478 108.272 19.89C108.272 19.302 108.631 19.008 109.35 19.008H119.598C120.316 19.008 120.676 19.302 120.676 19.89C120.676 20.478 120.316 20.772 119.598 20.772H115.44V31.272C115.44 31.5893 115.356 31.8367 115.188 32.014C115.02 32.1913 114.782 32.28 114.474 32.28ZM122.529 32.084V19.932C122.529 19.1853 122.823 18.812 123.411 18.812C123.999 18.812 124.293 19.1853 124.293 19.932V24.454H130.271C131.205 24.454 132.017 24.594 132.707 24.874C133.398 25.1447 133.935 25.56 134.317 26.12C134.709 26.68 134.905 27.394 134.905 28.262C134.905 29.1207 134.714 29.8347 134.331 30.404C133.949 30.964 133.407 31.384 132.707 31.664C132.017 31.9347 131.205 32.0747 130.271 32.084H122.529ZM124.293 30.32H130.047C130.99 30.32 131.741 30.1707 132.301 29.872C132.871 29.564 133.155 29.046 133.155 28.318C133.155 27.702 133.015 27.2447 132.735 26.946C132.455 26.6473 132.082 26.4513 131.615 26.358C131.149 26.2647 130.626 26.218 130.047 26.218H124.293V30.32ZM143.428 32.084C141.879 32.084 140.623 31.9347 139.662 31.636C138.701 31.3373 137.996 30.824 137.548 30.096C137.109 29.368 136.89 28.3553 136.89 27.058V24.034C136.89 22.7367 137.109 21.724 137.548 20.996C137.996 20.2587 138.701 19.7453 139.662 19.456C140.623 19.1573 141.879 19.008 143.428 19.008H147.432C148.169 19.008 148.748 19.1433 149.168 19.414C149.597 19.6753 149.896 20.0393 150.064 20.506C150.241 20.9633 150.33 21.486 150.33 22.074C150.33 22.5313 150.255 22.872 150.106 23.096C149.966 23.32 149.747 23.432 149.448 23.432C149.131 23.432 148.902 23.3153 148.762 23.082C148.631 22.8393 148.566 22.564 148.566 22.256C148.566 21.7707 148.482 21.402 148.314 21.15C148.146 20.898 147.768 20.772 147.18 20.772H143.428C142.159 20.772 141.179 20.8467 140.488 20.996C139.797 21.1453 139.317 21.458 139.046 21.934C138.785 22.4007 138.654 23.1147 138.654 24.076V27.016C138.654 27.9493 138.785 28.654 139.046 29.13C139.307 29.5967 139.779 29.914 140.46 30.082C141.151 30.2407 142.14 30.32 143.428 30.32H147.18C147.777 30.32 148.151 30.1987 148.3 29.956C148.459 29.7133 148.547 29.3447 148.566 28.85C148.585 28.4487 148.669 28.15 148.818 27.954C148.967 27.758 149.177 27.66 149.448 27.66C149.728 27.66 149.943 27.7673 150.092 27.982C150.251 28.1967 150.33 28.542 150.33 29.018C150.33 29.6433 150.237 30.1847 150.05 30.642C149.863 31.0993 149.555 31.454 149.126 31.706C148.697 31.958 148.113 32.084 147.376 32.084H143.428ZM153.095 32.308C152.274 32.308 151.863 32.014 151.863 31.426C151.863 30.838 152.241 30.544 152.997 30.544C153.436 30.544 153.823 30.3667 154.159 30.012C154.495 29.648 154.752 29.172 154.929 28.584C155.078 28.08 155.251 27.6553 155.447 27.31C155.643 26.9553 155.9 26.624 156.217 26.316C155.284 26.1013 154.607 25.728 154.187 25.196C153.776 24.664 153.571 23.936 153.571 23.012C153.571 21.9107 153.772 21.0753 154.173 20.506C154.584 19.9273 155.26 19.5353 156.203 19.33C157.146 19.1153 158.415 19.008 160.011 19.008H164.253C164.514 19.008 164.715 19.1013 164.855 19.288C165.004 19.4653 165.079 19.7267 165.079 20.072V31.328C165.079 31.6267 165 31.86 164.841 32.028C164.682 32.196 164.463 32.28 164.183 32.28C163.922 32.28 163.712 32.1913 163.553 32.014C163.394 31.846 163.315 31.6173 163.315 31.328V26.638H159.871C159.19 26.638 158.644 26.708 158.233 26.848C157.832 26.988 157.51 27.226 157.267 27.562C157.034 27.898 156.828 28.36 156.651 28.948C156.371 29.9187 155.895 30.7213 155.223 31.356C154.56 31.9907 153.851 32.308 153.095 32.308ZM159.115 24.874H163.315V20.772H159.115C158.219 20.772 157.491 20.8093 156.931 20.884C156.38 20.9587 155.974 21.1407 155.713 21.43C155.461 21.71 155.335 22.1627 155.335 22.788C155.335 23.432 155.461 23.9033 155.713 24.202C155.974 24.4913 156.38 24.678 156.931 24.762C157.491 24.8367 158.219 24.874 159.115 24.874Z" fill="black"/>
<g clip-path="url(#clip1_382_2480)">
<path d="M201.333 28.23L213.589 15.9727L215.476 17.858L201.333 32.0007L192.848 23.5153L194.733 21.63L201.333 28.23Z" fill="black"/>
</g>
</g>
<defs>
<clipPath id="clip0_382_2480">
<rect width="232" height="48" fill="white"/>
</clipPath>
<clipPath id="clip1_382_2480">
<rect width="32" height="32" fill="white" transform="translate(188 8)"/>
</clipPath>
</defs>
</svg>
