<svg width="32" height="32" viewBox="0 0 32 32" fill="none" xmlns="http://www.w3.org/2000/svg">
<g id="Group">
<path id="Vector" d="M9.33073 6.66732V2.66732C9.33073 2.3137 9.4712 1.97456 9.72125 1.72451C9.9713 1.47446 10.3104 1.33398 10.6641 1.33398H21.3307C21.6844 1.33398 22.0235 1.47446 22.2735 1.72451C22.5236 1.97456 22.6641 2.3137 22.6641 2.66732V6.66732H27.9974C28.351 6.66732 28.6902 6.80779 28.9402 7.05784C29.1903 7.30789 29.3307 7.64703 29.3307 8.00065V26.6673C29.3307 27.0209 29.1903 27.3601 28.9402 27.6101C28.6902 27.8602 28.351 28.0006 27.9974 28.0006H3.9974C3.64377 28.0006 3.30464 27.8602 3.05459 27.6101C2.80454 27.3601 2.66406 27.0209 2.66406 26.6673V8.00065C2.66406 7.64703 2.80454 7.30789 3.05459 7.05784C3.30464 6.80779 3.64377 6.66732 3.9974 6.66732H9.33073ZM11.9974 17.334H5.33073V25.334H26.6641V17.334H19.9974V21.334H11.9974V17.334ZM26.6641 9.33398H5.33073V14.6673H11.9974V12.0007H19.9974V14.6673H26.6641V9.33398ZM14.6641 14.6673V18.6673H17.3307V14.6673H14.6641ZM11.9974 4.00065V6.66732H19.9974V4.00065H11.9974Z" fill="white"/>
</g>
</svg>
