<svg width="24" height="24" viewBox="0 0 24 24" fill="none" xmlns="http://www.w3.org/2000/svg">
<path d="M13.0009 2V3.278L18.0009 4.946L21.6329 3.736L22.2659 5.632L19.2339 6.643L22.3299 15.155C21.2379 16.292 19.7009 17 18.0009 17C16.2999 17 14.7639 16.292 13.6719 15.155L16.7659 6.643L13.0009 5.387V19H17.0009V21H7.00087V19H11.0009V5.387L7.23287 6.643L10.3289 15.155C9.23787 16.292 7.70088 17 6.00087 17C4.29988 17 2.76388 16.292 1.67188 15.155L4.76587 6.643L1.73588 5.633L2.36888 3.735L6.00087 4.945L11.0009 3.278V2H13.0009ZM18.0009 9.103L16.0429 14.489C16.6299 14.82 17.2999 15 18.0009 15C18.7009 15 19.3709 14.82 19.9589 14.49L18.0009 9.102V9.103ZM6.00087 9.103L4.04287 14.489C4.62987 14.82 5.29988 15 6.00087 15C6.70087 15 7.37088 14.82 7.95888 14.49L6.00087 9.102V9.103Z" fill="white"/>
</svg>
