<svg width="64" height="64" viewBox="0 0 64 64" fill="none" xmlns="http://www.w3.org/2000/svg">
<g id="Group">
<path id="Vector" d="M29.3281 5.33301C42.5761 5.33301 53.3281 16.085 53.3281 29.333C53.3281 42.581 42.5761 53.333 29.3281 53.333C16.0801 53.333 5.32812 42.581 5.32812 29.333C5.32812 16.085 16.0801 5.33301 29.3281 5.33301ZM29.3281 47.9997C39.6401 47.9997 47.9948 39.645 47.9948 29.333C47.9948 19.0183 39.6401 10.6663 29.3281 10.6663C19.0135 10.6663 10.6615 19.0183 10.6615 29.333C10.6615 39.645 19.0135 47.9997 29.3281 47.9997ZM51.9548 48.189L59.4988 55.7303L55.7255 59.5037L48.1841 51.9597L51.9548 48.189Z" fill="#191919"/>
</g>
</svg>
