<svg width="32" height="32" viewBox="0 0 32 32" fill="none" xmlns="http://www.w3.org/2000/svg">
<g id="Group">
<path id="Vector" d="M16.0026 1.33398L28.6693 8.66732V23.334L16.0026 30.6673L3.33594 23.334V8.66732L16.0026 1.33398ZM16.0026 4.41532L6.0026 10.2047V21.7967L16.0026 27.586L26.0026 21.7967V10.2047L16.0026 4.41532ZM16.0026 21.334C14.5881 21.334 13.2316 20.7721 12.2314 19.7719C11.2312 18.7717 10.6693 17.4151 10.6693 16.0007C10.6693 14.5862 11.2312 13.2296 12.2314 12.2294C13.2316 11.2292 14.5881 10.6673 16.0026 10.6673C17.4171 10.6673 18.7736 11.2292 19.7738 12.2294C20.774 13.2296 21.3359 14.5862 21.3359 16.0007C21.3359 17.4151 20.774 18.7717 19.7738 19.7719C18.7736 20.7721 17.4171 21.334 16.0026 21.334ZM16.0026 18.6673C16.7098 18.6673 17.3881 18.3864 17.8882 17.8863C18.3883 17.3862 18.6693 16.7079 18.6693 16.0007C18.6693 15.2934 18.3883 14.6151 17.8882 14.115C17.3881 13.6149 16.7098 13.334 16.0026 13.334C15.2954 13.334 14.6171 13.6149 14.117 14.115C13.6169 14.6151 13.3359 15.2934 13.3359 16.0007C13.3359 16.7079 13.6169 17.3862 14.117 17.8863C14.6171 18.3864 15.2954 18.6673 16.0026 18.6673Z" fill="white"/>
</g>
</svg>
