<svg width="32" height="32" viewBox="0 0 32 32" fill="none" xmlns="http://www.w3.org/2000/svg">
<g id="Group">
<path id="Vector" d="M15.9974 26.666C18.8264 26.666 21.5395 25.5422 23.5399 23.5418C25.5403 21.5414 26.6641 18.8283 26.6641 15.9993C26.6641 13.1704 25.5403 10.4573 23.5399 8.45688C21.5395 6.45649 18.8264 5.33268 15.9974 5.33268C13.1684 5.33268 10.4553 6.45649 8.45492 8.45688C6.45454 10.4573 5.33073 13.1704 5.33073 15.9993C5.33073 18.8283 6.45454 21.5414 8.45492 23.5418C10.4553 25.5422 13.1684 26.666 15.9974 26.666ZM15.9974 29.3327C8.6334 29.3327 2.66406 23.3633 2.66406 15.9993C2.66406 8.63535 8.6334 2.66602 15.9974 2.66602C23.3614 2.66602 29.3307 8.63535 29.3307 15.9993C29.3307 23.3633 23.3614 29.3327 15.9974 29.3327ZM11.8507 17.5593L8.52006 16.5207C7.80006 16.3007 7.79606 15.8047 8.6814 15.4487L21.6587 10.4353C22.4121 10.1287 22.8387 10.5167 22.5947 11.4887L20.3854 21.9153C20.2307 22.658 19.7841 22.8353 19.1641 22.4927L15.7627 19.9753L14.1774 21.506C14.0147 21.6633 13.8827 21.798 13.6321 21.8313C13.3827 21.866 13.1774 21.7913 13.0267 21.378L11.8667 17.55L11.8507 17.5607V17.5593Z" fill="white"/>
</g>
</svg>
