<svg width="24" height="24" viewBox="0 0 24 24" fill="none" xmlns="http://www.w3.org/2000/svg">
<path fill-rule="evenodd" clip-rule="evenodd" d="M3.67098 10.8879C8.85357 8.62993 12.3094 7.14134 14.0386 6.42212C18.9757 4.36862 20.0015 4.0119 20.6702 4.00013C20.8173 3.99753 21.1461 4.03398 21.3591 4.20682C21.5389 4.35275 21.5884 4.5499 21.6121 4.68826C21.6358 4.82663 21.6653 5.14183 21.6418 5.38811C21.3743 8.1992 20.2166 15.021 19.6277 18.1694C19.3785 19.5017 18.8878 19.9484 18.4128 19.9921C17.3804 20.0871 16.5964 19.3098 15.5965 18.6543C14.0318 17.6287 13.1479 16.9902 11.6291 15.9893C9.87386 14.8327 11.0117 14.1969 12.012 13.158C12.2738 12.8861 16.8225 8.74867 16.9105 8.37335C16.9216 8.32641 16.9318 8.15143 16.8278 8.05904C16.7239 7.96664 16.5705 7.99824 16.4597 8.02337C16.3028 8.05898 13.8032 9.71112 8.96098 12.9798C8.25148 13.467 7.60884 13.7044 7.03305 13.6919C6.39829 13.6782 5.17727 13.333 4.26957 13.038C3.15623 12.6761 2.27138 12.4847 2.34843 11.8701C2.38856 11.55 2.82941 11.2226 3.67098 10.8879Z" fill="white"/>
</svg>
