<svg width="240" height="60" viewBox="0 0 240 60" fill="none" xmlns="http://www.w3.org/2000/svg">
<path d="M20 0H226C233.732 0 240 6.26801 240 14V40L220 60H14C6.26801 60 0 53.732 0 46V20L20 0Z" fill="black" fill-opacity="0.25"/>
<path d="M1 20.4142L20.4142 1H226C233.18 1 239 6.8203 239 14V39.5858L219.586 59H14C6.8203 59 1 53.1797 1 46V20.4142Z" stroke="white" stroke-opacity="0.15" stroke-width="2"/>
<path d="M240.001 46L240.001 60H226L240.001 46Z" fill="white"/>
<path d="M2 7V12L12 2H7L2 7Z" fill="white"/>
<path d="M201.964 5H226C230.971 5 235 9.02944 235 14V37.92L217.92 55H185V21.9643L201.964 5Z" fill="white" fill-opacity="0.1"/>
<path d="M201.964 5H226C230.971 5 235 9.02944 235 14V37.92L217.92 55H185V21.9643L201.964 5Z" stroke="white"/>
<g clip-path="url(#clip0_1858_18320)">
<path d="M211 39V29H219V39H211ZM201 31V21H209V31H201ZM207 29V23H203V29H207ZM201 39V33H209V39H201ZM203 37H207V35H203V37ZM213 37H217V31H213V37ZM211 21H219V27H211V21ZM213 23V25H217V23H213Z" fill="white" fill-opacity="0.55"/>
</g>
<path d="M32.16 24L25.58 38H22.6L24.46 33.78L19.88 24H23.12L26.6 32.68L25.26 32.62L29.14 24H32.16ZM42.5917 26.58H36.5117V38H33.6117V24H45.4917V38H42.5917V26.58ZM48.6098 24H51.4698V38H48.6098V24ZM50.3498 26.42V24H53.1298C54.2365 24 55.1765 24.18 55.9498 24.54C56.7365 24.9 57.3365 25.4133 57.7498 26.08C58.1632 26.7467 58.3698 27.54 58.3698 28.46C58.3698 29.3667 58.1632 30.16 57.7498 30.84C57.3365 31.5067 56.7365 32.02 55.9498 32.38C55.1765 32.74 54.2365 32.92 53.1298 32.92H50.3498V30.5H53.1298C53.8898 30.5 54.4898 30.3267 54.9298 29.98C55.3698 29.6333 55.5898 29.1267 55.5898 28.46C55.5898 27.78 55.3698 27.2733 54.9298 26.94C54.4898 26.5933 53.8898 26.42 53.1298 26.42H50.3498ZM61.1163 34.82L61.4563 32.56H68.1763L68.5163 34.82H61.1163ZM64.7763 28.54L62.6763 33.36L62.7363 34L60.8963 38H57.6763L64.7763 23.18L71.8763 38H68.6363L66.8363 34.12L66.8763 33.4L64.7763 28.54ZM75.535 30.9V29.6H77.795C78.2083 29.6 78.5683 29.5333 78.875 29.4C79.1817 29.2667 79.415 29.0733 79.575 28.82C79.7483 28.5667 79.835 28.2667 79.835 27.92C79.835 27.3867 79.6483 26.98 79.275 26.7C78.915 26.42 78.4217 26.28 77.795 26.28H76.255V35.72H78.095C78.575 35.72 79.0083 35.6533 79.395 35.52C79.7817 35.3733 80.0817 35.1467 80.295 34.84C80.5217 34.5333 80.635 34.14 80.635 33.66C80.635 33.3133 80.5683 33.02 80.435 32.78C80.315 32.5267 80.135 32.32 79.895 32.16C79.6683 31.9867 79.4017 31.8667 79.095 31.8C78.7883 31.72 78.455 31.68 78.095 31.68H75.535V30.12H78.355C79.035 30.12 79.6817 30.1933 80.295 30.34C80.9217 30.4867 81.4817 30.72 81.975 31.04C82.4683 31.3467 82.855 31.7467 83.135 32.24C83.4283 32.7333 83.575 33.3267 83.575 34.02C83.575 34.94 83.355 35.6933 82.915 36.28C82.4883 36.8667 81.8817 37.3 81.095 37.58C80.3083 37.86 79.395 38 78.355 38H73.395V24H78.055C78.9883 24 79.8083 24.1333 80.515 24.4C81.2217 24.6533 81.775 25.04 82.175 25.56C82.575 26.08 82.775 26.74 82.775 27.54C82.775 28.2467 82.575 28.8533 82.175 29.36C81.775 29.8667 81.2217 30.2533 80.515 30.52C79.8083 30.7733 78.9883 30.9 78.055 30.9H75.535ZM97.5922 24V38H94.6922V26.58H89.5722V32.42C89.5722 33.5933 89.3989 34.6 89.0522 35.44C88.7189 36.2667 88.1922 36.9 87.4722 37.34C86.7522 37.78 85.8255 38 84.6922 38V35.58C85.0122 35.58 85.2989 35.5067 85.5522 35.36C85.8055 35.2133 86.0189 35 86.1922 34.72C86.3655 34.44 86.4989 34.1067 86.5922 33.72C86.6855 33.3333 86.7322 32.9067 86.7322 32.44V24H97.5922ZM102.559 38V35.58H109.619V38H102.559ZM102.559 26.42V24H109.619V26.42H102.559ZM102.559 31.76V29.38H109.219V31.76H102.559ZM100.719 24H103.479V38H100.719V24ZM113.378 31.84V29.26H123.658V31.84H113.378ZM121.838 24H124.698V38H121.838V24ZM112.438 24H115.298V38H112.438V24ZM140.331 27.02L127.711 38.7L127.811 34.98L140.431 23.3L140.331 27.02ZM130.471 24V35.72L127.711 38.7V24H130.471ZM140.431 23.3V38H137.671V26.36L140.431 23.3ZM145.313 38V35.58H152.373V38H145.313ZM145.313 26.42V24H152.373V26.42H145.313ZM145.313 31.76V29.38H151.973V31.76H145.313ZM143.473 24H146.233V38H143.473V24Z" fill="white" fill-opacity="0.55"/>
<defs>
<clipPath id="clip0_1858_18320">
<rect width="24" height="24" fill="white" transform="translate(198 18)"/>
</clipPath>
</defs>
</svg>
