<svg width="240" height="60" viewBox="0 0 240 60" fill="none" xmlns="http://www.w3.org/2000/svg">
<path d="M20 0H226C233.732 0 240 6.26801 240 14V40L220 60H14C6.26801 60 0 53.732 0 46V20L20 0Z" fill="black" fill-opacity="0.35"/>
<path d="M1 20.4142L20.4142 1H226C233.18 1 239 6.8203 239 14V39.5858L219.586 59H14C6.8203 59 1 53.1797 1 46V20.4142Z" stroke="white" stroke-opacity="0.35" stroke-width="2"/>
<path d="M240.001 46L240.001 60H226L240.001 46Z" fill="white"/>
<path d="M2 7V12L12 2H7L2 7Z" fill="white"/>
<path d="M201.964 5H226C230.971 5 235 9.02944 235 14V37.92L217.92 55H185V21.9643L201.964 5Z" fill="white" fill-opacity="0.25"/>
<g clip-path="url(#clip0_1858_18086)">
<path d="M219 33L213 38.996L202.002 39C201.737 39.0011 201.483 38.8971 201.295 38.7109C201.108 38.5247 201.001 38.2715 201 38.007V21.993C201 21.445 201.445 21 201.993 21H218.007C218.555 21 219 21.456 219 22.002V33ZM217 23H203V37H211V32C211 31.7551 211.09 31.5187 211.253 31.3356C211.415 31.1526 211.64 31.0357 211.883 31.007L212 31L217 30.999V23ZM216.171 32.999L213 33V36.169L216.171 32.999Z" fill="white"/>
</g>
<path d="M23.82 31C23.82 31.92 24.0267 32.7267 24.44 33.42C24.8667 34.1 25.42 34.6267 26.1 35C26.78 35.36 27.52 35.54 28.32 35.54C28.9867 35.54 29.58 35.4533 30.1 35.28C30.62 35.1067 31.0867 34.8733 31.5 34.58C31.9267 34.2867 32.2933 33.9667 32.6 33.62V36.84C32.0267 37.2933 31.4 37.6467 30.72 37.9C30.0533 38.1533 29.2067 38.28 28.18 38.28C27.1133 38.28 26.12 38.1067 25.2 37.76C24.2933 37.4133 23.5 36.9133 22.82 36.26C22.1533 35.6067 21.6333 34.84 21.26 33.96C20.9 33.0667 20.72 32.08 20.72 31C20.72 29.92 20.9 28.94 21.26 28.06C21.6333 27.1667 22.1533 26.3933 22.82 25.74C23.5 25.0867 24.2933 24.5867 25.2 24.24C26.12 23.8933 27.1133 23.72 28.18 23.72C29.2067 23.72 30.0533 23.8467 30.72 24.1C31.4 24.3533 32.0267 24.7067 32.6 25.16V28.38C32.2933 28.0333 31.9267 27.7133 31.5 27.42C31.0867 27.1267 30.62 26.8933 30.1 26.72C29.58 26.5467 28.9867 26.46 28.32 26.46C27.52 26.46 26.78 26.6467 26.1 27.02C25.42 27.38 24.8667 27.9 24.44 28.58C24.0267 29.26 23.82 30.0667 23.82 31ZM37.6658 31C37.6658 31.8933 37.8524 32.6867 38.2258 33.38C38.5991 34.0733 39.1124 34.62 39.7658 35.02C40.4191 35.42 41.1791 35.62 42.0458 35.62C42.9124 35.62 43.6724 35.42 44.3258 35.02C44.9791 34.62 45.4858 34.0733 45.8458 33.38C46.2191 32.6867 46.4058 31.8933 46.4058 31C46.4058 30.1067 46.2258 29.3133 45.8658 28.62C45.5058 27.9267 44.9991 27.38 44.3458 26.98C43.6924 26.58 42.9258 26.38 42.0458 26.38C41.1791 26.38 40.4191 26.58 39.7658 26.98C39.1124 27.38 38.5991 27.9267 38.2258 28.62C37.8524 29.3133 37.6658 30.1067 37.6658 31ZM34.6458 31C34.6458 29.9333 34.8324 28.96 35.2058 28.08C35.5791 27.1867 36.0991 26.4133 36.7658 25.76C37.4324 25.1067 38.2124 24.6067 39.1058 24.26C40.0124 23.9 40.9924 23.72 42.0458 23.72C43.1124 23.72 44.0924 23.9 44.9858 24.26C45.8791 24.6067 46.6591 25.1067 47.3258 25.76C48.0058 26.4133 48.5258 27.1867 48.8858 28.08C49.2591 28.96 49.4458 29.9333 49.4458 31C49.4458 32.0533 49.2591 33.0333 48.8858 33.94C48.5258 34.8333 48.0124 35.6133 47.3458 36.28C46.6924 36.9467 45.9124 37.4667 45.0058 37.84C44.1124 38.2 43.1258 38.38 42.0458 38.38C40.9658 38.38 39.9724 38.2 39.0658 37.84C38.1724 37.4667 37.3924 36.9467 36.7258 36.28C36.0591 35.6133 35.5458 34.8333 35.1858 33.94C34.8258 33.0333 34.6458 32.0533 34.6458 31ZM56.0967 31.18V29.8C56.7767 29.8 57.3434 29.7133 57.7967 29.54C58.2501 29.3667 58.5901 29.1333 58.8167 28.84C59.0567 28.5333 59.1767 28.2 59.1767 27.84C59.1767 27.4933 59.0901 27.1933 58.9167 26.94C58.7567 26.6733 58.5034 26.4667 58.1567 26.32C57.8234 26.1733 57.4101 26.1 56.9167 26.1C56.4101 26.1 55.9701 26.18 55.5967 26.34C55.2234 26.4867 54.9301 26.7 54.7167 26.98C54.5167 27.2467 54.4167 27.5533 54.4167 27.9H51.7567C51.7567 27.1 51.9567 26.3933 52.3567 25.78C52.7701 25.1533 53.3634 24.66 54.1367 24.3C54.9101 23.94 55.8367 23.76 56.9167 23.76C58.0234 23.76 58.9501 23.9333 59.6967 24.28C60.4567 24.6267 61.0367 25.0867 61.4367 25.66C61.8367 26.2333 62.0367 26.8733 62.0367 27.58C62.0367 28.1533 61.8834 28.6667 61.5767 29.12C61.2701 29.56 60.8501 29.9333 60.3167 30.24C59.7834 30.5467 59.1567 30.78 58.4367 30.94C57.7167 31.1 56.9367 31.18 56.0967 31.18ZM56.9567 38.28C55.9701 38.28 55.1101 38.16 54.3767 37.92C53.6567 37.68 53.0567 37.3533 52.5767 36.94C52.1101 36.5133 51.7567 36.0333 51.5167 35.5C51.2767 34.9533 51.1567 34.38 51.1567 33.78H53.9967C54.0234 34.2333 54.1567 34.62 54.3967 34.94C54.6367 35.26 54.9634 35.5067 55.3767 35.68C55.8034 35.84 56.3034 35.92 56.8767 35.92C57.7434 35.92 58.4101 35.7533 58.8767 35.42C59.3434 35.0733 59.5767 34.5733 59.5767 33.92C59.5767 33.48 59.4434 33.1 59.1767 32.78C58.9234 32.4467 58.5367 32.1933 58.0167 32.02C57.4967 31.8467 56.8567 31.76 56.0967 31.76V30.24C57.3101 30.24 58.3901 30.38 59.3367 30.66C60.2967 30.9267 61.0501 31.3533 61.5967 31.94C62.1567 32.5133 62.4367 33.2733 62.4367 34.22C62.4367 35.02 62.2301 35.7267 61.8167 36.34C61.4034 36.9533 60.7834 37.4333 59.9567 37.78C59.1434 38.1133 58.1434 38.28 56.9567 38.28ZM71.332 28.7L68.112 37.4H64.852L71.332 23.3L77.812 37.4H74.552L71.332 28.7ZM76.252 38H66.412V40.2H63.632V35.5H79.032V40.2H76.252V38ZM84.0069 34.82L84.3469 32.56H91.0669L91.4069 34.82H84.0069ZM87.6669 28.54L85.5669 33.36L85.6269 34L83.7869 38H80.5669L87.6669 23.18L94.7669 38H91.5269L89.7269 34.12L89.7669 33.4L87.6669 28.54ZM93.4794 26.58V24H103.879V26.58H100.099V38H97.2394V26.58H93.4794ZM105.504 24H108.364V38H105.504V24ZM107.244 31.5V29.08H110.024C111.131 29.08 112.071 29.26 112.844 29.62C113.631 29.98 114.231 30.4933 114.644 31.16C115.058 31.8267 115.264 32.62 115.264 33.54C115.264 34.4467 115.058 35.24 114.644 35.92C114.231 36.5867 113.631 37.1 112.844 37.46C112.071 37.82 111.131 38 110.024 38H107.244V35.58H110.024C110.531 35.58 110.964 35.5067 111.324 35.36C111.698 35.2 111.984 34.9667 112.184 34.66C112.384 34.3533 112.484 33.98 112.484 33.54C112.484 33.1 112.384 32.7267 112.184 32.42C111.984 32.1133 111.698 31.8867 111.324 31.74C110.964 31.58 110.531 31.5 110.024 31.5H107.244Z" fill="white"/>
<defs>
<clipPath id="clip0_1858_18086">
<rect width="24" height="24" fill="white" transform="translate(198 18)"/>
</clipPath>
</defs>
</svg>
