<svg width="240" height="60" viewBox="0 0 240 60" fill="none" xmlns="http://www.w3.org/2000/svg">
<path d="M20 0H226C233.732 0 240 6.26801 240 14V40L220 60H14C6.26801 60 0 53.732 0 46V20L20 0Z" fill="black" fill-opacity="0.35"/>
<path d="M1 20.4142L20.4142 1H226C233.18 1 239 6.8203 239 14V39.5858L219.586 59H14C6.8203 59 1 53.1797 1 46V20.4142Z" stroke="white" stroke-opacity="0.35" stroke-width="2"/>
<path d="M240.001 46L240.001 60H226L240.001 46Z" fill="white"/>
<path d="M2 7V12L12 2H7L2 7Z" fill="white"/>
<path d="M201.964 5H226C230.971 5 235 9.02944 235 14V37.92L217.92 55H185V21.9643L201.964 5Z" fill="white" fill-opacity="0.25"/>
<path d="M201.964 5H226C230.971 5 235 9.02944 235 14V37.92L217.92 55H185V21.9643L201.964 5Z" stroke="white"/>
<g clip-path="url(#clip0_1858_19192)">
<path d="M202 37H218V30H220V38C220 38.2652 219.895 38.5196 219.707 38.7071C219.52 38.8946 219.265 39 219 39H201C200.735 39 200.48 38.8946 200.293 38.7071C200.105 38.5196 200 38.2652 200 38V30H202V37ZM211 27V34H209V27H204L210 21L216 27H211Z" fill="white"/>
</g>
<path d="M23.876 39.108C22.884 39.108 22.192 38.86 21.8 38.364C21.408 37.86 21.212 36.988 21.212 35.748C21.212 35.02 21.508 34.656 22.1 34.656C22.684 34.656 22.976 35.02 22.976 35.748V36.18C22.976 36.644 23.044 36.956 23.18 37.116C23.324 37.268 23.612 37.344 24.044 37.344H28.436C29.004 37.344 29.512 37.216 29.96 36.96C30.408 36.696 30.76 36.352 31.016 35.928C31.272 35.504 31.4 35.044 31.4 34.548C31.4 34.076 31.276 33.648 31.028 33.264C30.788 32.88 30.448 32.576 30.008 32.352C29.576 32.12 29.084 32.004 28.532 32.004H26.468C25.716 32.004 25.34 31.712 25.34 31.128C25.34 30.536 25.716 30.24 26.468 30.24H28.532C29.1 30.24 29.6 30.144 30.032 29.952C30.464 29.752 30.8 29.48 31.04 29.136C31.28 28.792 31.4 28.396 31.4 27.948C31.4 27.476 31.272 27.048 31.016 26.664C30.768 26.272 30.42 25.964 29.972 25.74C29.532 25.508 29.02 25.392 28.436 25.392H24.044C23.612 25.392 23.324 25.472 23.18 25.632C23.044 25.784 22.976 26.088 22.976 26.544V26.976C22.976 27.712 22.684 28.08 22.1 28.08C21.508 28.08 21.212 27.712 21.212 26.976C21.212 25.736 21.408 24.868 21.8 24.372C22.192 23.876 22.884 23.628 23.876 23.628H28.604C29.5 23.628 30.288 23.804 30.968 24.156C31.656 24.5 32.192 24.984 32.576 25.608C32.968 26.232 33.164 26.956 33.164 27.78C33.164 28.5 33.024 29.144 32.744 29.712C32.472 30.28 32.068 30.764 31.532 31.164C32.068 31.588 32.472 32.104 32.744 32.712C33.024 33.32 33.164 33.988 33.164 34.716C33.164 35.548 32.964 36.296 32.564 36.96C32.172 37.624 31.632 38.148 30.944 38.532C30.256 38.916 29.476 39.108 28.604 39.108H23.876ZM46.0016 39.276C45.7936 39.276 45.6336 39.212 45.5216 39.084C45.4096 38.956 45.3296 38.704 45.2816 38.328C45.2416 37.952 45.2216 37.396 45.2216 36.66L45.4616 37.224C44.9736 37.912 44.3616 38.4 43.6256 38.688C42.8896 38.968 42.0176 39.108 41.0096 39.108H38.7776C37.9456 39.108 37.2656 38.828 36.7376 38.268C36.2176 37.7 35.9576 36.84 35.9576 35.688C35.9576 34.904 36.0856 34.26 36.3416 33.756C36.5976 33.244 36.9776 32.84 37.4816 32.544C37.9936 32.248 38.6136 32.04 39.3416 31.92C40.0776 31.792 40.9176 31.728 41.8616 31.728H45.9296L45.1376 32.46V30.624C45.1376 30.224 45.0656 29.952 44.9216 29.808C44.7856 29.664 44.5016 29.592 44.0696 29.592H40.6856C39.9176 29.592 39.3216 29.624 38.8976 29.688C38.4736 29.744 38.1736 29.848 37.9976 30C37.8216 30.144 37.7296 30.34 37.7216 30.588C37.6976 30.956 37.6296 31.228 37.5176 31.404C37.4136 31.58 37.1856 31.668 36.8336 31.668C36.2496 31.668 35.9576 31.28 35.9576 30.504C35.9576 29.584 36.3376 28.908 37.0976 28.476C37.8656 28.044 39.0056 27.828 40.5176 27.828H44.2376C45.2296 27.828 45.9216 28.064 46.3136 28.536C46.7056 29.008 46.9016 29.836 46.9016 31.02V38.232C46.9016 38.928 46.6016 39.276 46.0016 39.276ZM38.8376 37.416H41.0096C42.5056 37.416 43.5696 37.072 44.2016 36.384C44.8336 35.696 45.1456 34.64 45.1376 33.216L45.3536 33.42H41.8616C40.8616 33.42 40.0576 33.476 39.4496 33.588C38.8416 33.692 38.4016 33.9 38.1296 34.212C37.8576 34.524 37.7216 34.988 37.7216 35.604C37.7216 36.196 37.8256 36.648 38.0336 36.96C38.2416 37.264 38.5096 37.416 38.8376 37.416ZM59.204 29.592H52.976C52.552 29.592 52.268 29.668 52.124 29.82C51.98 29.972 51.908 30.272 51.908 30.72V38.232C51.908 38.928 51.616 39.276 51.032 39.276C50.44 39.276 50.144 38.928 50.144 38.232V31.02C50.144 29.836 50.34 29.008 50.732 28.536C51.124 28.064 51.816 27.828 52.808 27.828H59.204C59.932 27.828 60.296 28.12 60.296 28.704C60.296 29.296 59.932 29.592 59.204 29.592ZM63.1732 43.476C62.5972 43.476 62.3092 43.108 62.3092 42.372V28.704C62.3092 28.008 62.6092 27.66 63.2092 27.66C63.5212 27.66 63.7412 27.76 63.8692 27.96C63.9972 28.152 64.0612 28.484 64.0612 28.956V29.904L63.7492 29.484C64.2372 28.908 64.8572 28.488 65.6092 28.224C66.3612 27.96 67.2332 27.828 68.2252 27.828H68.9212C70.3532 27.828 71.4972 27.964 72.3532 28.236C73.2172 28.5 73.8412 28.952 74.2252 29.592C74.6092 30.224 74.8012 31.088 74.8012 32.184V34.74C74.8012 35.844 74.6092 36.716 74.2252 37.356C73.8412 37.988 73.2212 38.44 72.3652 38.712C71.5172 38.976 70.3852 39.108 68.9692 39.108H64.0732V42.372C64.0732 43.108 63.7732 43.476 63.1732 43.476ZM64.0732 37.344H68.9692C70.1052 37.344 70.9652 37.28 71.5492 37.152C72.1332 37.024 72.5252 36.772 72.7252 36.396C72.9332 36.012 73.0372 35.444 73.0372 34.692V32.244C73.0372 31.476 72.9292 30.904 72.7132 30.528C72.5052 30.144 72.1052 29.892 71.5132 29.772C70.9212 29.652 70.0572 29.592 68.9212 29.592H68.2252C66.8172 29.592 65.7732 29.912 65.0932 30.552C64.4132 31.184 64.0732 32.144 64.0732 33.432V37.344ZM80.3917 44.028C79.7597 44.028 79.2477 43.916 78.8557 43.692C78.4717 43.476 78.1917 43.156 78.0157 42.732C77.8397 42.316 77.7517 41.816 77.7517 41.232C77.7517 40.824 77.8237 40.512 77.9677 40.296C78.1197 40.088 78.3437 39.984 78.6397 39.984C78.9437 39.984 79.1637 40.08 79.2997 40.272C79.4437 40.472 79.5157 40.732 79.5157 41.052C79.5237 41.492 79.5917 41.804 79.7197 41.988C79.8557 42.172 80.1437 42.264 80.5837 42.264H87.6397C87.9997 42.264 88.2277 42.208 88.3237 42.096C88.4277 41.984 88.4797 41.724 88.4797 41.316V37.884C87.5117 38.7 86.1317 39.108 84.3397 39.108H83.6437C82.2197 39.108 81.0717 38.976 80.1997 38.712C79.3357 38.44 78.7117 37.988 78.3277 37.356C77.9437 36.716 77.7517 35.844 77.7517 34.74V28.716C77.7517 28.012 78.0477 27.66 78.6397 27.66C79.2237 27.66 79.5157 28.012 79.5157 28.716V34.692C79.5157 35.444 79.6197 36.012 79.8277 36.396C80.0357 36.772 80.4357 37.024 81.0277 37.152C81.6197 37.28 82.4917 37.344 83.6437 37.344H84.3397C85.7157 37.344 86.7477 37.02 87.4357 36.372C88.1317 35.716 88.4797 34.744 88.4797 33.456V28.716C88.4797 28.012 88.7757 27.66 89.3677 27.66C89.9517 27.66 90.2437 28.012 90.2437 28.716V40.932C90.2437 42.068 90.0637 42.868 89.7037 43.332C89.3437 43.796 88.7117 44.028 87.8077 44.028H80.3917ZM95.9257 39.108C94.9337 39.108 94.2417 38.86 93.8497 38.364C93.4657 37.86 93.2737 36.988 93.2737 35.748C93.2737 35.02 93.5657 34.656 94.1497 34.656C94.7417 34.656 95.0377 35.02 95.0377 35.748V36.18C95.0377 36.644 95.1057 36.956 95.2417 37.116C95.3857 37.268 95.6697 37.344 96.0937 37.344H100.486C102.47 37.344 103.462 36.952 103.462 36.168C103.462 35.456 103.242 34.944 102.802 34.632C102.362 34.32 101.622 34.164 100.582 34.164H98.5177C97.7737 34.164 97.4017 33.888 97.4017 33.336C97.4017 32.712 97.7737 32.4 98.5177 32.4H100.582C101.326 32.4 101.906 32.356 102.322 32.268C102.746 32.172 103.046 32.004 103.222 31.764C103.398 31.524 103.486 31.188 103.486 30.756C103.486 29.98 102.486 29.592 100.486 29.592H96.0937C95.6697 29.592 95.3857 29.672 95.2417 29.832C95.1057 29.984 95.0377 30.288 95.0377 30.744V31.176C95.0377 31.912 94.7417 32.28 94.1497 32.28C93.5657 32.28 93.2737 31.912 93.2737 31.176C93.2737 29.936 93.4657 29.068 93.8497 28.572C94.2417 28.076 94.9337 27.828 95.9257 27.828H100.654C102.118 27.828 103.246 28.092 104.038 28.62C104.83 29.148 105.226 29.948 105.226 31.02C105.226 31.596 105.122 32.072 104.914 32.448C104.706 32.824 104.406 33.124 104.014 33.348C104.822 33.94 105.226 34.784 105.226 35.88C105.226 36.976 104.83 37.788 104.038 38.316C103.246 38.844 102.118 39.108 100.654 39.108H95.9257ZM119.165 39.276C118.581 39.276 118.289 38.9 118.289 38.148V30.312L110.045 39.108H108.341V28.728C108.341 28.016 108.633 27.66 109.217 27.66C109.809 27.66 110.105 28.032 110.105 28.776V36.708L118.409 27.828H120.053V38.208C120.053 38.92 119.757 39.276 119.165 39.276ZM127.622 39.276C126.982 39.276 126.662 38.952 126.662 38.304V29.592H123.146C122.442 29.592 122.09 29.296 122.09 28.704C122.09 28.12 122.442 27.828 123.146 27.828H132.11C132.806 27.828 133.154 28.12 133.154 28.704C133.154 29.296 132.806 29.592 132.11 29.592H128.606V38.304C128.606 38.6 128.518 38.836 128.342 39.012C128.166 39.188 127.926 39.276 127.622 39.276ZM135.177 39.108V28.728C135.177 28.016 135.469 27.66 136.053 27.66C136.645 27.66 136.941 28.016 136.941 28.728V32.4H142.077C142.933 32.4 143.669 32.528 144.285 32.784C144.901 33.032 145.377 33.404 145.713 33.9C146.049 34.396 146.217 35.012 146.217 35.748C146.217 36.484 146.049 37.1 145.713 37.596C145.385 38.092 144.909 38.464 144.285 38.712C143.669 38.96 142.933 39.092 142.077 39.108H135.177ZM136.941 37.344H141.873C142.609 37.344 143.221 37.24 143.709 37.032C144.205 36.816 144.453 36.416 144.453 35.832C144.453 35.352 144.345 34.992 144.129 34.752C143.921 34.512 143.621 34.356 143.229 34.284C142.845 34.204 142.393 34.164 141.873 34.164H136.941V37.344Z" fill="white"/>
<defs>
<clipPath id="clip0_1858_19192">
<rect width="24" height="24" fill="white" transform="translate(198 18)"/>
</clipPath>
</defs>
</svg>
