<svg width="240" height="60" viewBox="0 0 240 60" fill="none" xmlns="http://www.w3.org/2000/svg">
<path d="M20 0H226C233.732 0 240 6.26801 240 14V40L220 60H14C6.26801 60 0 53.732 0 46V20L20 0Z" fill="white" fill-opacity="0.15"/>
<path d="M1 20.4142L20.4142 1H226C233.18 1 239 6.8203 239 14V39.5858L219.586 59H14C6.8203 59 1 53.1797 1 46V20.4142Z" stroke="white" stroke-opacity="0.15" stroke-width="2"/>
<path d="M240.001 46L240.001 60H226L240.001 46Z" fill="white" fill-opacity="0.15"/>
<path d="M2 7V12L12 2H7L2 7Z" fill="white" fill-opacity="0.15"/>
<path d="M201.964 5H226C230.971 5 235 9.02944 235 14V37.92L217.92 55H185V21.9643L201.964 5Z" fill="white" fill-opacity="0.1"/>
<g clip-path="url(#clip0_1858_18538)">
<path d="M210 40C204.477 40 200 35.523 200 30C200 24.477 204.477 20 210 20C215.523 20 220 24.477 220 30C220 35.523 215.523 40 210 40ZM210 38C212.122 38 214.157 37.1571 215.657 35.6569C217.157 34.1566 218 32.1217 218 30C218 27.8783 217.157 25.8434 215.657 24.3431C214.157 22.8429 212.122 22 210 22C207.878 22 205.843 22.8429 204.343 24.3431C202.843 25.8434 202 27.8783 202 30C202 32.1217 202.843 34.1566 204.343 35.6569C205.843 37.1571 207.878 38 210 38ZM209 25H211V27H209V25ZM209 29H211V35H209V29Z" fill="white" fill-opacity="0.15"/>
</g>
<path d="M30.58 26.58H24.5V38H21.6V24H33.48V38H30.58V26.58ZM38.8181 31C38.8181 31.8933 39.0048 32.6867 39.3781 33.38C39.7515 34.0733 40.2648 34.62 40.9181 35.02C41.5715 35.42 42.3315 35.62 43.1981 35.62C44.0648 35.62 44.8248 35.42 45.4781 35.02C46.1315 34.62 46.6381 34.0733 46.9981 33.38C47.3715 32.6867 47.5581 31.8933 47.5581 31C47.5581 30.1067 47.3781 29.3133 47.0181 28.62C46.6581 27.9267 46.1515 27.38 45.4981 26.98C44.8448 26.58 44.0781 26.38 43.1981 26.38C42.3315 26.38 41.5715 26.58 40.9181 26.98C40.2648 27.38 39.7515 27.9267 39.3781 28.62C39.0048 29.3133 38.8181 30.1067 38.8181 31ZM35.7981 31C35.7981 29.9333 35.9848 28.96 36.3581 28.08C36.7315 27.1867 37.2515 26.4133 37.9181 25.76C38.5848 25.1067 39.3648 24.6067 40.2581 24.26C41.1648 23.9 42.1448 23.72 43.1981 23.72C44.2648 23.72 45.2448 23.9 46.1381 24.26C47.0315 24.6067 47.8115 25.1067 48.4781 25.76C49.1581 26.4133 49.6781 27.1867 50.0381 28.08C50.4115 28.96 50.5981 29.9333 50.5981 31C50.5981 32.0533 50.4115 33.0333 50.0381 33.94C49.6781 34.8333 49.1648 35.6133 48.4981 36.28C47.8448 36.9467 47.0648 37.4667 46.1581 37.84C45.2648 38.2 44.2781 38.38 43.1981 38.38C42.1181 38.38 41.1248 38.2 40.2181 37.84C39.3248 37.4667 38.5448 36.9467 37.8781 36.28C37.2115 35.6133 36.6981 34.8333 36.3381 33.94C35.9781 33.0333 35.7981 32.0533 35.7981 31ZM59.1836 28.7L55.9636 37.4H52.7036L59.1836 23.3L65.6636 37.4H62.4036L59.1836 28.7ZM64.1036 38H54.2636V40.2H51.4836V35.5H66.8836V40.2H64.1036V38ZM69.313 24H72.173V38H69.313V24ZM71.053 26.42V24H73.833C74.9396 24 75.8796 24.18 76.653 24.54C77.4396 24.9 78.0396 25.4133 78.453 26.08C78.8663 26.7467 79.073 27.54 79.073 28.46C79.073 29.3667 78.8663 30.16 78.453 30.84C78.0396 31.5067 77.4396 32.02 76.653 32.38C75.8796 32.74 74.9396 32.92 73.833 32.92H71.053V30.5H73.833C74.593 30.5 75.193 30.3267 75.633 29.98C76.073 29.6333 76.293 29.1267 76.293 28.46C76.293 27.78 76.073 27.2733 75.633 26.94C75.193 26.5933 74.593 26.42 73.833 26.42H71.053ZM83.5056 31C83.5056 31.8933 83.6923 32.6867 84.0656 33.38C84.439 34.0733 84.9523 34.62 85.6056 35.02C86.259 35.42 87.019 35.62 87.8856 35.62C88.7523 35.62 89.5123 35.42 90.1656 35.02C90.819 34.62 91.3256 34.0733 91.6856 33.38C92.059 32.6867 92.2456 31.8933 92.2456 31C92.2456 30.1067 92.0656 29.3133 91.7056 28.62C91.3456 27.9267 90.839 27.38 90.1856 26.98C89.5323 26.58 88.7656 26.38 87.8856 26.38C87.019 26.38 86.259 26.58 85.6056 26.98C84.9523 27.38 84.439 27.9267 84.0656 28.62C83.6923 29.3133 83.5056 30.1067 83.5056 31ZM80.4856 31C80.4856 29.9333 80.6723 28.96 81.0456 28.08C81.419 27.1867 81.939 26.4133 82.6056 25.76C83.2723 25.1067 84.0523 24.6067 84.9456 24.26C85.8523 23.9 86.8323 23.72 87.8856 23.72C88.9523 23.72 89.9323 23.9 90.8256 24.26C91.719 24.6067 92.499 25.1067 93.1656 25.76C93.8456 26.4133 94.3656 27.1867 94.7256 28.08C95.099 28.96 95.2856 29.9333 95.2856 31C95.2856 32.0533 95.099 33.0333 94.7256 33.94C94.3656 34.8333 93.8523 35.6133 93.1856 36.28C92.5323 36.9467 91.7523 37.4667 90.8456 37.84C89.9523 38.2 88.9656 38.38 87.8856 38.38C86.8056 38.38 85.8123 38.2 84.9056 37.84C84.0123 37.4667 83.2323 36.9467 82.5656 36.28C81.899 35.6133 81.3856 34.8333 81.0256 33.94C80.6656 33.0333 80.4856 32.0533 80.4856 31ZM98.5166 31.76V29.38H103.097C104.003 29.38 104.81 29.56 105.517 29.92C106.237 30.2667 106.803 30.7667 107.217 31.42C107.643 32.06 107.857 32.8133 107.857 33.68C107.857 34.5333 107.643 35.2867 107.217 35.94C106.803 36.5933 106.237 37.1 105.517 37.46C104.81 37.82 104.003 38 103.097 38H98.5166V35.58H102.577C103.057 35.58 103.477 35.5133 103.837 35.38C104.197 35.2333 104.47 35.02 104.657 34.74C104.857 34.46 104.957 34.1067 104.957 33.68C104.957 33.24 104.857 32.88 104.657 32.6C104.47 32.32 104.197 32.1133 103.837 31.98C103.477 31.8333 103.057 31.76 102.577 31.76H98.5166ZM97.5766 24H106.797V26.42H100.477V38H97.5766V24ZM111.112 31.84V29.26H121.392V31.84H111.112ZM119.572 24H122.432V38H119.572V24ZM110.172 24H113.032V38H110.172V24ZM127.286 38V35.58H134.346V38H127.286ZM127.286 26.42V24H134.346V26.42H127.286ZM127.286 31.76V29.38H133.946V31.76H127.286ZM125.446 24H128.206V38H125.446V24ZM139.005 38V35.58H146.065V38H139.005ZM139.005 26.42V24H146.065V26.42H139.005ZM139.005 31.76V29.38H145.665V31.76H139.005ZM137.165 24H139.925V38H137.165V24Z" fill="white" fill-opacity="0.15"/>
<defs>
<clipPath id="clip0_1858_18538">
<rect width="24" height="24" fill="white" transform="translate(198 18)"/>
</clipPath>
</defs>
</svg>
