<svg width="240" height="60" viewBox="0 0 240 60" fill="none" xmlns="http://www.w3.org/2000/svg">
<path d="M20 0H226C233.732 0 240 6.26801 240 14V40L220 60H14C6.26801 60 0 53.732 0 46V20L20 0Z" fill="black" fill-opacity="0.25"/>
<path d="M1 20.4142L20.4142 1H226C233.18 1 239 6.8203 239 14V39.5858L219.586 59H14C6.8203 59 1 53.1797 1 46V20.4142Z" stroke="white" stroke-opacity="0.15" stroke-width="2"/>
<path d="M240.001 46L240.001 60H226L240.001 46Z" fill="white"/>
<path d="M2 7V12L12 2H7L2 7Z" fill="white"/>
<path d="M201.964 5H226C230.971 5 235 9.02944 235 14V37.92L217.92 55H185V21.9643L201.964 5Z" fill="white" fill-opacity="0.1"/>
<g clip-path="url(#clip0_1858_17992)">
<path d="M210.414 23H219C219.265 23 219.52 23.1054 219.707 23.2929C219.895 23.4804 220 23.7348 220 24V38C220 38.2652 219.895 38.5196 219.707 38.7071C219.52 38.8946 219.265 39 219 39H201C200.735 39 200.48 38.8946 200.293 38.7071C200.105 38.5196 200 38.2652 200 38V22C200 21.7348 200.105 21.4804 200.293 21.2929C200.48 21.1054 200.735 21 201 21H208.414L210.414 23ZM202 23V37H218V25H209.586L207.586 23H202ZM211 31H214L210 35L206 31H209V27H211V31Z" fill="white" fill-opacity="0.55"/>
</g>
<path d="M23.82 31C23.82 31.92 24.0267 32.7267 24.44 33.42C24.8667 34.1 25.42 34.6267 26.1 35C26.78 35.36 27.52 35.54 28.32 35.54C28.9867 35.54 29.58 35.4533 30.1 35.28C30.62 35.1067 31.0867 34.8733 31.5 34.58C31.9267 34.2867 32.2933 33.9667 32.6 33.62V36.84C32.0267 37.2933 31.4 37.6467 30.72 37.9C30.0533 38.1533 29.2067 38.28 28.18 38.28C27.1133 38.28 26.12 38.1067 25.2 37.76C24.2933 37.4133 23.5 36.9133 22.82 36.26C22.1533 35.6067 21.6333 34.84 21.26 33.96C20.9 33.0667 20.72 32.08 20.72 31C20.72 29.92 20.9 28.94 21.26 28.06C21.6333 27.1667 22.1533 26.3933 22.82 25.74C23.5 25.0867 24.2933 24.5867 25.2 24.24C26.12 23.8933 27.1133 23.72 28.18 23.72C29.2067 23.72 30.0533 23.8467 30.72 24.1C31.4 24.3533 32.0267 24.7067 32.6 25.16V28.38C32.2933 28.0333 31.9267 27.7133 31.5 27.42C31.0867 27.1267 30.62 26.8933 30.1 26.72C29.58 26.5467 28.9867 26.46 28.32 26.46C27.52 26.46 26.78 26.6467 26.1 27.02C25.42 27.38 24.8667 27.9 24.44 28.58C24.0267 29.26 23.82 30.0667 23.82 31ZM35.4458 24H38.3858V38H35.4458V24ZM43.3658 24H46.7658L40.9658 30.56L47.0658 38H43.5858L37.5458 30.64L43.3658 24ZM50.5498 34.82L50.8898 32.56H57.6098L57.9498 34.82H50.5498ZM54.2098 28.54L52.1098 33.36L52.1698 34L50.3298 38H47.1098L54.2098 23.18L61.3098 38H58.0698L56.2698 34.12L56.3098 33.4L54.2098 28.54ZM67.3686 33.22L68.0486 30.68H71.7086V33.22H67.3686ZM70.4886 24H73.4286V38H70.4886V24ZM65.6686 24V28.02C65.6686 28.5667 65.7619 29.04 65.9486 29.44C66.1486 29.84 66.4286 30.1467 66.7886 30.36C67.1486 30.5733 67.5686 30.68 68.0486 30.68L67.3686 33.22C66.3953 33.22 65.5686 33 64.8886 32.56C64.2086 32.12 63.6953 31.5267 63.3486 30.78C63.0019 30.0333 62.8286 29.2133 62.8286 28.32V24H65.6686ZM78.4795 34.82L78.8195 32.56H85.5395L85.8795 34.82H78.4795ZM82.1395 28.54L80.0395 33.36L80.0995 34L78.2595 38H75.0395L82.1395 23.18L89.2395 38H85.9995L84.1995 34.12L84.2395 33.4L82.1395 28.54ZM87.952 26.58V24H98.352V26.58H94.572V38H91.712V26.58H87.952ZM99.977 24H102.837V38H99.977V24ZM101.717 31.5V29.08H104.497C105.604 29.08 106.544 29.26 107.317 29.62C108.104 29.98 108.704 30.4933 109.117 31.16C109.53 31.8267 109.737 32.62 109.737 33.54C109.737 34.4467 109.53 35.24 109.117 35.92C108.704 36.5867 108.104 37.1 107.317 37.46C106.544 37.82 105.604 38 104.497 38H101.717V35.58H104.497C105.004 35.58 105.437 35.5067 105.797 35.36C106.17 35.2 106.457 34.9667 106.657 34.66C106.857 34.3533 106.957 33.98 106.957 33.54C106.957 33.1 106.857 32.7267 106.657 32.42C106.457 32.1133 106.17 31.8867 105.797 31.74C105.437 31.58 105.004 31.5 104.497 31.5H101.717Z" fill="white" fill-opacity="0.55"/>
<defs>
<clipPath id="clip0_1858_17992">
<rect width="24" height="24" fill="white" transform="translate(198 18)"/>
</clipPath>
</defs>
</svg>
